<svg xmlns="http://www.w3.org/2000/svg" xml:space="preserve" id="Layer_1" x="0" y="0" version="1.1" viewBox="0 0 434.6 174.4"><style>.st0{fill:#0e2346}.st1{fill:#cc7e2e}.st3{fill:#771342}.st4{fill:none;stroke:#fff;stroke-width:.3256;stroke-miterlimit:10}.st7{fill:#fff}.st10{fill:#d1d2d3}</style><path d="M180.5 20.9h11.2l-.2 1h-9.8v7.9h9.1l-.2 1h-8.9v9.1h-1.2zM193 36.2c0-2.8 1.9-4 5.1-4.6l4.9-.8v-.6c0-2.6-1.5-3.9-4.2-3.9-1.6 0-2.9.3-3.8.8l-.2-1c1.1-.5 2.5-.8 4.3-.8 3.2 0 5.1 1.7 5.1 4.9v9.9h-1l-.2-2.9h-.1c-.8 1.9-2.7 3.2-5.1 3.2-2.8 0-4.8-1.7-4.8-4.2m5 3.1c2.8 0 5-2.2 5-4.8v-2.7l-4.7.8c-2.7.5-4.1 1.3-4.1 3.6 0 1.9 1.6 3.1 3.8 3.1M207.9 32.8c0-4.6 2.5-7.5 6.4-7.5 1.6 0 3 .3 4.1.8l-.2 1c-.9-.5-2.2-.8-3.7-.8-3.4 0-5.4 2.5-5.4 6.5s2 6.5 5.4 6.5c1.5 0 2.7-.3 3.7-.8l.2 1c-1.1.5-2.5.8-4.1.8-3.9.1-6.4-2.8-6.4-7.5M221.8 35.2v-9.6h1.2v9.3c0 2.8 1.4 4.4 4.1 4.4 2.8 0 4.8-2.1 4.8-4.9v-8.8h1.2V40h-1l-.2-2.9h-.1c-.8 2-2.6 3.2-5 3.2-3.2.1-5-1.9-5-5.1M237.8 20.9l1.2-.2v19.4h-1.2zM244.6 36.6v-10l-2.4-.2v-.8h2.4v-3l1.2-.3v3.3h3.4l-.2 1h-3.2v9.8c0 1.8.7 2.6 2.4 2.6h1.1l-.2 1h-1c-2.5.1-3.5-1-3.5-3.4M253.1 43.7h.5c1.5 0 2.4-.6 3.1-2.3l.5-1.3-5.7-14.4h1.3l4.9 12.6h.1l4.7-12.6h1.1l-6 15.9c-.9 2.4-2.1 3.2-4 3.2h-.4zM273.1 32.8c0-4.6 2.5-7.5 6.4-7.5s6.4 2.9 6.4 7.5-2.5 7.5-6.4 7.5c-3.9.1-6.4-2.8-6.4-7.5m6.5 6.5c3.2 0 5.2-2.5 5.2-6.5s-2-6.5-5.2-6.5-5.2 2.5-5.2 6.5 1.9 6.5 5.2 6.5M290.6 26.6l-2.4-.2v-.8h2.4v-1.3c0-2.4 1.2-3.7 3.5-3.7h1.3v1h-1.1c-1.7 0-2.5 1-2.5 2.7v1.3h3.5l-.2 1h-3.3V40h-1.2zM179.6 51.4h11.3l-.7 3.3h-6.5v3.1h6.5l-.6 3h-5.9V64h7.2l-.7 3.3h-10.6zM192.8 61.4c0-4 2.4-6.3 6.4-6.3 1.5 0 2.7.2 3.8.5l-.6 2.8c-.7-.2-1.4-.4-2.7-.4-2 0-2.8 1.3-2.8 3.4s.8 3.4 2.8 3.4c1.3 0 1.9-.2 2.7-.4l.6 2.8c-1 .4-2.3.6-3.8.6-4 0-6.4-2.4-6.4-6.4M204.3 61.4c0-4 2.4-6.3 6.4-6.3 3.9 0 6.4 2.4 6.4 6.3s-2.4 6.4-6.4 6.4-6.4-2.4-6.4-6.4m6.3 3.4c1.5 0 2.3-1.3 2.3-3.4s-.8-3.4-2.3-3.4-2.3 1.3-2.3 3.4.8 3.4 2.3 3.4M219.4 55.4h3.6l.4 2h.2c.5-1.4 1.8-2.2 3.6-2.2 2.7 0 4.2 1.7 4.2 4.7v7.7h-4v-6.9c0-1.5-.6-2.3-1.9-2.3s-2 1-2 2.4v6.8h-4V55.4zM233.6 61.4c0-4 2.4-6.3 6.4-6.3s6.4 2.4 6.4 6.3-2.4 6.4-6.4 6.4-6.4-2.4-6.4-6.4m6.4 3.4c1.5 0 2.3-1.3 2.3-3.4s-.8-3.4-2.3-3.4-2.3 1.3-2.3 3.4.8 3.4 2.3 3.4M248.8 55.4h3.6l.4 2h.2c.5-1.4 1.9-2.3 3.5-2.3 1.7 0 3 .8 3.5 2.4h.2c.5-1.4 2-2.4 3.7-2.4 2.5 0 4.1 1.7 4.1 4.2v8.2h-4v-7.2c0-1.3-.6-2-1.8-2-1.1 0-1.8.8-1.8 2v7.2h-4v-7.2c0-1.2-.6-1.9-1.8-1.9-1.1 0-1.8.8-1.8 2.1v7.1h-4zM270.9 52l4-.9v2.7h-4zm0 3.4h4v12.2h-4zM277.3 61.4c0-4 2.4-6.3 6.4-6.3 1.5 0 2.7.2 3.8.5l-.6 2.8c-.7-.2-1.4-.4-2.7-.4-2 0-2.8 1.3-2.8 3.4s.8 3.4 2.8 3.4c1.3 0 1.9-.2 2.7-.4l.6 2.8c-1 .4-2.3.6-3.8.6-4 0-6.4-2.4-6.4-6.4M289.2 67.2l.6-2.7c.7.2 2.2.5 3.6.5 1.2 0 1.7-.3 1.7-1 0-.5-.3-.8-1-.9l-1.8-.4c-2-.5-3.1-1.7-3.1-3.7 0-2.4 1.8-3.9 4.9-3.9 1.5 0 2.8.2 3.8.5l-.6 2.7c-.7-.2-1.7-.5-2.7-.5-1.2 0-1.8.3-1.8 1 0 .5.3.8 1 .9l1.8.4c2.2.5 3.2 1.6 3.2 3.5 0 2.5-2 4.1-5.4 4.1-2 .1-3.2-.1-4.2-.5M301.2 64.2l4-.9v4.2l-.9 4.5h-3.1zM313.4 59.5c0-5.1 3.1-8.3 8-8.3 1.8 0 3.4.3 4.7.8l-.7 3.1c-1.1-.3-2-.5-3.4-.5-2.9 0-4.4 1.9-4.4 4.9s1.5 4.9 4.4 4.9c1.4 0 2.1-.1 3.4-.5l.6 3.1c-1.3.5-2.9.8-4.7.8-4.8 0-7.9-3.2-7.9-8.3M327.5 61.4c0-4 2.4-6.3 6.4-6.3 3.9 0 6.4 2.4 6.4 6.3s-2.4 6.4-6.4 6.4c-3.9 0-6.4-2.4-6.4-6.4m6.4 3.4c1.5 0 2.3-1.3 2.3-3.4s-.8-3.4-2.3-3.4-2.3 1.3-2.3 3.4.8 3.4 2.3 3.4M342.7 55.4h3.6l.4 2h.2c.5-1.4 1.9-2.3 3.5-2.3 1.7 0 3 .8 3.5 2.4h.2c.5-1.4 2-2.4 3.7-2.4 2.5 0 4.1 1.7 4.1 4.2v8.2h-4v-7.2c0-1.3-.6-2-1.8-2-1.1 0-1.8.8-1.8 2v7.2h-4v-7.2c0-1.2-.6-1.9-1.8-1.9-1.1 0-1.8.8-1.8 2.1v7.1h-4zM364.8 55.4h3.6l.4 2h.2c.5-1.4 1.9-2.3 3.5-2.3 1.7 0 3 .8 3.5 2.4h.2c.5-1.4 2-2.4 3.7-2.4 2.5 0 4.1 1.7 4.1 4.2v8.2h-4v-7.2c0-1.3-.6-2-1.8-2-1.1 0-1.8.8-1.8 2v7.2h-4v-7.2c0-1.2-.6-1.9-1.8-1.9-1.1 0-1.8.8-1.8 2.1v7.1h-4zM386.2 61.4c0-4 2.4-6.3 6.4-6.3 3.6 0 6 2.4 6 6.3v1h-8.3c.2 1.6 1 2.5 2.7 2.5 2 0 2.6-.2 3.4-.4l.6 2.6c-1 .4-2.3.6-4.2.6-4.1.1-6.6-2.3-6.6-6.3m8.3-1c-.2-1.6-.9-2.5-1.9-2.5-1.3 0-2.1.9-2.3 2.5zM400.9 55.4h3.6l.4 1.9h.2c.4-1.4 1.5-2.2 3.1-2.2h1.7l-.7 3.2h-1.3c-1.9 0-2.9 1-2.9 2.7v6.5h-4V55.4zM410.8 61.4c0-4 2.4-6.3 6.4-6.3 1.5 0 2.7.2 3.8.5l-.6 2.8c-.7-.2-1.4-.4-2.7-.4-2 0-2.8 1.3-2.8 3.4s.8 3.4 2.8 3.4c1.3 0 1.9-.2 2.7-.4l.6 2.8c-1 .4-2.3.6-3.8.6-4 0-6.4-2.4-6.4-6.4M422.3 61.4c0-4 2.4-6.3 6.4-6.3 3.6 0 6 2.4 6 6.3v1h-8.3c.2 1.6 1 2.5 2.7 2.5 2 0 2.6-.2 3.4-.4l.6 2.6c-1 .4-2.3.6-4.2.6-4.2.1-6.6-2.3-6.6-6.3m8.2-1c-.2-1.6-.9-2.5-1.9-2.5-1.3 0-2.1.9-2.3 2.5zM178.5 91.5c0-2.5 1.4-3.7 4.8-4.3l2.7-.5v-.3c0-1-.6-1.3-2.7-1.3-1.3 0-2 .1-2.7.4l-.6-2.4c1-.4 2.9-.5 4.5-.5 3.5 0 5.4 1.5 5.4 4.2V95h-3.7l-.3-1.4h-.2c-.5 1-1.9 1.7-3.5 1.7-2.1-.1-3.7-1.6-3.7-3.8m5.3 1c1.2 0 2.2-.8 2.2-1.8v-1.4l-2.1.4c-1.2.2-1.7.6-1.7 1.6 0 .7.7 1.2 1.6 1.2M193 82.8h3.6l.4 2h.2c.5-1.4 1.8-2.2 3.6-2.2 2.7 0 4.2 1.7 4.2 4.7V95h-4v-6.9c0-1.5-.6-2.3-1.9-2.3s-2 1-2 2.4V95h-4V82.8zM207.5 88.9c0-4 2.7-6.3 5.6-6.3 1.3 0 2.2.4 2.9 1.1h.2v-4.2l4-.9V95h-3.6l-.3-1.5h-.2c-.6 1.1-1.5 1.7-3 1.7-2.9 0-5.6-2.4-5.6-6.3m6.3 3.3c1.5 0 2.3-.8 2.3-2.3v-3.3c-.4-.7-1.2-1.1-2.3-1.1-1.5 0-2.3 1.3-2.3 3.4s.8 3.3 2.3 3.3M229.1 78.9h3.8l4.8 9.7h.2l4.8-9.7h3.8V95h-4v-7.4h-.2l-3.6 7.4h-2.4l-3.6-7.4h-.2V95H229V78.9zM249.1 91.5c0-2.5 1.4-3.7 4.8-4.3l2.7-.5v-.3c0-1-.6-1.3-2.7-1.3-1.3 0-2 .1-2.7.4l-.6-2.4c1-.4 2.9-.5 4.5-.5 3.5 0 5.4 1.5 5.4 4.2V95h-3.7l-.3-1.4h-.2c-.5 1-1.9 1.7-3.5 1.7-2.1-.1-3.7-1.6-3.7-3.8m5.3 1c1.2 0 2.2-.8 2.2-1.8v-1.4l-2.1.4c-1.2.2-1.7.6-1.7 1.6 0 .7.7 1.2 1.6 1.2M263.7 82.8h3.6l.4 2h.2c.5-1.4 1.8-2.2 3.6-2.2 2.7 0 4.2 1.7 4.2 4.7V95h-4v-6.9c0-1.5-.6-2.3-1.9-2.3s-2 1-2 2.4V95h-4V82.8zM277.9 91.5c0-2.5 1.4-3.7 4.8-4.3l2.7-.5v-.3c0-1-.6-1.3-2.7-1.3-1.3 0-2 .1-2.7.4l-.6-2.4c1-.4 2.9-.5 4.5-.5 3.5 0 5.4 1.5 5.4 4.2V95h-3.7l-.3-1.4h-.2c-.5 1-1.9 1.7-3.5 1.7-2.1-.1-3.7-1.6-3.7-3.8m5.3 1c1.2 0 2.2-.8 2.2-1.8v-1.4l-2.1.4c-1.2.2-1.7.6-1.7 1.6 0 .7.7 1.2 1.6 1.2M294.4 98.6l.6-2.4c.8.2 1.4.4 2.7.4 2.4 0 2.8-1.6 2.8-2.7h-.2c-.7.7-1.5 1.1-2.9 1.1-2.9 0-5.6-2.4-5.6-6.1 0-4 2.7-6.4 5.6-6.4 1.5 0 2.3.6 3 1.7h.2l.3-1.4h3.6v10c0 4-2.4 6.4-6.4 6.4-1.5 0-2.7-.2-3.7-.6m3.7-6.6c1.1 0 1.9-.4 2.3-1.1v-3c0-1.5-.8-2.3-2.3-2.3s-2.3 1.3-2.3 3.4c0 1.7.8 3 2.3 3M307.1 88.9c0-4 2.4-6.3 6.4-6.3 3.6 0 6 2.4 6 6.3v1h-8.3c.2 1.6 1 2.5 2.7 2.5 2 0 2.6-.2 3.4-.4l.6 2.6c-1 .4-2.3.6-4.2.6-4.2 0-6.6-2.4-6.6-6.3m8.3-1.1c-.2-1.6-.9-2.5-1.9-2.5-1.3 0-2.1.9-2.3 2.5zM321.9 82.8h3.6l.4 2h.2c.5-1.4 1.9-2.3 3.5-2.3 1.7 0 3 .8 3.5 2.4h.2c.5-1.4 2-2.4 3.7-2.4 2.5 0 4.1 1.7 4.1 4.2V95h-4v-7.2c0-1.3-.6-2-1.8-2-1.1 0-1.8.8-1.8 2V95h-4v-7.2c0-1.2-.6-1.9-1.8-1.9-1.1 0-1.8.8-1.8 2.1v7h-4zM343.6 88.9c0-4 2.4-6.3 6.4-6.3 3.6 0 6 2.4 6 6.3v1h-8.3c.2 1.6 1 2.5 2.7 2.5 2 0 2.6-.2 3.4-.4l.6 2.6c-1 .4-2.3.6-4.2.6-4.2 0-6.6-2.4-6.6-6.3m8.3-1.1c-.2-1.6-.9-2.5-1.9-2.5-1.3 0-2.1.9-2.3 2.5zM358.4 82.8h3.6l.4 2h.2c.5-1.4 1.8-2.2 3.6-2.2 2.7 0 4.2 1.7 4.2 4.7V95h-4v-6.9c0-1.5-.6-2.3-1.9-2.3s-2 1-2 2.4V95h-4V82.8zM374.4 91.5v-5.8l-1.9-.4v-2.6h1.9v-1.9l4-.9v2.8h2.5l-.6 3h-1.9v4.9c0 .9.5 1.4 1.5 1.4h1.3l-.6 3H379c-3.3 0-4.6-1.1-4.6-3.5M178.9 121.9l.7-3.2c1.1.3 2.6.7 4.1.7 2.1 0 3-.5 3-1.6 0-.8-.6-1.2-2-1.5l-1.5-.3c-3-.7-4.3-2.2-4.3-4.8 0-3.1 2.4-5.1 6.3-5.1 1.7 0 3.2.3 4.5.8l-.7 3.2c-1.1-.4-2-.7-3.7-.7s-2.5.6-2.5 1.5.6 1.3 1.8 1.6l1.5.3c3 .7 4.4 2 4.4 4.7 0 3.2-2.2 5.3-6.4 5.3-2.3-.1-3.9-.4-5.2-.9M192.6 116.3c0-4 2.4-6.3 6.4-6.3 1.5 0 2.7.2 3.8.5l-.6 2.8c-.7-.2-1.4-.4-2.7-.4-2 0-2.8 1.3-2.8 3.4s.8 3.4 2.8 3.4c1.3 0 1.9-.2 2.7-.4l.6 2.8c-1 .4-2.3.6-3.8.6-4 0-6.4-2.4-6.4-6.4M205.2 106.9l4-.9v2.7h-4zm0 3.4h4v12.2h-4zM211.9 116.3c0-4 2.4-6.3 6.4-6.3 3.6 0 6 2.4 6 6.3v1H216c.2 1.6 1 2.5 2.7 2.5 2 0 2.6-.2 3.4-.4l.6 2.6c-1 .4-2.3.6-4.2.6-4.2.1-6.6-2.3-6.6-6.3m8.3-1c-.2-1.6-.9-2.5-1.9-2.5-1.3 0-2.1.9-2.3 2.5zM226.7 110.3h3.6l.4 2h.2c.5-1.4 1.8-2.2 3.6-2.2 2.7 0 4.2 1.7 4.2 4.7v7.7h-4v-6.9c0-1.5-.6-2.3-1.9-2.3s-2 1-2 2.4v6.8h-4v-12.2zM241.2 116.3c0-4 2.4-6.3 6.4-6.3 1.5 0 2.7.2 3.8.5l-.6 2.8c-.7-.2-1.4-.4-2.7-.4-2 0-2.8 1.3-2.8 3.4s.8 3.4 2.8 3.4c1.3 0 1.9-.2 2.7-.4l.6 2.8c-1 .4-2.3.6-3.8.6-4 0-6.4-2.4-6.4-6.4M252.9 116.3c0-4 2.4-6.3 6.4-6.3 3.6 0 6 2.4 6 6.3v1H257c.2 1.6 1 2.5 2.7 2.5 2 0 2.6-.2 3.4-.4l.6 2.6c-1 .4-2.3.6-4.2.6-4.2.1-6.6-2.3-6.6-6.3m8.3-1c-.2-1.6-.9-2.5-1.9-2.5-1.3 0-2.1.9-2.3 2.5zM267.1 122.1l.6-2.7c.7.2 2.2.5 3.6.5 1.2 0 1.7-.3 1.7-1 0-.5-.3-.8-1-.9l-1.8-.4c-2-.5-3.1-1.7-3.1-3.7 0-2.4 1.8-3.9 4.9-3.9 1.5 0 2.8.2 3.8.5l-.6 2.7c-.7-.2-1.7-.5-2.7-.5-1.2 0-1.8.3-1.8 1 0 .5.3.8 1 .9l1.8.4c2.2.5 3.2 1.6 3.2 3.5 0 2.5-2 4.1-5.4 4.1-1.9.1-3.2-.1-4.2-.5M178.9 149.4l.7-3.2c1.1.3 2.6.7 4.1.7 2.1 0 3-.5 3-1.6 0-.8-.6-1.2-2-1.5l-1.5-.3c-3-.7-4.3-2.2-4.3-4.8 0-3.1 2.4-5.1 6.3-5.1 1.7 0 3.2.3 4.5.8l-.7 3.2c-1.1-.4-2-.7-3.7-.7s-2.5.6-2.5 1.5.6 1.3 1.8 1.6l1.5.3c3 .7 4.4 2 4.4 4.7 0 3.2-2.2 5.3-6.4 5.3-2.3-.2-3.9-.4-5.2-.9M192.3 143.8c0-4 2.4-6.3 6.4-6.3 3.6 0 6 2.4 6 6.3v1h-8.3c.2 1.6 1 2.5 2.7 2.5 2 0 2.6-.2 3.4-.4l.6 2.6c-1 .4-2.3.6-4.2.6-4.1 0-6.6-2.4-6.6-6.3m8.3-1.1c-.2-1.6-.9-2.5-1.9-2.5-1.3 0-2.1.9-2.3 2.5zM207.9 146.4v-5.8l-1.9-.4v-2.6h1.9v-1.9l4-.9v2.8h2.5l-.6 3h-1.9v4.9c0 .9.5 1.4 1.5 1.4h1.3l-.6 3h-1.5c-3.4 0-4.7-1.1-4.7-3.5M216.9 134.4l4-.9v2.7h-4zm0 3.3h4v12.2h-4zM225 140.7l-2-.4v-2.5h2v-.4c0-2.5 1.3-3.8 4.6-3.8h1.9v2.6h-1.4c-.8 0-1.2.5-1.2 1.2v.5h2.5l-.6 3H229v9.2h-4zM241.9 137.8h-.2l-3.4.7v-3.4l7.8-1.7v16.4h-4.2zM254.8 145.4v-7.7h4v6.9c0 1.5.6 2.3 1.9 2.3s2-1 2-2.4v-6.8h4v12.2h-3.6l-.4-2h-.2c-.5 1.4-1.8 2.2-3.6 2.2-2.7 0-4.1-1.7-4.1-4.7M269.8 137.7h3.6l.4 2h.2c.5-1.4 1.8-2.2 3.6-2.2 2.7 0 4.2 1.7 4.2 4.7v7.7h-4V143c0-1.5-.6-2.3-1.9-2.3s-2 1-2 2.4v6.8h-4v-12.2zM284.7 134.4l4-.9v2.7h-4zm0 3.3h4v12.2h-4zM290.7 137.7h4.2l2.6 7.4h.2l2.7-7.4h3.4l-4.5 12.2h-4zM304.7 143.8c0-4 2.4-6.3 6.4-6.3 3.6 0 6 2.4 6 6.3v1h-8.3c.2 1.6 1 2.5 2.7 2.5 2 0 2.6-.2 3.4-.4l.6 2.6c-1 .4-2.3.6-4.2.6-4.2 0-6.6-2.4-6.6-6.3m8.3-1.1c-.2-1.6-.9-2.5-1.9-2.5-1.3 0-2.1.9-2.3 2.5zM319.3 137.7h3.6l.4 1.9h.2c.4-1.4 1.5-2.2 3.1-2.2h1.7l-.7 3.2h-1.3c-1.9 0-2.9 1-2.9 2.7v6.5h-4v-12.1zM329.6 149.6l.6-2.7c.7.2 2.2.5 3.6.5 1.2 0 1.7-.3 1.7-1 0-.5-.3-.8-1-.9l-1.8-.4c-2-.5-3.1-1.7-3.1-3.7 0-2.4 1.8-3.9 4.9-3.9 1.5 0 2.8.2 3.8.5l-.6 2.7c-.7-.2-1.7-.5-2.7-.5-1.2 0-1.8.3-1.8 1 0 .5.3.8 1 .9l1.8.4c2.2.5 3.2 1.6 3.2 3.5 0 2.5-2 4.1-5.4 4.1-1.9 0-3.2-.2-4.2-.5M341.4 134.4l4-.9v2.7h-4zm0 3.3h4v12.2h-4zM349.5 146.4v-5.8l-1.9-.4v-2.6h1.9v-1.9l4-.9v2.8h2.5l-.6 3h-1.9v4.9c0 .9.5 1.4 1.5 1.4h1.3l-.6 3h-1.5c-3.4 0-4.7-1.1-4.7-3.5M358.4 151h1.4c1.7 0 2.1-.1 2.2-.8v-.3l-4.7-12.2h4.2l2.9 7.9h.2l2.7-7.9h3.3l-3.9 11.5c-1.2 3.5-3.2 4.6-6.7 4.6h-1z" class="st0"/><path d="M45.5 60c0 .3 0 .5-.1.8 0 .3-.1.6-.1.9 0-.3.1-.6.1-.9.1-.3.1-.5.1-.8" class="st1"/><path d="M90.6 71.2h-.1c-.2 0-.4-.1-.6-.1h-.4l-1.2-.3c-1.3-.3-2.7-.5-4-.7-.5-.1-1-.1-1.5-.2-1.7-.2-3.4-.4-5.2-.4h-5.5l.3 1.8c.1.3.1.7.2 1 0 .1.1.3.1.4s.1.2.1.4.1.3.1.5c0 .1.1.2.1.4.1.2.2.5.3.7h2.5c4.3.1 8.5.6 12.5 1.5.7.2 1.4.3 2.1.5V76c.7-1.3 1.2-2.6 1.4-3.6 0-.2.1-.4.1-.6-.4-.4-.8-.5-1.3-.6M147.1 50l-1.4-1.4c-.3-.3-.7-.6-1-1-.2-.2-.5-.4-.7-.7-.3-.3-.6-.5-.8-.8-.5-.4-.9-.8-1.4-1.2-.3-.2-.5-.4-.8-.6s-.5-.4-.8-.6c-.5-.4-1-.8-1.5-1.3-.3-.2-.5-.4-.8-.6-.2-.2-.4-.3-.6-.5-1.2-.9-2.4-1.8-3.6-2.6-.2-.1-.4-.3-.6-.4l-1.8-1.2-.9-.6c-.2-.1-.5-.3-.7-.4s-.4-.3-.7-.4c-1.4-.9-2.8-1.7-4.2-2.5-.6-.3-1.1-.6-1.7-.9-.2-.1-.5-.3-.7-.4l-1.2-.6c-.5-.3-1.1-.5-1.6-.8-.2-.1-.4-.2-.7-.3-1-.5-2-1-3.1-1.4-.3-.1-.7-.3-1-.4-.4-.2-.8-.3-1.1-.5-.4-.2-.7-.3-1.1-.5s-.8-.3-1.2-.5c-.4-.1-.8-.3-1.1-.4-.5-.2-.9-.3-1.4-.5-.7-.3-1.4-.5-2.1-.7-.4-.1-.8-.3-1.2-.4-.6-.2-1.3-.4-2-.6-.1 0-.2-.1-.3-.1-.2-.1-.4-.1-.6-.2-.7-.2-1.3-.4-2-.5-.3-.1-.7-.2-1-.3-.2 0-.3-.1-.5-.1-.3-.1-.6-.2-.9-.2h-.1c-.3-.1-.6-.1-.9-.2-.2-.1-.4-.1-.7-.2s-.6-.1-1-.2c-.3-.1-.6-.1-1-.2-.6-.1-1.3-.3-1.9-.4-.3-.1-.6-.1-1-.2-.6-.1-1.3-.2-1.9-.3-.3 0-.6-.1-1-.1-.2 0-.4-.1-.6-.1s-.4-.1-.6-.1h-.2c-.5-.1-1.1-.1-1.6-.2h-.1c-.5-.1-1-.1-1.6-.2-.4 0-.8-.1-1.3-.1h-.6c-.3 0-.5 0-.8-.1-.3 0-.5 0-.8-.1h-.5c-.3 0-.6 0-.9-.1-.5 0-1 0-1.5-.1H67.3c-.5 0-.9.1-1.4.1h-.1c-.5 0-1 .1-1.6.1h-.3c-.2 0-.4 0-.6.1h-.1c-.5 0-.9.1-1.4.2h-.2c-.3 0-.6.1-.9.1s-.6.1-.9.1-.7.1-1 .1c-.4.1-.8.1-1.2.2h-.2c-.4.1-.8.1-1.2.2s-.7.1-1.1.2c-.5.1-.9.2-1.4.3-.3.1-.5.1-.8.2-.6.1-1.2.3-1.9.4-.3.1-.6.1-.9.2-.4.1-.9.2-1.3.3l-1.2.3c-.8.2-1.6.4-2.5.7-.4.1-.8.2-1.1.3-.4.1-.8.2-1.2.4-.4.1-.8.2-1.1.4-.4.1-.8.3-1.2.4s-.8.3-1.2.4-.7.3-1.1.4c-.1 0-.1 0-.2.1-.6.2-1.3.5-1.9.7l-1.5.6c-.4.2-.8.3-1.1.5-.4.2-.8.3-1.1.5-.4.2-.8.3-1.1.5-.4.2-.8.3-1.1.5-.4.2-.8.4-1.1.5-.8.4-1.6.8-2.5 1.2-.2.1-.5.2-.7.4l-.6.3c-.6.3-1.2.6-1.8 1-.7.4-1.5.8-2.2 1.3-.3.2-.6.3-.8.5-1 .6-2 1.3-3 1.9-.3.2-.6.4-.8.6-.3.2-.5.3-.8.5-.1.1-.2.1-.3.2-.2.1-.4.3-.6.4-.6.4-1.1.8-1.6 1.2-.3.2-.5.4-.8.6-.8.6-1.6 1.2-2.4 1.9-.3.2-.5.4-.8.6s-.5.4-.8.6-.5.4-.8.7c-.3.2-.5.4-.8.7-.5.4-1 .9-1.5 1.4-.3.2-.5.5-.8.7l-.7.7c-.2.2-.5.4-.7.6-.3.3-.6.5-.8.8.2.6-.1.9-.5 1.2-.7.7-1.4 1.4-2 2.1v7.8c.4-.5.9-1 1.3-1.5.2-.3.5-.5.7-.8.1-.2.3-.3.4-.5s.3-.3.5-.5l.6-.6c.3-.4.7-.7 1-1.1.5-.5.9-1 1.4-1.4.2-.2.4-.4.6-.5.2-.2.4-.4.7-.6l.7-.7c.4-.4.8-.7 1.2-1.1.3-.3.6-.6.9-.8l.1-.1c.3-.3.6-.6.9-.8.3-.3.6-.5.9-.8.4-.3.8-.7 1.2-1 .3-.2.6-.5.9-.7s.5-.4.8-.6c.5-.4 1-.7 1.5-1.1l.9-.6 3-2.1c.2-.2.5-.3.7-.5.2-.1.4-.3.6-.4.3-.2.5-.3.8-.5.7-.5 1.4-.9 2.2-1.3.2-.1.5-.3.7-.4.3-.2.6-.3.9-.5 2.1-1.2 4.2-2.3 6.4-3.4.3-.1.5-.3.8-.4h.1c.3-.1.6-.3.9-.4 1-.4 2-.9 3-1.3.3-.1.5-.2.8-.3s.6-.3 1-.4.6-.3 1-.4c.2-.1.4-.2.7-.2l.9-.3c.3-.1.6-.2.8-.3 1-.3 1.9-.7 2.9-1l.9-.3c.1 0 .2-.1.3-.1.4-.1.8-.2 1.1-.3l1.2-.3c.4-.1.7-.2 1.1-.3.2-.1.4-.1.6-.2.3-.1.6-.1.8-.2h.2c.3-.1.6-.1.9-.2.8-.2 1.7-.4 2.5-.6.3-.1.7-.1 1-.2s.7-.1 1-.2c.7-.1 1.4-.2 2.1-.4.3-.1.7-.1 1-.2s.7-.1 1-.1c.4-.1.7-.1 1.1-.1.5-.1.9-.1 1.4-.2.4 0 .9-.1 1.3-.1s.8-.1 1.2-.1c.3 0 .5 0 .8-.1.5 0 .9-.1 1.4-.1h.7c.5 0 .9 0 1.4-.1h6.9c.5 0 1 0 1.5.1.4 0 .9 0 1.3.1.4 0 .7 0 1.1.1h.1c.3 0 .6 0 .8.1.6 0 1.2.1 1.7.1.2 0 .5 0 .7.1.8.1 1.7.2 2.5.3.3 0 .5.1.8.1.2 0 .5.1.7.1s.5.1.7.1c.3 0 .6.1.9.1.4.1.7.1 1 .2.3 0 .6.1.9.2s.7.1 1 .2c.2 0 .5.1.7.1.4.1.7.2 1.1.2.4.1.7.2 1.1.2.4.1.7.2 1.1.3s.7.2 1.1.3.9.2 1.3.3h.2c.1 0 .2 0 .2.1.1 0 .2.1.3.1.4.1.7.2 1 .3l1.8.6c.4.1.8.2 1.1.4.1 0 .2.1.3.1.4.1.8.3 1.2.4.1 0 .2.1.3.1.4.1.8.3 1.2.4.6.2 1.1.4 1.7.6l3 1.2c2 .8 3.9 1.7 5.8 2.6.1 0 .2.1.2.1.4.2.7.4 1.1.6.1.1.2.1.3.2l1.2.6h.1c.5.3.9.5 1.4.8s1.1.6 1.6.9c.3.2.7.4 1 .6.1.1.2.1.3.2.3.2.6.4.9.5.1.1.3.2.4.3.4.2.8.5 1.1.7 1 .6 2 1.3 3 2 .2.2.5.3.7.5l.9.6c.3.2.6.5.9.7l2.7 2.1c.3.2.5.4.8.7l.1.1c.3.3.6.5.9.8.1.1.3.2.4.4 1.1.9 2.1 1.9 3.2 2.8l.8.8s.1 0 .1.1l.6.6.9.9 1.1 1.1.1.1c.3.4.7.7 1 1.1.2.2.3.4.5.5.2.3.5.5.7.8l.1.1c.3.3.6.7.9 1 .4.5.8 1 1.3 1.5v-7.8c-.3-1.4-1-2.1-1.7-2.8M89.9 71h-.2v.8c0 .5.7.5.8.1 0-.2.1-.4.1-.6h-.1c-.2-.2-.4-.2-.6-.3m52.2 59.4c-.1-.7-.1-1.4-.2-2 0-.3-.1-.7-.1-1-.1-.4-.1-.8-.2-1.2s-.1-.8-.2-1.2-.1-.8-.2-1.2v-.1c-.1-.4-.1-.7-.2-1.1 0-.1 0-.2-.1-.3-.1-.3-.1-.6-.2-.8-.1-.5-.3-1.1-.4-1.6-.1-.3-.1-.6-.2-.8-.1-.4-.2-.9-.4-1.3-.2-.8-.5-1.6-.8-2.5-.1-.3-.2-.5-.3-.8s-.2-.6-.3-.8c-.1-.3-.2-.5-.3-.8-.5-1.4-1.1-2.7-1.7-4.1-.1-.2-.2-.5-.3-.7-.8-1.6-1.6-3.2-2.5-4.7-.1-.2-.2-.4-.4-.6-.4-.6-.7-1.2-1.1-1.8-.1-.2-.3-.4-.4-.6-.3-.5-.6-.9-.9-1.4-.3-.4-.6-.8-.8-1.2-.1-.2-.3-.4-.5-.6-.9-1.3-1.9-2.5-2.9-3.7-.2-.2-.4-.4-.6-.7-1.7-2-3.5-3.8-5.4-5.6-.2-.2-.4-.4-.6-.5-.7-.6-1.3-1.2-2-1.8-.2-.2-.4-.4-.7-.6-.4-.4-.9-.7-1.3-1.1-.2-.2-.5-.4-.7-.5-.2-.2-.5-.4-.7-.5-.2-.2-.5-.3-.7-.5-.5-.4-1-.7-1.5-1.1-.7-.5-1.4-.9-2.1-1.3-.2-.2-.5-.3-.7-.5s-.5-.3-.8-.4l-1.5-.9c-.3-.1-.5-.3-.8-.4s-.5-.3-.8-.4c-.5-.2-.9-.5-1.4-.7-.3-.2-.7-.3-1-.5-.2-.1-.5-.2-.7-.3-.3-.1-.5-.2-.8-.4-.2-.1-.5-.2-.7-.3s-.5-.2-.7-.3c-.3-.1-.6-.2-.9-.4l-.9-.3c-.6-.2-1.2-.4-1.8-.7h-.1l-.9-.3c-.1 0-.1 0-.2-.1-.4-.1-.7-.2-1.1-.3s-.7-.2-1.1-.3-.8-.2-1.1-.3c-.4-.1-.9-.2-1.3-.3h-.1c-.2 0-.4-.1-.6-.1h-.4l-1.2-.3c-1.3-.3-2.7-.5-4-.7-.5-.1-1-.1-1.5-.2-1.7-.2-3.4-.4-5.2-.4h-6.7c-.3 0-.7 0-1 .1h-.4c-.3 0-.6 0-.9.1-.3 0-.7.1-1 .1h-.2c-.2 0-.5 0-.7.1-.2 0-.4 0-.6.1-.3 0-.6.1-.9.1-.5-.1-.7-.1-.9-.1-.3 0-.6.1-.8.1h-.1c-.5.1-.9.2-1.4.2-.4.1-.8.1-1.1.2-.2 0-.3.1-.5.1s-.4.1-.6.1c-.3.1-.5.1-.8.2-1.5.3-2.9.7-4.3 1.1-.2.1-.5.1-.7.2s-.4.1-.6.2c-.3.1-.6.2-1 .3-.2.1-.4.1-.6.2-.1 0-.2.1-.3.1s-.2.1-.3.1c-.2.1-.4.1-.6.2-.3.1-.6.2-.9.4-.2.1-.5.2-.7.3s-.5.2-.7.3c-.3.1-.5.2-.8.4-.3.1-.5.2-.8.4-.1 0-.1.1-.2.1-.5.2-.9.4-1.4.7s-1.1.5-1.6.8c-.3.1-.5.3-.8.4l-.6.3c-1.1.6-2.1 1.2-3.1 1.8-.2.1-.4.3-.7.4-.1.1-.2.1-.3.2-.2.1-.4.2-.6.4s-.5.3-.7.5-.5.3-.7.5-.5.3-.7.5c-.2.1-.4.3-.6.4-1 .7-2 1.5-3 2.3-.2.2-.4.3-.6.5-1 .8-1.9 1.6-2.8 2.5-.2.1-.3.3-.5.4l-.6.6-.6.6-.6.6c-.2.2-.4.5-.7.7-.4.4-.8.8-1.1 1.2-.4.4-.8.9-1.2 1.3s-.8.9-1.1 1.4c-.2.2-.4.5-.6.7l-.1.1c-.3.4-.7.9-1 1.3-.4.5-.7.9-1 1.4-.1.2-.3.4-.4.6-.2.3-.4.6-.6.8s-.3.5-.5.7c-.3.5-.7 1-1 1.5-.1.2-.3.5-.4.7s-.3.5-.4.7c-.9 1.6-1.8 3.2-2.6 4.8-.1.2-.2.5-.4.7-.1.2-.2.5-.3.7-.1.3-.3.6-.4.9s-.2.5-.3.8c-.2.5-.4 1.1-.6 1.6-.1.2-.1.3-.2.5-.2.4-.3.8-.5 1.3 0 .1 0 .1-.1.2-.1.2-.1.4-.2.6v.1c-.1.2-.2.5-.2.7l-.3.9c-.1.3-.2.6-.3.8l-.3 1.2-.3 1.2v.2c-.1.3-.2.6-.2.9 0 .1-.1.3-.1.4-.1.3-.2.6-.2 1-.1.4-.2.7-.2 1.1-.1.4-.2.8-.2 1.2v.1c-.1.4-.1.7-.2 1.1v.2c-.1.4-.1.8-.2 1.1 0 .3-.1.7-.1 1s-.1.5-.1.8c0 .2 0 .4-.1.5-.1.6-.1 1.1-.2 1.7 0 .1.1.2.1.2.1.2.2.5.4.7l.3.6.3.6c.2.4.4.8.6 1.1.2.4.5.8.7 1.3.2.4.5.9.7 1.3s.5.8.7 1.2c0 .1.1.2.1.2.2.3.4.7.6 1 .1.1.1.2.2.3s.2.3.2.4c-.1-1.1-.1-2.2-.1-3.2 0-3 .2-5.9.6-8.8.4-3.1 1.1-6.1 2-9 .3-1.1.7-2.2 1.1-3.3a62.8 62.8 0 0 1 32.8-35.8c.5-.2.9-.4 1.4-.6 1.4-.6 2.9-1.2 4.4-1.7.4-.2.9-.3 1.3-.5 2.2-.7 4.5-1.3 6.8-1.8.5-.1.9-.2 1.4-.3 1.6-.3 3.2-.5 4.9-.7 1.6-.2 3.2-.2 4.8-.3h2.5c4.3.1 8.5.6 12.5 1.5.7.2 1.4.3 2.1.5 1.5.4 3 .8 4.5 1.3 1.8.6 3.5 1.3 5.2 2.1.5.2.9.4 1.4.6 14.9 7.1 26.6 19.9 32.2 35.6.4 1.1.7 2.2 1.1 3.3.9 2.9 1.5 6 2 9 .4 2.9.6 5.8.6 8.8 0 1.1 0 2.2-.1 3.2.2-.4.5-.7.7-1.1s.5-.7.7-1.1.4-.7.7-1.1c.4-.7.8-1.5 1.2-2.3.2-.4.4-.8.6-1.1l.6-1.2.6-1.2c-.6.3-.7 0-.7-.3" class="st1"/><path d="M149.2 12v40.1c-.7-.7-1.4-1.4-2-2.1-19.4-19.4-45.2-30-72.6-30S21.4 30.6 2 50c-.7.7-1.4 1.4-2 2.1V12c0-1.2.2-2.4.5-3.6.1-.2.1-.4.2-.6.6-1.7 1.6-3.1 2.8-4.4C5.7 1.3 8.7 0 12 0h125.1c6.7 0 12.1 5.4 12.1 12" style="fill:#b2e0ee"/><path d="M66.5 142c-.3-.2-.6-.4-.8-.6l.1.1c.2.1.4.3.7.5M78.3 145.3c-.3.2-.6.5-.9.7.3-.2.6-.5.9-.7M81.1 143.2c-.2.1-.3.3-.5.4-.1.1-.3.2-.4.3.1-.1.3-.2.5-.3.1-.2.2-.3.4-.4M94.1 134.5c-.2.1-.3.2-.5.3-.1.1-.2.1-.3.2.3-.2.5-.4.8-.5M.1 10.5v.6-.5c0-.2 0-.3.1-.5-.1.2-.1.3-.1.4M0 11.7V100 11.5zm0 90.1v-.4zv.4zm.2 4c0-.3-.1-.7-.1-1 .1.4.1.7.1 1v.6q.15-.3 0-.6m.1 1.2c0-.2 0-.4-.1-.6.1.2.1.4.1.6 0 .3.1.7.1 1 0-.3 0-.7-.1-1m.7 4.9q0-.15 0 0 0-.15 0 0c0 .2 0 .3.1.5-.1-.2-.1-.4-.1-.5" class="st3"/><path d="M49.6 89.6" style="fill:none"/><path d="M149.2 52.1c-.7-.7-1.4-1.4-2-2.1l-1.4-1.4c-.3-.3-.7-.6-1-1-.2-.2-.5-.4-.7-.7-.3-.3-.6-.5-.8-.8-.5-.4-.9-.8-1.4-1.2-.3-.2-.5-.4-.8-.6s-.5-.4-.8-.6c-.5-.4-1-.8-1.5-1.3-.3-.2-.5-.4-.8-.6-.2-.2-.4-.3-.6-.5-1.2-.9-2.4-1.8-3.6-2.6-.2-.1-.4-.3-.6-.4l-1.8-1.2-.9-.6c-.2-.1-.5-.3-.7-.4s-.4-.3-.7-.4c-1.4-.9-2.8-1.7-4.2-2.5-.6-.3-1.1-.6-1.7-.9-.2-.1-.5-.3-.7-.4l-1.2-.6c-.5-.3-1.1-.5-1.6-.8-.2-.1-.4-.2-.7-.3-1-.5-2-1-3.1-1.4-.3-.1-.7-.3-1-.4-.4-.2-.8-.3-1.1-.5-.4-.2-.7-.3-1.1-.5s-.8-.3-1.2-.5c-.4-.1-.8-.3-1.1-.4-.5-.2-.9-.3-1.4-.5-.7-.3-1.4-.5-2.1-.7-.4-.1-.8-.3-1.2-.4-.6-.2-1.3-.4-2-.6-.1 0-.2-.1-.3-.1-.2-.1-.4-.1-.6-.2-.7-.2-1.3-.4-2-.5-.3-.1-.7-.2-1-.3-.2 0-.3-.1-.5-.1-.3-.1-.6-.2-.9-.2h-.1c-.3-.1-.6-.1-.9-.2-.2-.1-.4-.1-.7-.2s-.6-.1-1-.2c-.3-.1-.6-.1-1-.2-.6-.1-1.3-.3-1.9-.4-.3-.1-.6-.1-1-.2-.6-.1-1.3-.2-1.9-.3-.3 0-.6-.1-1-.1-.2 0-.4-.1-.6-.1s-.4-.1-.6-.1h-.2c-.5-.1-1.1-.1-1.6-.2h-.1c-.5-.1-1-.1-1.6-.2-.4 0-.8-.1-1.3-.1h-.6c-.3 0-.5 0-.8-.1-.3 0-.5 0-.8-.1h-.5c-.3 0-.6 0-.9-.1-.5 0-1 0-1.5-.1H67.4c-.5 0-.9.1-1.4.1h-.1c-.5 0-1 .1-1.6.1H64c-.2 0-.4 0-.6.1h-.1c-.5 0-.9.1-1.4.2h-.2c-.3 0-.6.1-.9.1s-.6.1-.9.1-.7.1-1 .1c-.4.1-.8.1-1.2.2h-.2c-.4.1-.8.1-1.2.2s-.7.1-1.1.2c-.5.1-.9.2-1.4.3-.3.1-.5.1-.8.2-.6.1-1.2.3-1.9.4-.3.1-.6.1-.9.2-.4.1-.9.2-1.3.3l-1.2.3c-.8.2-1.6.4-2.5.7-.4.1-.8.2-1.1.3-.4.1-.8.2-1.2.4-.4.1-.8.2-1.1.4-.4.1-.8.3-1.2.4s-.8.3-1.2.4-.7.3-1.1.4c-.1 0-.1 0-.2.1-.6.2-1.3.5-1.9.7l-1.5.6c-.4.2-.8.3-1.1.5-.4.2-.8.3-1.1.5-.4.2-.8.3-1.1.5-.4.2-.8.3-1.1.5-.4.2-.8.4-1.1.5-.8.4-1.6.8-2.5 1.2-.2.1-.5.2-.7.4l-.6.3c-.6.3-1.2.6-1.8 1-.7.4-1.5.8-2.2 1.3-.3.2-.6.3-.8.5-1 .6-2 1.3-3 1.9-.3.2-.6.4-.8.6-.3.2-.5.3-.8.5-.1.1-.2.1-.3.2-.2.1-.4.3-.6.4-.6.4-1.1.8-1.6 1.2-.3.2-.5.4-.8.6-.8.6-1.6 1.2-2.4 1.9-.3.2-.5.4-.8.6s-.5.4-.8.6-.5.4-.8.7c-.3.2-.5.4-.8.7-.5.4-1 .9-1.5 1.4-.3.2-.5.5-.8.7l-.7.7c-.2.2-.5.4-.7.6-.3.3-.6.5-.8.8.1.6-.2.9-.6 1.2-.7.7-1.4 1.4-2 2.1v7.8c.4-.5.9-1 1.3-1.5.2-.3.5-.5.7-.8.1-.2.3-.3.4-.5s.3-.3.5-.5l.6-.6c.3-.4.7-.7 1-1.1.5-.5.9-1 1.4-1.4.2-.2.4-.4.6-.5.2-.2.4-.4.7-.6l.7-.7c.4-.4.8-.7 1.2-1.1.3-.3.6-.6.9-.8l.1-.1c.3-.3.6-.6.9-.8.3-.3.6-.5.9-.8.4-.3.8-.7 1.2-1 .3-.2.6-.5.9-.7s.5-.4.8-.6c.5-.4 1-.7 1.5-1.1l.9-.6 3-2.1c.2-.2.5-.3.7-.5.2-.1.4-.3.6-.4.3-.2.5-.3.8-.5.7-.5 1.4-.9 2.2-1.3.2-.1.5-.3.7-.4.3-.2.6-.3.9-.5 2.1-1.2 4.2-2.3 6.4-3.4.3-.1.5-.3.8-.4h.1c.3-.1.6-.3.9-.4 1-.4 2-.9 3-1.3.3-.1.5-.2.8-.3s.6-.3 1-.4.6-.3 1-.4c.2-.1.4-.2.7-.2l.9-.3c.3-.1.6-.2.8-.3 1-.3 1.9-.7 2.9-1l.9-.3c.1 0 .2-.1.3-.1.4-.1.8-.2 1.1-.3l1.2-.3c.4-.1.7-.2 1.1-.3.2-.1.4-.1.6-.2.3-.1.6-.1.8-.2h.2c.3-.1.6-.1.9-.2.8-.2 1.7-.4 2.5-.6.3-.1.7-.1 1-.2s.7-.1 1-.2c.7-.1 1.4-.2 2.1-.4.3-.1.7-.1 1-.2s.7-.1 1-.1c.4-.1.7-.1 1.1-.1.5-.1.9-.1 1.4-.2.4 0 .9-.1 1.3-.1s.8-.1 1.2-.1c.3 0 .5 0 .8-.1.5 0 .9-.1 1.4-.1h.7c.5 0 .9 0 1.4-.1h6.9c.5 0 1 0 1.5.1.4 0 .9 0 1.3.1.4 0 .7 0 1.1.1h.1c.3 0 .6 0 .8.1.6 0 1.2.1 1.7.1.2 0 .5 0 .7.1.8.1 1.7.2 2.5.3.3 0 .5.1.8.1.2 0 .5.1.7.1s.5.1.7.1c.3 0 .6.1.9.1.4.1.7.1 1 .2.3 0 .6.1.9.2s.7.1 1 .2c.2 0 .5.1.7.1.4.1.7.2 1.1.2.4.1.7.2 1.1.2.4.1.7.2 1.1.3s.7.2 1.1.3.9.2 1.3.3h.2c.1 0 .2 0 .2.1.1 0 .2.1.3.1.4.1.7.2 1 .3l1.8.6c.4.1.8.2 1.1.4.1 0 .2.1.3.1.4.1.8.3 1.2.4.1 0 .2.1.3.1.4.1.8.3 1.2.4.6.2 1.1.4 1.7.6l3 1.2c2 .8 3.9 1.7 5.8 2.6.1 0 .2.1.2.1.4.2.7.4 1.1.6.1.1.2.1.3.2l1.2.6h.1c.5.3.9.5 1.4.8s1.1.6 1.6.9c.3.2.7.4 1 .6.1.1.2.1.3.2.3.2.6.4.9.5.1.1.3.2.4.3.4.2.8.5 1.1.7 1 .6 2 1.3 3 2 .2.2.5.3.7.5l.9.6c.3.2.6.5.9.7l2.7 2.1c.3.2.5.4.8.7l.1.1c.3.3.6.5.9.8.1.1.3.2.4.4 1.1.9 2.1 1.9 3.2 2.8l.8.8s.1 0 .1.1l.6.6.9.9 1.1 1.1.1.1c.3.4.7.7 1 1.1.2.2.3.4.5.5.2.3.5.5.7.8l.1.1c.3.3.6.7.9 1 .4.5.8 1 1.3 1.5z" class="st7"/><path d="M149.2 59.9V104c0 .3 0 .6-.1.9v1.6c0 .2 0 .4-.1.6-.1.6-.1 1.2-.2 1.9l-.3 1.8c0 .3-.1.6-.2 1v.1c-.1.6-.2 1.2-.3 1.9-.1.6-.2 1.2-.4 1.8-.8 3.9-2 7.7-3.4 11.3-.5 1.3-1 2.5-1.6 3.8-.1.2-.2.4-.3.7-2.9-34.7-32.1-62.1-67.6-62.1-35.6 0-64.8 27.3-67.7 62.1-.1-.2-.2-.5-.3-.7-.6-1.2-1.1-2.5-1.6-3.8-1.4-3.6-2.6-7.4-3.4-11.3-.2-.9-.4-1.8-.5-2.8 0-.2-.1-.3-.1-.5s-.1-.3-.1-.5v-.2c0-.2-.1-.5-.1-.7-.1-1-.3-2-.4-3 0-.3-.1-.7-.1-1 0-.2 0-.4-.1-.6v-.6c0-.3-.1-.7-.1-1s0-.7-.1-1V59.9C18 38.6 44.8 25.1 74.7 25.1s56.6 13.6 74.5 34.8" style="fill:#49b4d5"/><path d="M138.3 113.7c-.1-.3-.2-.5-.3-.8-.5-1.4-1.1-2.7-1.7-4.1-.1-.2-.2-.5-.3-.7-.8-1.6-1.6-3.2-2.5-4.7-.1-.2-.2-.4-.4-.6-.4-.6-.7-1.2-1.1-1.8-.1-.2-.3-.4-.4-.6-.3-.5-.6-.9-.9-1.4-.3-.4-.6-.8-.8-1.2-.1-.2-.3-.4-.5-.6-.9-1.3-1.9-2.5-2.9-3.7-.2-.2-.4-.4-.6-.7-1.7-2-3.5-3.8-5.4-5.6-.2-.2-.4-.4-.6-.5-.7-.6-1.3-1.2-2-1.8-.2-.2-.4-.4-.7-.6-.4-.4-.9-.7-1.3-1.1-.2-.2-.5-.4-.7-.5-.2-.2-.5-.4-.7-.5-.2-.2-.5-.3-.7-.5-.5-.4-1-.7-1.5-1.1-.7-.5-1.4-.9-2.1-1.3-.2-.2-.5-.3-.7-.5s-.5-.3-.8-.4l-1.5-.9c-.3-.1-.5-.3-.8-.4s-.5-.3-.8-.4c-.5-.2-.9-.5-1.4-.7-.3-.2-.7-.3-1-.5-.2-.1-.5-.2-.7-.3-.3-.1-.5-.2-.8-.4-.2-.1-.5-.2-.7-.3s-.5-.2-.7-.3c-.3-.1-.6-.2-.9-.4l-.9-.3c-.6-.2-1.2-.4-1.8-.7h-.1l-.9-.3c-.1 0-.1 0-.2-.1-.4-.1-.7-.2-1.1-.3s-.7-.2-1.1-.3-.8-.2-1.1-.3c-.4-.1-.9-.2-1.3-.3h-.1c-.2 0-.4-.1-.6-.1h-.4l-1.2-.3c-1.3-.3-2.7-.5-4-.7-.5-.1-1-.1-1.5-.2-1.7-.2-3.4-.4-5.2-.4h-6.7c-.3 0-.7 0-1 .1h-.4c-.3 0-.6 0-.9.1-.3 0-.7.1-1 .1h-.2c-.2 0-.5 0-.7.1-.2 0-.4 0-.6.1-.3 0-.6.1-.9.1-.5-.1-.7-.1-.9-.1-.3 0-.6.1-.8.1h-.1c-.5.1-.9.2-1.4.2-.4.1-.8.1-1.1.2-.2 0-.3.1-.5.1s-.4.1-.6.1c-.3.1-.5.1-.8.2-1.5.3-2.9.7-4.3 1.1-.2.1-.5.1-.7.2s-.4.1-.6.2c-.3.1-.6.2-1 .3-.2.1-.4.1-.6.2-.1 0-.2.1-.3.1s-.2.1-.3.1c-.2.1-.4.1-.6.2-.3.1-.6.2-.9.4-.2.1-.5.2-.7.3s-.5.2-.7.3c-.3.1-.5.2-.8.4-.3.1-.5.2-.8.4-.1 0-.1.1-.2.1-.5.2-.9.4-1.4.7s-1.1.5-1.6.8c-.3.1-.5.3-.8.4l-.6.3c-1.1.6-2.1 1.2-3.1 1.8-.2.1-.4.3-.7.4-.1.1-.2.1-.3.2-.2.1-.4.2-.6.4s-.5.3-.7.5-.5.3-.7.5-.5.3-.7.5c-.2.1-.4.3-.6.4-1 .7-2 1.5-3 2.3-.2.2-.4.3-.6.5-1 .8-1.9 1.6-2.8 2.5-.2.1-.3.3-.5.4l-.6.6-.6.6-.6.6c-.2.2-.4.5-.7.7-.4.4-.8.8-1.1 1.2-.4.4-.8.9-1.2 1.3s-.8.9-1.1 1.4c-.2.2-.4.5-.6.7l-.1.1c-.3.4-.7.9-1 1.3-.4.5-.7.9-1 1.4-.1.2-.3.4-.4.6-.2.3-.4.6-.6.8s-.3.5-.5.7c-.3.5-.7 1-1 1.5-.1.2-.3.5-.4.7s-.3.5-.4.7c-.9 1.6-1.8 3.2-2.6 4.8-.1.2-.2.5-.4.7-.1.2-.2.5-.3.7-.1.3-.3.6-.4.9s-.2.5-.3.8c-.2.5-.4 1.1-.6 1.6-.1.2-.1.3-.2.5-.2.4-.3.8-.5 1.3.7.2 1.3.4 2 .6.5.1.9.3 1.4.4.5.2 1 .3 1.5.5a62.8 62.8 0 0 1 32.8-35.8c.5-.2.9-.4 1.4-.6 1.4-.6 2.9-1.2 4.4-1.7.4-.2.9-.3 1.3-.5 2.2-.7 4.5-1.3 6.8-1.8.5-.1.9-.2 1.4-.3 1.6-.3 3.2-.5 4.9-.7 1.6-.2 3.2-.2 4.8-.3h2.5c4.3.1 8.5.6 12.5 1.5.7.2 1.4.3 2.1.5 1.5.4 3 .8 4.5 1.3 1.8.6 3.5 1.3 5.2 2.1.5.2.9.4 1.4.6 14.9 7.1 26.6 19.9 32.2 35.6.5-.2 1-.3 1.5-.5s.9-.3 1.4-.4c.7-.2 1.3-.4 2-.6-.4.3-.5 0-.6-.2M11.7 140c.1.1.2.3.2.4 0-.2-.1-.3-.2-.4" class="st7"/><path d="M136.7 128.4c-.4-3.1-1.1-6.1-2-9-.3-1.1-.7-2.2-1.1-3.3-5.6-15.7-17.3-28.5-32.2-35.6-.5-.2-.9-.4-1.4-.6-1.7-.8-3.4-1.5-5.2-2.1-1.5-.5-2.9-.9-4.5-1.3-.7-.2-1.4-.3-2.1-.5-4.1-.9-8.2-1.4-12.5-1.5h-2.5q-2.4 0-4.8.3c-1.6.2-3.3.4-4.9.7-.5.1-.9.2-1.4.3-2.3.5-4.6 1.1-6.8 1.8-.4.1-.9.3-1.3.5-1.5.5-3 1.1-4.4 1.7-.5.2-.9.4-1.4.6-15.2 7-27.1 20-32.8 35.8-.4 1.1-.7 2.2-1.1 3.3-.9 2.9-1.5 6-2 9-.4 2.9-.6 5.8-.6 8.8 0 1.1 0 2.2.1 3.2.1.2.3.5.4.7 1.7 2.6 3.6 5.1 5.6 7.4l3 3.3c.3.4.7.7 1 1 6.5 6.4 14.2 11.7 22.7 15.4.6.3 1.2.5 1.8.8.5.2.9.4 1.4.5.5.2.9.4 1.4.5 7.9 2.8 16.3 4.3 25.2 4.3 13.4 0 26-3.5 36.9-9.7.6-.3 1.1-.7 1.7-1 1.4-.9 2.8-1.7 4.1-2.7.5-.4 1.1-.8 1.6-1.1.5-.4 1-.8 1.6-1.2l1.5-1.2c.5-.4 1-.8 1.5-1.3.7-.6 1.3-1.2 2-1.8.3-.3.7-.6 1-.9 1.6-1.6 3.2-3.2 4.6-4.9 2-2.4 3.9-4.8 5.6-7.4 0-.1.1-.1.1-.2.1-.2.2-.3.3-.5.1-1.1.1-2.1.1-3.2.4-3.1.2-6.1-.2-8.9m-62.1 26.7" style="fill:#0095c0"/><path d="M147.5 115.6c-.1.2-.1.5-.2.7s-.1.5-.2.7c-.4 1.7-.9 3.4-1.4 5-.1.5-.3.9-.5 1.4-.1.4-.3.9-.5 1.3 0 .1 0 .1-.1.2-.1.4-.3.9-.5 1.3-.1.2-.2.5-.3.7-.5 1.3-1 2.5-1.6 3.8-.1.2-.2.5-.3.7l-.6 1.2-.6 1.2c-.2.4-.4.8-.6 1.1-.4.8-.8 1.5-1.2 2.3-.2.4-.4.7-.7 1.1-.2.4-.4.7-.7 1.1-.2.4-.5.7-.7 1.1-.1.2-.3.5-.5.7-1.7 2.6-3.6 5.1-5.6 7.4-2.4 2.7-4.9 5.3-7.6 7.6-.5.4-1 .9-1.5 1.3l-1.5 1.2c-.5.4-1 .8-1.6 1.2-.5.4-1.1.8-1.6 1.1-1.3.9-2.7 1.8-4.1 2.7-.6.3-1.1.7-1.7 1-10.9 6.2-23.5 9.7-36.9 9.7-8.8 0-17.3-1.5-25.2-4.3-.9-.3-1.9-.7-2.8-1.1-.6-.3-1.2-.5-1.8-.8-8.5-3.7-16.2-9-22.7-15.4-1.4-1.4-2.7-2.8-4-4.3-2-2.4-3.9-4.8-5.6-7.4-.2-.2-.3-.5-.5-.7-.1-.1-.2-.3-.2-.4-.1-.1-.1-.2-.2-.3-.2-.3-.4-.7-.6-1-.1-.1-.1-.2-.1-.2-.2-.4-.5-.8-.7-1.2s-.5-.9-.7-1.3-.5-.8-.7-1.3c-.2-.4-.4-.7-.6-1.1l-.3-.6-.3-.6c-.1-.2-.2-.5-.4-.7 0-.1-.1-.2-.1-.2-.1-.2-.2-.4-.3-.7-.6-1.2-1.1-2.5-1.6-3.8-.1-.2-.2-.5-.3-.7-.2-.4-.3-.8-.5-1.3 0-.1 0-.1-.1-.2-.2-.4-.3-.9-.5-1.3-.1-.4-.3-.9-.4-1.3 0-.1 0-.1-.1-.2-.6-2.1-1.2-4.2-1.7-6.4.9.2 1.8.4 2.6.7.4.1.9.2 1.3.4l.9.3c.1 0 .3.1.4.1.9.2 1.7.5 2.6.8 1.1.3 2.3.7 3.4 1.1.5.2 1 .3 1.5.5 1.1.4 2.2.7 3.3 1.1l7.2 2.7c1.5.6 2.9 1.2 4.3 1.8 2.8 1.2 5.5 2.4 8.2 3.8 1.3.7 2.7 1.3 4 2 2.6 1.3 5.1 2.7 7.6 4.2.3.2.6.4.9.5.9.5 1.8 1.1 2.7 1.6.3.2.7.4 1 .6s.7.4 1 .6c3 1.9 6 3.8 8.9 5.9 0 0 .1 0 .1.1.9.7 1.9 1.3 2.8 2 .7.5 1.4 1.1 2.1 1.6 1.6 1.2 3.2 2.5 4.7 3.8.4.3.8.7 1.2 1.1.9-.8 1.8-1.6 2.8-2.3 1.7-1.4 3.5-2.8 5.3-4.1.9-.7 1.8-1.4 2.8-2 1-.7 1.9-1.4 2.9-2 1.4-.9 2.8-1.9 4.2-2.8 1-.6 1.9-1.2 2.9-1.8.6-.4 1.2-.7 1.8-1.1s1.2-.7 1.9-1.1c.3-.2.6-.4.9-.5 2.5-1.4 5-2.8 7.6-4.2.5-.3 1-.5 1.5-.8.8-.4 1.7-.8 2.5-1.2 2.7-1.3 5.4-2.6 8.2-3.8 1.4-.6 2.9-1.2 4.3-1.8q3.6-1.5 7.2-2.7c1.1-.4 2.2-.8 3.3-1.1.5-.2 1-.3 1.5-.5 1.1-.4 2.3-.7 3.4-1.1.9-.3 1.7-.5 2.6-.8.1 0 .2-.1.4-.1 2.3-.7 4-1.1 5.6-1.5" class="st0"/><path d="M147.5 115.6c-.8 3.9-2 7.7-3.4 11.3-1.9.3-3.8.7-5.7 1.1-1.5.3-2.9.6-4.4 1-1.7.4-3.5.8-5.2 1.3-.1 0-.3.1-.4.1-1.8.5-3.5 1-5.2 1.5-1.6.5-3.1 1-4.7 1.5-2.3.8-4.7 1.6-7 2.5-1.4.5-2.8 1.1-4.1 1.6-2.5 1-4.9 2.1-7.4 3.2-.3.1-.6.3-.9.4-.6.3-1.3.6-1.9.9l-1.8.9c-1 .5-1.9 1-2.9 1.5-1.4.7-2.8 1.5-4.2 2.3-.6.3-1.2.6-1.7 1-1.1.6-2.3 1.3-3.4 2-.6.4-1.2.7-1.8 1.1-.5.2-.9.4-1.4.6l-2.7 1.2c-.4.2-.9.4-1.3.6s-.7.3-1 .5l-.4 1.6-.4-1.6c-.3-.1-.5-.3-.8-.4l-.2-.1c-1.3-.6-2.6-1.2-4-1.8-.2-.1-.3-.1-.5-.2-.3-.1-.7-.3-1-.4-.4-.3-.8-.5-1.3-.8-.1-.1-.3-.2-.4-.2-.4-.2-.7-.4-1.1-.6-.4-.3-.8-.5-1.3-.7-.4-.2-.7-.4-1-.6q-3.9-2.25-7.8-4.2c-.3-.2-.7-.3-1-.5-1.2-.6-2.5-1.2-3.7-1.8-.3-.1-.6-.3-.9-.4-2.4-1.1-4.9-2.2-7.4-3.2-1.4-.6-2.8-1.1-4.1-1.6-2.3-.9-4.6-1.7-7-2.5-1.6-.5-3.1-1-4.7-1.5-1.7-.5-3.5-1-5.2-1.5-.1 0-.3-.1-.4-.1-1.7-.5-3.5-.9-5.2-1.3-1.5-.3-2.9-.7-4.4-1-1.9-.4-3.8-.7-5.7-1.1-1.4-3.6-2.6-7.4-3.4-11.3 1.8.4 3.5.9 5.3 1.4l6 1.8c1.6.5 3.2 1.1 4.8 1.6l7.2 2.7c1.5.6 2.9 1.2 4.3 1.8 2.8 1.2 5.5 2.4 8.2 3.8 1.3.7 2.7 1.3 4 2 2.6 1.3 5.1 2.7 7.6 4.2.3.2.6.4.9.5.9.5 1.8 1.1 2.7 1.6.3.2.7.4 1 .6s.7.4 1 .6c3 1.9 6 3.8 8.9 5.9 0 0 .1 0 .1.1.9.7 1.9 1.3 2.8 2 .7.5 1.4 1.1 2.1 1.6 1.6 1.2 3.2 2.5 4.7 3.8.4.3.8.7 1.2 1.1.9-.8 1.8-1.6 2.8-2.3 1.7-1.4 3.5-2.8 5.3-4.1.9-.7 1.8-1.4 2.8-2 1-.7 1.9-1.4 2.9-2 1.4-.9 2.8-1.9 4.2-2.8 1-.6 1.9-1.2 2.9-1.8.6-.4 1.2-.7 1.8-1.1s1.2-.7 1.9-1.1c.3-.2.6-.4.9-.5 2.5-1.4 5-2.8 7.6-4.2.5-.3 1-.5 1.5-.8.8-.4 1.7-.8 2.5-1.2 2.7-1.3 5.4-2.6 8.2-3.8 1.4-.6 2.9-1.2 4.3-1.8q3.6-1.5 7.2-2.7c1.6-.6 3.2-1.1 4.8-1.6 2-.6 4-1.3 6-1.8 1.9-.9 3.7-1.4 5.4-1.8" class="st7"/><path d="M74.6 155.1c-.3-.1-.7-.2-1-.4-.1 0-.2-.1-.2-.1l-3.6-1.2c-1.3-.4-2.5-.8-3.8-1.1-.1 0-.2 0-.3-.1-1.1-.3-2.1-.6-3.2-.8-1.3-.3-2.5-.6-3.8-.9-1.5-.3-3-.6-4.4-.9l-3.9-.6c-1.8-.3-3.6-.5-5.4-.7-1.5-.2-3-.3-4.6-.4-1.1-.1-2.2-.1-3.3-.2-1.5-.1-2.9-.1-4.4-.1h-2.6c-1.9 0-3.7.1-5.6.2H24c-2 .1-4 .3-6 .5-2-2.4-3.9-4.8-5.6-7.4.7 0 1.4-.1 2.2-.1h5.5c1.8 0 3.6.1 5.4.2 1.1.1 2.2.1 3.3.2 1.6.1 3.3.3 4.9.5 1.7.2 3.3.4 4.9.7 1.5.2 2.9.5 4.3.8 2.4.5 4.8 1 7.1 1.6 1.1.3 2.1.5 3.2.8.2 0 .3.1.5.1.8.2 1.6.5 2.4.7.5.2 1.1.3 1.6.5 1.6.5 3.2 1 4.8 1.6.8.3 1.7.6 2.5.9.3.1.6.2 1 .4.6.2 1.1.4 1.7.7.3.1.7.3 1 .4.2.1.3.1.5.2 1.3.6 2.7 1.2 4 1.8l.2.1c.3.1.5.3.8.4zM136.8 141.1c-1.7 2.6-3.6 5.1-5.6 7.4-2-.2-4-.4-6-.5h-.5c-1.9-.1-3.7-.2-5.6-.2h-2.6c-1.5 0-2.9.1-4.4.1-1.1 0-2.2.1-3.3.2-1.5.1-3 .2-4.6.4-1.8.2-3.6.4-5.4.7l-3.9.6c-1.5.3-3 .5-4.4.9-1.3.3-2.5.6-3.8.9-1.1.3-2.1.5-3.2.8-.1 0-.2 0-.3.1-1.3.4-2.5.7-3.8 1.1l-3.6 1.2c-.1 0-.2.1-.2.1-.3.1-.7.2-1 .4l.4-1.6c.3-.2.7-.3 1-.5.4-.2.9-.4 1.3-.6l2.7-1.2c.5-.2.9-.4 1.4-.6.6-.2 1.2-.5 1.8-.7.3-.1.6-.3 1-.4.8-.3 1.6-.6 2.5-.9 1.6-.6 3.2-1.1 4.8-1.6.5-.2 1.1-.3 1.6-.5.8-.2 1.6-.5 2.4-.7.2-.1.3-.1.5-.1 1.1-.3 2.1-.6 3.2-.8 2.4-.6 4.7-1.1 7.1-1.6 1.4-.3 2.9-.5 4.3-.8 1.6-.3 3.3-.5 4.9-.7s3.3-.4 4.9-.5c1.1-.1 2.2-.2 3.3-.2 1.8-.1 3.6-.2 5.4-.2h5.5c.7-.1 1.4-.1 2.2 0" class="st7"/><path d="M60.2 93.6c-.5 0-.9-.1-1.4-.3-3.2-2.1-3.8-4.1-4.1-10l-.5-5.5-.5-5.3-3.3-34.8-.6 36.3-.1 5.6-.1 8.7v1.4l-.1 8.1v2.8l-.2 15.8V131c.6.3 1.1.6 1.7 1 1.2.7 2.4 1.4 3.7 2.2.1 0 .1.1.2.1V131c.4-4.1 1.9-5.4 3.8-5.7.5-.1 1-.2 1.5-.2q.9 0 1.8.3v-32c-.8.1-1.3.2-1.8.2M75 106.2v-3l-.7-17.9V82l-.3-6.6c-.1-.2-.2-.3-.2-.5-.1-.2-.1-.3-.2-.5s-.2-.5-.3-.7c0-.1-.1-.3-.1-.4-.1-.2-.1-.3-.1-.5 0-.1-.1-.2-.1-.4 0-.1-.1-.3-.1-.4-.1-.3-.1-.7-.2-1l-.3-1.8c-.1-.4-.1-.8-.2-1.2 0-.2 0-.4-.1-.6 0-.4-.1-.8-.1-1.2v-.7c0-.2 0-.4-.1-.5v-.3c0-.4-.1-.7-.1-1v-1.2l-1-7.9-.2-2-1.5-12-.4-3-1.2-9.5-.5-2.7-.6-5.1-.5-4.1L64.7 7l-.3-2.5h-.5v-.3.3h-.3V140c.7.5 1.3.9 2 1.4.3.2.6.4.8.6.3.2.6.4.8.6s.5.3.7.5.5.3.7.5c.2.1.4.3.5.4.2.1.4.3.6.4.3.3.7.5 1 .8.9.7 1.8 1.4 2.6 2.1v-30.8c0-2.1.7-4 1.8-5.6zm13.2-70.9c0-.6 0-1.2-.1-1.9 0-.9-.1-1.7-.1-2.6s-.1-1.8-.1-2.7c0-.7-.1-1.4-.1-2.1v-.9c-.1-1.4-.1-2.9-.2-4.3 0-1-.1-2.1-.1-3.2 0-.9-.1-1.8-.1-2.7 0-.8-.1-1.6-.1-2.4 0-1-.1-2-.2-3 0-.8-.1-1.6-.1-2.4 0-.9-.1-1.7-.1-2.6H75L73.6 20l-.5 5.2-.3 3-.3 3.2c-.5 3-1.2 5.2-2 6.8l1.9 15.3c2.1 1.4 2.6 4.4 2.8 7.6l.4 8.2.2 3.6.1 1.6.2 4.2.3 6.3v.3l.7 18.2.2 5.4.2 5.5V146c.1-.1.3-.2.4-.3l.1-.1.1-.1.1-.1.1-.1c.2-.2.4-.3.6-.5.3-.3.7-.5 1-.8 0 0 .1 0 .1-.1.1-.1.2-.2.3-.2.1-.1.3-.2.4-.3.2-.1.3-.3.5-.4s.3-.3.5-.4c.6-.4 1.2-.9 1.8-1.3l.1-.1.1-.1c.1-.1.2-.1.3-.2s.2-.1.3-.2c.5-.3.9-.7 1.4-1 .2-.1.3-.2.5-.4.1-.1.2-.1.3-.2.6-.4 1.3-.9 1.9-1.3V40.2c-.1-1.6-.1-3.3-.2-4.9m11.8-9.2-.4 2.3-.8 4.5-1.1 6.2L93.4 63v.1c0 .1 0 .3-.1.6v.2c-.1.4-.1.9-.2 1.4v.2c-.1.6-.2 1.2-.3 1.9-.1.3-.1.6-.2.9-.2 1.1-.4 2.2-.6 3.2 0 .2-.1.4-.1.6-.2 1-.7 2.3-1.4 3.6v34.6c1.4 1.6 2.2 3.8 2.2 6.1v19c.2-.2.5-.3.7-.5.2-.1.3-.2.5-.3.1-.1.2-.1.3-.2.5-.3 1-.6 1.4-.9l.6-.3.6-.3c.2-.1.4-.2.6-.4.2-.1.5-.3.7-.4.1-.1.3-.2.4-.2.1-.1.2-.1.3-.2.5-.3 1-.5 1.4-.8v-105c-.1 0-.1.1-.2.2" class="st3"/><path d="M88.3 40.2v97.9c-.7.4-1.3.9-1.9 1.3-.1.1-.2.1-.3.2-.2.1-.3.2-.5.4-.4.3-.9.6-1.4 1-.1.1-.2.1-.3.2s-.2.1-.3.2l-.1.1-.1.1c-.6.5-1.3.9-1.8 1.3-.2.1-.3.3-.5.4s-.3.3-.5.4c-.2.2-.5.4-.7.6 0 0-.1 0-.1.1-.3.3-.7.5-1 .8-.5.4-.9.7-1.4 1.1v-31.7l-.2-5.5-.2-5.4-.7-18.2v-.3l-.3-6.6-.2-5.8-.5-11.8c-.3-3.2-.7-6.2-2.8-7.6l-1.9-15.3c.8-1.6 1.5-3.8 2-6.8l.3-3.2L75 4.5h11.9c0 .9.1 1.7.1 2.6 0 .8.1 1.6.1 2.4.1 1 .1 2 .2 3 0 .8.1 1.6.1 2.4 0 .9.1 1.8.1 2.7 0 1.1.1 2.1.1 3.2.1 1.4.1 2.9.2 4.3 0 1 .1 2 .1 3 0 .9.1 1.8.1 2.7 0 .8.1 1.7.1 2.6 0 .6 0 1.2.1 1.9.1 1.6.1 3.3.1 4.9" class="st7"/><path d="M74.9 104.6c-.1.1-.2.2-.3.2-.1.1-.2.1-.2.2l-.2.2c-.3.2-.5.4-.8.6-2.9 2.6-4.7 6.4-4.7 10.6v27.2c-.2-.2-.5-.3-.7-.5s-.5-.3-.7-.5c-.5-.4-1.1-.8-1.7-1.2-.7-.5-1.3-.9-2-1.4V4.5h.3v1.9c0 .4 0 .8.1 1.2v.8c.1 1.5.1 3 .2 4.7 0 .6.1 1.3.1 2v2.3c0 .8.1 1.6.1 2.4 0 .5.1 1.1.1 1.6V23c.1 1.7.2 3.4.3 5.2 0 .5.1 1 .1 1.5.2 4.2.4 8.6.7 12.8.2 3.5.4 6.9.6 10.1.6 9.5 1.1 17.1 1.5 19.5 0 .2.1.4.1.5.9 4.7 2.9 8.8 6.1 11.3v1.4l.7 17.9v.7z" class="st7"/><path d="M74.1 83.9c-3.2-2.5-5.2-6.6-6.1-11.3 0-.2-.1-.4-.1-.5-.4-2.4-1-10-1.5-19.5-.2-3.2-.4-6.6-.6-10.1-.2-4.2-.5-8.6-.7-12.8 0-.5-.1-1-.1-1.5-.1-1.7-.2-3.5-.3-5.2v-1.6c0-.5-.1-1.1-.1-1.6 0-.8-.1-1.6-.1-2.4v-2.3c0-.7-.1-1.3-.1-2-.1-1.7-.2-3.3-.2-4.7v-.7999999999999999c0-.4 0-.8-.1-1.2V4.5h.5l.1 2.5 1.1 9.2 1.5 12 1.2 9.5.4 3 1.5 12 .2 2 1 7.9s.4 5.5 1.1 9.5c.2 1 .6 2.2 1.1 3.3L74 82v1.6zM100 26.1c-.2 1.6-.8 9.9-1.4 19v1c0 .5-.1 1-.1 1.5-.8 10.8-1.7 22-1.9 24.5-.4 3.8-2.6 8.6-6.1 11.5v-7.9c.7-1.3 1.2-2.6 1.4-3.6.8-3.5 1.5-9 1.5-9l4.3-23.9 1.1-6.2z" class="st10"/><path d="M100.1 25.9V131c-.5.3-1 .5-1.4.8-.1.1-.2.1-.3.2s-.3.2-.4.2c-.2.1-.5.3-.7.4v-18.7c0-.1 0-.2-.1-.3-.1-.3-.1-.6-.2-1 0-.2-.1-.3-.1-.5v-.1c0-.1-.1-.2-.1-.3s0-.1-.1-.2c0-.1-.1-.3-.2-.4-.1-.2-.1-.3-.2-.5s-.1-.3-.2-.5c-.2-.4-.4-.7-.6-1-.1-.1-.1-.2-.2-.3l-.1-.1c-.1-.1-.1-.2-.2-.3s-.2-.2-.2-.3c-.1-.1-.1-.2-.2-.3-.3-.4-.6-.8-.9-1.1l-.3-.3-.6-.6-.3-.3c-.5-.4-.9-.7-1.4-1.1-.1-.1-.3-.2-.4-.2V83.6c3.5-3 5.8-7.7 6.1-11.5.3-2.4 1.2-13.7 1.9-24.5 0-.5.1-1 .1-1.5v-1c.6-9.2 1.2-17.5 1.4-19-.1-.1-.1-.2-.1-.2" class="st7"/><path d="M75.2 110.8c-1.1 1.6-1.8 3.5-1.8 5.6v30.8c-.9-.7-1.7-1.4-2.6-2.1-.3-.3-.7-.5-1-.8-.2-.1-.4-.3-.6-.4s-.4-.3-.5-.4v-27.2c0-4.2 1.8-8 4.7-10.6.2-.2.5-.4.8-.6l.2-.2.2-.2c.1-.1.2-.1.3-.2v1.6zM97.3 116.4v16.1c-.2.1-.4.2-.6.4l-.6.3-.6.3-3 1.8v-19c0-2.3-.8-4.4-2.2-6.1V104c.1.1.3.2.4.2.5.3 1 .7 1.4 1.1l.3.3.6.6.3.3c.3.4.6.7.9 1.1.1.1.1.2.2.3s.2.2.2.3c.1.1.1.2.2.3l.1.1c.1.1.1.2.2.3.2.3.4.7.6 1 .1.2.2.3.2.5.1.2.1.3.2.5.1.1.1.3.2.4 0 .1 0 .1.1.2 0 .1.1.2.1.3v.1c0 .2.1.3.1.5.1.3.2.6.2 1 0 .1 0 .2.1.3v2c.4.3.4.5.4.7M61.6 93.4v10.2l-.2.2q-.9.6-1.8.9c-.1 0-.2.1-.2.1-.2.1-.3.1-.5.1h-.2c-.1 0-.3.1-.4.1-.3.1-.6.1-.9.1H56c-4.6-.1-6.3-5.7-6.4-14.2v-2.8l.8-50.5 4.3 45.6c.3 5.9.9 7.9 4.1 10 .5.2 1 .3 1.4.3.5.1 1 0 1.4-.1M61.6 116.1v9.3c-.6-.2-1.1-.3-1.8-.3-.5 0-1 .1-1.5.2-1.9.2-3.4 1.6-3.8 5.7v3.3c-.1 0-.1-.1-.2-.1-1.3-.8-2.5-1.5-3.7-2.2-.6-.3-1.1-.7-1.7-1v-9.8c1-5 2.9-7.9 6-8.1H57c.1 0 .2 0 .3.1.1 0 .2.1.3.1.4.1.8.3 1.1.5.1 0 .2.1.3.1h.1c.1.1.2.1.3.2 0 0 .1 0 .1.1l.1.1c.2.1.3.3.5.4l.1.1c.1.1.3.2.4.4l.2.2c.5.3.7.5.8.7" class="st10"/><path d="M61.6 103.6v12.5l-.6-.6-.2-.2-.4-.4-.1-.1c-.2-.1-.3-.3-.5-.4l-.1-.1s-.1 0-.1-.1c-.1-.1-.2-.1-.3-.2h-.1c-.1-.1-.2-.1-.3-.1-.4-.2-.7-.4-1.1-.5-.1 0-.2-.1-.3-.1s-.2-.1-.3-.1h-2.1c-3.1.2-4.9 3.1-6 8.1v-4.8l.2-15.8v-2.8l.1-8.1v1.4c.1 8.5 1.8 14 6.4 14.2h1.4c.3 0 .6-.1.9-.1.1 0 .3 0 .4-.1h.2c.2 0 .4-.1.5-.1s.2 0 .2-.1q1.05-.3 1.8-.9c.3-.4.3-.4.4-.5" class="st7"/><path d="M148.7 8.5c-.1-.3-.2-.6-.3-.8 0-.1-.1-.3-.2-.4s-.1-.3-.2-.4-.1-.2-.2-.4c0-.1-.1-.2-.2-.3 0-.1-.1-.2-.1-.3-.1-.2-.3-.5-.4-.7-.1-.1-.2-.3-.3-.4s-.2-.3-.3-.4c-.2-.2-.3-.4-.5-.6l-.3-.3-.4-.4-.4-.4c-.1-.1-.3-.2-.5-.4-.1-.1-.3-.2-.4-.3-.1 0-.1-.1-.2-.1-.1-.1-.3-.2-.4-.2-.1-.1-.3-.2-.4-.2s-.2-.1-.3-.1c-.1-.1-.3-.1-.4-.2-.2-.1-.4-.2-.5-.2s-.2-.1-.3-.1c-.2-.1-.4-.1-.6-.2q-1.8-.6-3.9-.6H10.3c-.2 0-.3 0-.5.1h-.1c-.1 0-.3.1-.4.1 0 0-.1 0-.3.1h-.1c-.2 0-.3.1-.5.1-.1 0-.1 0-.2.1 0 0-.1.1-.2.1s-.3.1-.4.1c0 0-.1 0-.1.1-.1 0-.2.1-.3.1s-.1.1-.2.1-.2.1-.3.1c0 0-.1 0-.1.1-.1 0-.1.1-.2.1s-.1.1-.2.1c-.1.1-.3.2-.4.3-.2 0-.3.1-.4.2l-.1.1c-.1.1-.2.1-.3.2 0 0-.1 0-.1.1-.1 0-.1.1-.2.1-.1.1-.2.1-.3.2l-.1.1-.3.3-.1.1-.3.3c-.1 0-.1.1-.2.1l-.3.3c-.1.1-.1.2-.2.3 0 0 0 .1-.1.1-.1.1-.2.3-.3.4 0 .1-.1.1-.1.2l-.2.2c-.1.1-.2.2-.2.4l-.1.1c0 .1-.1.1-.1.2l-.1.1c-.2.3-.4.6-.5.9-.1.1-.1.3-.2.4-.1.2-.1.3-.2.5 0 .1-.1.2-.1.3s-.1.2-.1.2c0 .1-.1.2-.1.3v.1c0 .1-.1.3-.1.4s-.1.3-.1.4v.4c0 .1 0 .2-.1.3 0 .2 0 .3-.1.5v93.1c0 .7.1 1.4.1 2.1 0 .4.1.8.1 1.2.1 1.3.3 2.7.5 4 0 .2.1.5.1.7v.2c.1.6.2 1.2.3 1.9.1.3.1.6.2.9s.1.6.2.9c.9.2 1.8.4 2.6.7.4.1.9.2 1.3.4l.9.3c.1 0 .3.1.4.1.4.1.9.2 1.3.4.4.1.9.3 1.3.4l.9.3c.3.1.7.2 1 .3.5.2 1 .3 1.5.5s1 .3 1.5.5c1.1.4 2.2.7 3.3 1.1l7.2 2.7c1.5.6 2.9 1.2 4.3 1.8 2.8 1.2 5.5 2.4 8.2 3.8 1.3.7 2.7 1.3 4 2 2.6 1.3 5.1 2.7 7.6 4.2.3.2.6.4.9.5.9.5 1.8 1.1 2.7 1.6.3.2.7.4 1 .6s.7.4 1 .6c3 1.9 6 3.8 8.9 5.9 0 0 .1 0 .1.1.9.7 1.9 1.3 2.8 2 .7.5 1.4 1.1 2.1 1.6 1.6 1.2 3.2 2.5 4.7 3.8.4.3.8.7 1.2 1.1.9-.8 1.8-1.6 2.8-2.3 1.7-1.4 3.5-2.8 5.3-4.1.9-.7 1.8-1.4 2.8-2 1-.7 1.9-1.4 2.9-2 1.4-.9 2.8-1.9 4.2-2.8 1-.6 1.9-1.2 2.9-1.8.6-.4 1.2-.7 1.8-1.1s1.2-.7 1.9-1.1c.3-.2.6-.4.9-.5 2.5-1.4 5-2.8 7.6-4.2.5-.3 1-.5 1.5-.8.8-.4 1.7-.8 2.5-1.2 2.7-1.3 5.4-2.6 8.2-3.8 1.4-.6 2.9-1.2 4.3-1.8q3.6-1.5 7.2-2.7c.6-.2 1.1-.4 1.7-.6s1.1-.4 1.7-.6c.5-.2 1-.3 1.5-.5.6-.2 1.1-.4 1.7-.5.6-.2 1.1-.4 1.7-.5.4-.1.7-.2 1.1-.3.5-.1 1-.3 1.5-.4.1 0 .2-.1.4-.1 1.6-.5 3.3-.9 4.9-1.3.1-.3.1-.6.2-.9 0-.2.1-.4.1-.6s.1-.4.1-.6c.1-.4.2-.8.2-1.3 0-.1 0-.2.1-.4v-.2c.1-.3.1-.6.2-1 0-.3.1-.6.1-.9 0-.2 0-.4.1-.5 0-.2.1-.4.1-.7 0-.4.1-.8.1-1.2V12c.6-1.2.4-2.4.1-3.5M61.6 125.4c-.6-.2-1.1-.3-1.8-.3-.5 0-1 .1-1.5.2-1.9.2-3.4 1.6-3.8 5.7v3.3c-.1 0-.1-.1-.2-.1-1.3-.8-2.5-1.5-3.7-2.2-.6-.3-1.1-.7-1.7-1v-14.6l.2-15.8v-2.8l.1-8.1v-1.4l.1-8.7.1-5.6.5-36.1 3.3 34.8.5 5.3.5 5.5c.3 5.9.9 7.9 4.1 10 .5.2 1 .3 1.4.3.5 0 1-.1 1.4-.3v31.9zm.7-33.8c0 .2-.2.4-.5.4h-.2c-.2 0-.3 0-.5.1-.3.1-.6.2-1 .2-.3 0-.5 0-.8-.1-2.5-1.7-3-3.2-3.4-8.8v-.1l-.6-5.8-.3-5.3-3.2-34.5c-.1-.7-.7-1.2-1.4-1.2h-.1c-.7 0-1.3.6-1.3 1.4l-.6 36.7-.1 5.7-.1 8.2v1.3l-.5 31.5v9c-1.5-.8-3.1-1.7-4.6-2.5-1.3-.7-2.6-1.3-4.1-2-2.8-1.4-5.6-2.6-8.3-3.8-1.4-.6-2.9-1.2-4.4-1.8-2.4-1-4.9-1.9-7.2-2.7 0 0-.1 0-.1-.1-1.1-.4-2.3-.8-3.4-1.2-.5-.2-1-.3-1.5-.5s-.9-.3-1.4-.4c-.7-.2-1.3-.4-2-.6-.9-.3-1.8-.5-2.7-.8-.7-.2-1.4-.4-2.2-.6-.1-.6-.2-1.3-.3-1.9v-.2c0-.2-.1-.4-.1-.6-.2-1.2-.3-2.5-.5-3.7 0-.4-.1-.7-.1-1.1 0-.6-.1-1.2-.1-1.9V12c0-4.2 3.4-7.6 7.6-7.6h50.2v87.2zM73.6 4.5 72.2 20l-.5 5.2-.3 3-.3 3q-.45 2.25-.9 3.9c-.1.4-.7.3-.8-.1l-.8-6.8-.3-2.9-.6-5.1-1.9-15.7zm-.2 111.9v30.8c-.9-.7-1.7-1.4-2.6-2.1-.3-.3-.7-.5-1-.8-.2-.1-.4-.3-.6-.4s-.4-.3-.5-.4c-.2-.2-.5-.3-.7-.5s-.5-.3-.7-.5c-.3-.2-.6-.4-.8-.6-.3-.2-.6-.4-.8-.6-.7-.5-1.3-.9-2-1.4V4.5h.3v-.3.3h.5l.2 2.5 1.1 9.2.5 4.1.6 5.1.3 2.8 1.2 9.5.4 3 1.5 12 .2 2 1 7.9v1.2c0 .3.1.6.1 1v.3c0 .2 0 .4.1.5v.7c0 .4.1.8.1 1.2 0 .2 0 .4.1.6.1.4.1.8.2 1.2l.3 1.8c.1.3.1.7.2 1 0 .1.1.3.1.4s.1.2.1.4.1.3.1.5c0 .1.1.2.1.4.1.2.2.5.3.7s.1.3.2.5.1.3.2.5L74 82v3.3l.7 17.9v3l.2 4.6c-.9 1.6-1.5 3.5-1.5 5.6m14.9 21.7c-.7.4-1.3.9-1.9 1.3-.1.1-.2.1-.3.2-.2.1-.3.2-.5.4-.4.3-.9.6-1.4 1-.1.1-.2.1-.3.2s-.2.1-.3.2l-.1.1-.1.1c-.6.5-1.3.9-1.8 1.3-.2.1-.3.3-.5.4s-.3.3-.5.4c-.1.1-.3.2-.4.3s-.2.2-.3.2c0 0-.1 0-.1.1-.3.3-.7.5-1 .8-.2.2-.4.3-.6.5l-.1.1-.1.1-.1.1-.1.1c-.1.1-.3.2-.4.3v-31.7l-.2-5.5-.2-5.4-.7-18.2v-.3l-.3-6.6-.2-4.2-.1-1.6-.2-3.6-.4-8.2c-.3-3.2-.7-6.2-2.8-7.6l-1.9-15.3c.8-1.6 1.5-3.8 2-6.8l.3-3.2.3-3 .5-5.2L75 4.5h11.9c0 .9.1 1.7.1 2.6 0 .8.1 1.6.1 2.4.1 1 .1 2 .2 3 0 .8.1 1.6.1 2.4 0 .9.1 1.8.1 2.7 0 1.1.1 2.1.1 3.2.1 1.4.1 2.9.2 4.3v.9c0 .7.1 1.4.1 2.1 0 .9.1 1.8.1 2.7 0 .8.1 1.7.1 2.6 0 .6 0 1.2.1 1.9 0 1.7.1 3.3.1 5zm11.8-7.1c-.5.3-1 .5-1.4.8-.1.1-.2.1-.3.2s-.3.2-.4.2c-.2.1-.5.3-.7.4s-.4.2-.6.4l-.6.3-.6.3c-.5.3-1 .6-1.4.9-.1.1-.2.1-.3.2-.2.1-.3.2-.5.3-.2.2-.5.3-.7.5v-19c0-2.3-.8-4.4-2.2-6.1V75.7c.7-1.3 1.2-2.6 1.4-3.6 0-.2.1-.4.1-.6.2-1 .4-2.1.6-3.2.1-.3.1-.6.2-.9.1-.7.2-1.3.3-1.9v-.2c.1-.6.2-1 .2-1.4v-.2c0-.3.1-.5.1-.6V63l4.3-23.9 1.1-6.2.8-4.5.4-2.2V26v105zm44.6-31.2v2.8c0 .4 0 .8-.1 1.2 0 .6-.1 1.1-.1 1.8 0 .3 0 .6-.1 1-.1 1.1-.3 2.3-.4 3.5v.1c0 .3-.1.5-.1.8v.1c-.1.6-.2 1.3-.3 1.9l-2.1.6h-.1c-.9.2-1.7.5-2.6.8-.7.2-1.3.4-2 .6-.5.1-.9.3-1.4.4-.5.2-1 .3-1.5.5-1.2.4-2.3.8-3.4 1.2-2.5.9-4.9 1.8-7.4 2.8 0 0-.1 0-.1.1-1.5.6-2.9 1.2-4.3 1.8-2.8 1.2-5.6 2.5-8.3 3.8-.8.4-1.7.8-2.5 1.3-.5.3-1 .5-1.5.8-1.6.8-3.1 1.6-4.6 2.5V25.9c0-.8-.6-1.4-1.4-1.4-.4 0-1.2.1-1.4 1.4l-.7 2.1v.1L92 62.8v.1c0 .1-.7 4.9-1.4 8.3 0 .2-.1.4-.1.6-.1.4-.8.4-.8-.1V40.2l-.3-12c0-.6 0-1.3-.1-1.9-.1-1.8-.1-3.5-.2-5.3-.2-5.5-.5-11-.8-16.5h48.9c4.2 0 7.6 3.4 7.6 7.6v87.7z" class="st0"/></svg>