<svg id="visual" viewBox="0 0 900 600" width="900" height="600" xmlns="http://www.w3.org/2000/svg" xmlns:xlink="http://www.w3.org/1999/xlink" version="1.1"><g stroke-width="1" stroke-linejoin="bevel"><path d="M424 282L487 319L424 225Z" fill="#dbca93" stroke="#dbca93"></path><path d="M487 319L490 171L424 225Z" fill="#eae1b3" stroke="#eae1b3"></path><path d="M487 319L578 200L490 171Z" fill="#d7c48b" stroke="#d7c48b"></path><path d="M487 319L620 276L578 200Z" fill="#fbf7d5" stroke="#fbf7d5"></path><path d="M424 282L474 395L487 319Z" fill="#eae1b3" stroke="#eae1b3"></path><path d="M487 319L605 410L620 276Z" fill="#e2d5a3" stroke="#e2d5a3"></path><path d="M567 88L463 106L490 171Z" fill="#eee6bc" stroke="#eee6bc"></path><path d="M490 171L463 106L424 225Z" fill="#dfcf9b" stroke="#dfcf9b"></path><path d="M463 106L334 184L424 225Z" fill="#eae1b3" stroke="#eae1b3"></path><path d="M424 225L302 284L424 282Z" fill="#f7f1cd" stroke="#f7f1cd"></path><path d="M424 282L362 436L474 395Z" fill="#eae1b3" stroke="#eae1b3"></path><path d="M334 184L302 284L424 225Z" fill="#e2d5a3" stroke="#e2d5a3"></path><path d="M670 82L567 88L578 200Z" fill="#dfcf9b" stroke="#dfcf9b"></path><path d="M578 200L567 88L490 171Z" fill="#fbf7d5" stroke="#fbf7d5"></path><path d="M512 0L436 63L463 106Z" fill="#f2ecc4" stroke="#f2ecc4"></path><path d="M463 106L436 63L334 184Z" fill="#dbca93" stroke="#dbca93"></path><path d="M474 395L605 410L487 319Z" fill="#f2ecc4" stroke="#f2ecc4"></path><path d="M290 390L362 436L424 282Z" fill="#eee6bc" stroke="#eee6bc"></path><path d="M474 395L569 514L605 410Z" fill="#d4be83" stroke="#d4be83"></path><path d="M605 410L688 332L620 276Z" fill="#f2ecc4" stroke="#f2ecc4"></path><path d="M735 182L670 82L578 200Z" fill="#f2ecc4" stroke="#f2ecc4"></path><path d="M362 436L464 477L474 395Z" fill="#d4be83" stroke="#d4be83"></path><path d="M302 284L290 390L424 282Z" fill="#f7f1cd" stroke="#f7f1cd"></path><path d="M436 63L293 91L334 184Z" fill="#fbf7d5" stroke="#fbf7d5"></path><path d="M175 190L174 306L302 284Z" fill="#fbf7d5" stroke="#fbf7d5"></path><path d="M302 284L228 360L290 390Z" fill="#eae1b3" stroke="#eae1b3"></path><path d="M735 182L578 200L620 276Z" fill="#eae1b3" stroke="#eae1b3"></path><path d="M567 88L512 0L463 106Z" fill="#dfcf9b" stroke="#dfcf9b"></path><path d="M603 0L512 0L567 88Z" fill="#f2ecc4" stroke="#f2ecc4"></path><path d="M436 63L336 0L293 91Z" fill="#dbca93" stroke="#dbca93"></path><path d="M512 0L430 0L436 63Z" fill="#dfcf9b" stroke="#dfcf9b"></path><path d="M688 332L735 182L620 276Z" fill="#eae1b3" stroke="#eae1b3"></path><path d="M320 484L399 513L362 436Z" fill="#e6dbab" stroke="#e6dbab"></path><path d="M362 436L399 513L464 477Z" fill="#d4be83" stroke="#d4be83"></path><path d="M569 514L692 431L605 410Z" fill="#eee6bc" stroke="#eee6bc"></path><path d="M605 410L692 431L688 332Z" fill="#f7f1cd" stroke="#f7f1cd"></path><path d="M831 321L796 179L735 182Z" fill="#fbf7d5" stroke="#fbf7d5"></path><path d="M569 514L474 395L464 477Z" fill="#e2d5a3" stroke="#e2d5a3"></path><path d="M539 600L569 514L464 477Z" fill="#e2d5a3" stroke="#e2d5a3"></path><path d="M174 306L228 360L302 284Z" fill="#d7c48b" stroke="#d7c48b"></path><path d="M290 390L320 484L362 436Z" fill="#f7f1cd" stroke="#f7f1cd"></path><path d="M670 82L603 0L567 88Z" fill="#dfcf9b" stroke="#dfcf9b"></path><path d="M233 500L320 484L290 390Z" fill="#dfcf9b" stroke="#dfcf9b"></path><path d="M430 0L336 0L436 63Z" fill="#fbf7d5" stroke="#fbf7d5"></path><path d="M175 190L302 284L334 184Z" fill="#eee6bc" stroke="#eee6bc"></path><path d="M228 360L233 500L290 390Z" fill="#f7f1cd" stroke="#f7f1cd"></path><path d="M175 190L334 184L293 91Z" fill="#d7c48b" stroke="#d7c48b"></path><path d="M336 0L228 71L293 91Z" fill="#f7f1cd" stroke="#f7f1cd"></path><path d="M228 71L175 190L293 91Z" fill="#eee6bc" stroke="#eee6bc"></path><path d="M831 321L735 182L688 332Z" fill="#dfcf9b" stroke="#dfcf9b"></path><path d="M735 182L788 68L670 82Z" fill="#d7c48b" stroke="#d7c48b"></path><path d="M670 82L683 0L603 0Z" fill="#eee6bc" stroke="#eee6bc"></path><path d="M788 68L683 0L670 82Z" fill="#f2ecc4" stroke="#f2ecc4"></path><path d="M569 514L713 515L692 431Z" fill="#e2d5a3" stroke="#e2d5a3"></path><path d="M794 432L831 321L688 332Z" fill="#fbf7d5" stroke="#fbf7d5"></path><path d="M619 600L713 515L569 514Z" fill="#eae1b3" stroke="#eae1b3"></path><path d="M425 600L464 477L399 513Z" fill="#f2ecc4" stroke="#f2ecc4"></path><path d="M425 600L539 600L464 477Z" fill="#e6dbab" stroke="#e6dbab"></path><path d="M121 503L233 500L228 360Z" fill="#d4be83" stroke="#d4be83"></path><path d="M327 600L425 600L399 513Z" fill="#dfcf9b" stroke="#dfcf9b"></path><path d="M327 600L399 513L320 484Z" fill="#f7f1cd" stroke="#f7f1cd"></path><path d="M794 432L688 332L692 431Z" fill="#e2d5a3" stroke="#e2d5a3"></path><path d="M796 179L788 68L735 182Z" fill="#fbf7d5" stroke="#fbf7d5"></path><path d="M818 0L788 68L900 65Z" fill="#eee6bc" stroke="#eee6bc"></path><path d="M713 515L794 432L692 431Z" fill="#dbca93" stroke="#dbca93"></path><path d="M90 129L113 229L175 190Z" fill="#f2ecc4" stroke="#f2ecc4"></path><path d="M175 190L113 229L174 306Z" fill="#f7f1cd" stroke="#f7f1cd"></path><path d="M174 306L103 339L228 360Z" fill="#fbf7d5" stroke="#fbf7d5"></path><path d="M539 600L619 600L569 514Z" fill="#e6dbab" stroke="#e6dbab"></path><path d="M336 0L200 0L228 71Z" fill="#dbca93" stroke="#dbca93"></path><path d="M228 71L90 129L175 190Z" fill="#e6dbab" stroke="#e6dbab"></path><path d="M233 500L327 600L320 484Z" fill="#f7f1cd" stroke="#f7f1cd"></path><path d="M113 229L103 339L174 306Z" fill="#f2ecc4" stroke="#f2ecc4"></path><path d="M619 600L671 600L713 515Z" fill="#f2ecc4" stroke="#f2ecc4"></path><path d="M713 515L820 517L794 432Z" fill="#fbf7d5" stroke="#fbf7d5"></path><path d="M95 0L90 129L228 71Z" fill="#f2ecc4" stroke="#f2ecc4"></path><path d="M0 297L63 417L103 339Z" fill="#dfcf9b" stroke="#dfcf9b"></path><path d="M900 65L788 68L796 179Z" fill="#dfcf9b" stroke="#dfcf9b"></path><path d="M788 68L818 0L683 0Z" fill="#e2d5a3" stroke="#e2d5a3"></path><path d="M900 428L900 309L831 321Z" fill="#f7f1cd" stroke="#f7f1cd"></path><path d="M831 321L900 192L796 179Z" fill="#d4be83" stroke="#d4be83"></path><path d="M900 428L831 321L794 432Z" fill="#f7f1cd" stroke="#f7f1cd"></path><path d="M900 309L900 192L831 321Z" fill="#dfcf9b" stroke="#dfcf9b"></path><path d="M790 600L820 517L713 515Z" fill="#eee6bc" stroke="#eee6bc"></path><path d="M63 417L121 503L228 360Z" fill="#eee6bc" stroke="#eee6bc"></path><path d="M233 500L167 600L327 600Z" fill="#e6dbab" stroke="#e6dbab"></path><path d="M0 297L103 339L113 229Z" fill="#fbf7d5" stroke="#fbf7d5"></path><path d="M103 339L63 417L228 360Z" fill="#f2ecc4" stroke="#f2ecc4"></path><path d="M820 517L900 428L794 432Z" fill="#d4be83" stroke="#d4be83"></path><path d="M900 192L900 65L796 179Z" fill="#dfcf9b" stroke="#dfcf9b"></path><path d="M671 600L790 600L713 515Z" fill="#eae1b3" stroke="#eae1b3"></path><path d="M820 517L900 519L900 428Z" fill="#f2ecc4" stroke="#f2ecc4"></path><path d="M200 0L95 0L228 71Z" fill="#d7c48b" stroke="#d7c48b"></path><path d="M0 184L0 297L113 229Z" fill="#eae1b3" stroke="#eae1b3"></path><path d="M126 600L167 600L121 503Z" fill="#f2ecc4" stroke="#f2ecc4"></path><path d="M121 503L167 600L233 500Z" fill="#e6dbab" stroke="#e6dbab"></path><path d="M0 184L113 229L90 129Z" fill="#eae1b3" stroke="#eae1b3"></path><path d="M900 65L900 0L818 0Z" fill="#f7f1cd" stroke="#f7f1cd"></path><path d="M0 65L0 184L90 129Z" fill="#f2ecc4" stroke="#f2ecc4"></path><path d="M900 600L900 519L820 517Z" fill="#e6dbab" stroke="#e6dbab"></path><path d="M0 530L126 600L121 503Z" fill="#fbf7d5" stroke="#fbf7d5"></path><path d="M0 530L121 503L63 417Z" fill="#e2d5a3" stroke="#e2d5a3"></path><path d="M0 297L0 433L63 417Z" fill="#e6dbab" stroke="#e6dbab"></path><path d="M95 0L0 65L90 129Z" fill="#fbf7d5" stroke="#fbf7d5"></path><path d="M790 600L900 600L820 517Z" fill="#d7c48b" stroke="#d7c48b"></path><path d="M95 0L0 0L0 65Z" fill="#d4be83" stroke="#d4be83"></path><path d="M0 433L0 530L63 417Z" fill="#eae1b3" stroke="#eae1b3"></path><path d="M0 530L0 600L126 600Z" fill="#eae1b3" stroke="#eae1b3"></path></g></svg>