<?xml version="1.0" encoding="utf-8"?>
<!-- Generator: Adobe Illustrator 27.3.1, SVG Export Plug-In . SVG Version: 6.00 Build 0)  -->
<svg version="1.1" id="Layer_1" xmlns="http://www.w3.org/2000/svg" xmlns:xlink="http://www.w3.org/1999/xlink" x="0px" y="0px"
	 viewBox="0 0 434.6 174.4" style="enable-background:new 0 0 434.6 174.4;" xml:space="preserve">
<style type="text/css">
	.st0{fill:#0E2346;}
	.st1{fill:#CC7E2E;}
	.st2{fill:#B2E0EE;}
	.st3{fill:#771342;}
	.st4{fill:none;stroke:#FFFFFF;stroke-width:0.3256;stroke-miterlimit:10;}
	.st5{fill:none;stroke:#FFFFFF;stroke-width:0.4;stroke-miterlimit:10;}
	.st6{fill:none;}
	.st7{fill:#FFFFFF;}
	.st8{fill:#49B4D5;}
	.st9{fill:#0095C0;}
	.st10{fill:#D1D2D3;}
</style>
<g>
	<g>
		<g>
			<path class="st0" d="M180.5,20.9h11.2l-0.2,1h-9.8v7.9h9.1l-0.2,1h-8.9v9.1h-1.2V20.9z"/>
			<path class="st0" d="M193,36.2c0-2.8,1.9-4,5.1-4.6l4.9-0.8v-0.6c0-2.6-1.5-3.9-4.2-3.9c-1.6,0-2.9,0.3-3.8,0.8l-0.2-1
				c1.1-0.5,2.5-0.8,4.3-0.8c3.2,0,5.1,1.7,5.1,4.9v9.9h-1l-0.2-2.9h-0.1c-0.8,1.9-2.7,3.2-5.1,3.2C195,40.4,193,38.7,193,36.2z
				 M198,39.3c2.8,0,5-2.2,5-4.8v-2.7l-4.7,0.8c-2.7,0.5-4.1,1.3-4.1,3.6C194.2,38.1,195.8,39.3,198,39.3z"/>
			<path class="st0" d="M207.9,32.8c0-4.6,2.5-7.5,6.4-7.5c1.6,0,3,0.3,4.1,0.8l-0.2,1c-0.9-0.5-2.2-0.8-3.7-0.8
				c-3.4,0-5.4,2.5-5.4,6.5s2,6.5,5.4,6.5c1.5,0,2.7-0.3,3.7-0.8l0.2,1c-1.1,0.5-2.5,0.8-4.1,0.8C210.4,40.4,207.9,37.5,207.9,32.8z
				"/>
			<path class="st0" d="M221.8,35.2v-9.6h1.2v9.3c0,2.8,1.4,4.4,4.1,4.4c2.8,0,4.8-2.1,4.8-4.9v-8.8h1.2v14.4h-1l-0.2-2.9h-0.1
				c-0.8,2-2.6,3.2-5,3.2C223.6,40.4,221.8,38.4,221.8,35.2z"/>
			<path class="st0" d="M237.8,20.9l1.2-0.2v19.4h-1.2V20.9z"/>
			<path class="st0" d="M244.6,36.6v-10l-2.4-0.2v-0.8h2.4v-3l1.2-0.3v3.3h3.4l-0.2,1h-3.2v9.8c0,1.8,0.7,2.6,2.4,2.6h1.1l-0.2,1h-1
				C245.6,40.1,244.6,39,244.6,36.6z"/>
			<path class="st0" d="M253.1,43.7h0.5c1.5,0,2.4-0.6,3.1-2.3l0.5-1.3l-5.7-14.4h1.3l4.9,12.6h0.1l4.7-12.6h1.1l-6,15.9
				c-0.9,2.4-2.1,3.2-4,3.2h-0.4L253.1,43.7z"/>
			<path class="st0" d="M273.1,32.8c0-4.6,2.5-7.5,6.4-7.5c3.9,0,6.4,2.9,6.4,7.5s-2.5,7.5-6.4,7.5
				C275.6,40.4,273.1,37.5,273.1,32.8z M279.6,39.3c3.2,0,5.2-2.5,5.2-6.5s-2-6.5-5.2-6.5c-3.2,0-5.2,2.5-5.2,6.5
				S276.3,39.3,279.6,39.3z"/>
			<path class="st0" d="M290.6,26.6l-2.4-0.2v-0.8h2.4v-1.3c0-2.4,1.2-3.7,3.5-3.7h1.3v1h-1.1c-1.7,0-2.5,1-2.5,2.7v1.3h3.5l-0.2,1
				h-3.3v13.4h-1.2V26.6z"/>
			<path class="st0" d="M179.6,51.4h11.3l-0.7,3.3h-6.5v3.1h6.5l-0.6,3h-5.9v3.2h7.2l-0.7,3.3h-10.6V51.4z"/>
			<path class="st0" d="M192.8,61.4c0-4,2.4-6.3,6.4-6.3c1.5,0,2.7,0.2,3.8,0.5l-0.6,2.8c-0.7-0.2-1.4-0.4-2.7-0.4
				c-2,0-2.8,1.3-2.8,3.4c0,2.1,0.8,3.4,2.8,3.4c1.3,0,1.9-0.2,2.7-0.4l0.6,2.8c-1,0.4-2.3,0.6-3.8,0.6
				C195.2,67.8,192.8,65.4,192.8,61.4z"/>
			<path class="st0" d="M204.3,61.4c0-4,2.4-6.3,6.4-6.3c3.9,0,6.4,2.4,6.4,6.3s-2.4,6.4-6.4,6.4C206.7,67.8,204.3,65.4,204.3,61.4z
				 M210.6,64.8c1.5,0,2.3-1.3,2.3-3.4c0-2.1-0.8-3.4-2.3-3.4c-1.5,0-2.3,1.3-2.3,3.4C208.3,63.5,209.1,64.8,210.6,64.8z"/>
			<path class="st0" d="M219.4,55.4h3.6l0.4,2h0.2c0.5-1.4,1.8-2.2,3.6-2.2c2.7,0,4.2,1.7,4.2,4.7v7.7h-4v-6.9
				c0-1.5-0.6-2.3-1.9-2.3s-2,1-2,2.4v6.8h-4V55.4z"/>
			<path class="st0" d="M233.6,61.4c0-4,2.4-6.3,6.4-6.3s6.4,2.4,6.4,6.3s-2.4,6.4-6.4,6.4S233.6,65.4,233.6,61.4z M240,64.8
				c1.5,0,2.3-1.3,2.3-3.4c0-2.1-0.8-3.4-2.3-3.4c-1.5,0-2.3,1.3-2.3,3.4C237.7,63.5,238.5,64.8,240,64.8z"/>
			<path class="st0" d="M248.8,55.4h3.6l0.4,2h0.2c0.5-1.4,1.9-2.3,3.5-2.3c1.7,0,3,0.8,3.5,2.4h0.2c0.5-1.4,2-2.4,3.7-2.4
				c2.5,0,4.1,1.7,4.1,4.2v8.2h-4v-7.2c0-1.3-0.6-2-1.8-2c-1.1,0-1.8,0.8-1.8,2v7.2h-4v-7.2c0-1.2-0.6-1.9-1.8-1.9
				c-1.1,0-1.8,0.8-1.8,2.1v7.1h-4V55.4z"/>
			<path class="st0" d="M270.9,52l4-0.9v2.7h-4V52z M270.9,55.4h4v12.2h-4V55.4z"/>
			<path class="st0" d="M277.3,61.4c0-4,2.4-6.3,6.4-6.3c1.5,0,2.7,0.2,3.8,0.5l-0.6,2.8c-0.7-0.2-1.4-0.4-2.7-0.4
				c-2,0-2.8,1.3-2.8,3.4c0,2.1,0.8,3.4,2.8,3.4c1.3,0,1.9-0.2,2.7-0.4l0.6,2.8c-1,0.4-2.3,0.6-3.8,0.6
				C279.7,67.8,277.3,65.4,277.3,61.4z"/>
			<path class="st0" d="M289.2,67.2l0.6-2.7c0.7,0.2,2.2,0.5,3.6,0.5c1.2,0,1.7-0.3,1.7-1c0-0.5-0.3-0.8-1-0.9l-1.8-0.4
				c-2-0.5-3.1-1.7-3.1-3.7c0-2.4,1.8-3.9,4.9-3.9c1.5,0,2.8,0.2,3.8,0.5l-0.6,2.7c-0.7-0.2-1.7-0.5-2.7-0.5c-1.2,0-1.8,0.3-1.8,1
				c0,0.5,0.3,0.8,1,0.9l1.8,0.4c2.2,0.5,3.2,1.6,3.2,3.5c0,2.5-2,4.1-5.4,4.1C291.4,67.8,290.2,67.6,289.2,67.2z"/>
			<path class="st0" d="M301.2,64.2l4-0.9v4.2l-0.9,4.5h-3.1V64.2z"/>
			<path class="st0" d="M313.4,59.5c0-5.1,3.1-8.3,8-8.3c1.8,0,3.4,0.3,4.7,0.8l-0.7,3.1c-1.1-0.3-2-0.5-3.4-0.5
				c-2.9,0-4.4,1.9-4.4,4.9s1.5,4.9,4.4,4.9c1.4,0,2.1-0.1,3.4-0.5L326,67c-1.3,0.5-2.9,0.8-4.7,0.8
				C316.5,67.8,313.4,64.6,313.4,59.5z"/>
			<path class="st0" d="M327.5,61.4c0-4,2.4-6.3,6.4-6.3c3.9,0,6.4,2.4,6.4,6.3s-2.4,6.4-6.4,6.4C330,67.8,327.5,65.4,327.5,61.4z
				 M333.9,64.8c1.5,0,2.3-1.3,2.3-3.4c0-2.1-0.8-3.4-2.3-3.4c-1.5,0-2.3,1.3-2.3,3.4C331.6,63.5,332.4,64.8,333.9,64.8z"/>
			<path class="st0" d="M342.7,55.4h3.6l0.4,2h0.2c0.5-1.4,1.9-2.3,3.5-2.3c1.7,0,3,0.8,3.5,2.4h0.2c0.5-1.4,2-2.4,3.7-2.4
				c2.5,0,4.1,1.7,4.1,4.2v8.2h-4v-7.2c0-1.3-0.6-2-1.8-2c-1.1,0-1.8,0.8-1.8,2v7.2h-4v-7.2c0-1.2-0.6-1.9-1.8-1.9
				c-1.1,0-1.8,0.8-1.8,2.1v7.1h-4V55.4z"/>
			<path class="st0" d="M364.8,55.4h3.6l0.4,2h0.2c0.5-1.4,1.9-2.3,3.5-2.3c1.7,0,3,0.8,3.5,2.4h0.2c0.5-1.4,2-2.4,3.7-2.4
				c2.5,0,4.1,1.7,4.1,4.2v8.2h-4v-7.2c0-1.3-0.6-2-1.8-2c-1.1,0-1.8,0.8-1.8,2v7.2h-4v-7.2c0-1.2-0.6-1.9-1.8-1.9
				c-1.1,0-1.8,0.8-1.8,2.1v7.1h-4V55.4z"/>
			<path class="st0" d="M386.2,61.4c0-4,2.4-6.3,6.4-6.3c3.6,0,6,2.4,6,6.3v1h-8.3c0.2,1.6,1,2.5,2.7,2.5c2,0,2.6-0.2,3.4-0.4
				l0.6,2.6c-1,0.4-2.3,0.6-4.2,0.6C388.7,67.8,386.2,65.4,386.2,61.4z M394.5,60.4c-0.2-1.6-0.9-2.5-1.9-2.5
				c-1.3,0-2.1,0.9-2.3,2.5H394.5z"/>
			<path class="st0" d="M400.9,55.4h3.6l0.4,1.9h0.2c0.4-1.4,1.5-2.2,3.1-2.2h1.7l-0.7,3.2h-1.3c-1.9,0-2.9,1-2.9,2.7v6.5h-4V55.4z"
				/>
			<path class="st0" d="M410.8,61.4c0-4,2.4-6.3,6.4-6.3c1.5,0,2.7,0.2,3.8,0.5l-0.6,2.8c-0.7-0.2-1.4-0.4-2.7-0.4
				c-2,0-2.8,1.3-2.8,3.4c0,2.1,0.8,3.4,2.8,3.4c1.3,0,1.9-0.2,2.7-0.4l0.6,2.8c-1,0.4-2.3,0.6-3.8,0.6
				C413.2,67.8,410.8,65.4,410.8,61.4z"/>
			<path class="st0" d="M422.3,61.4c0-4,2.4-6.3,6.4-6.3c3.6,0,6,2.4,6,6.3v1h-8.3c0.2,1.6,1,2.5,2.7,2.5c2,0,2.6-0.2,3.4-0.4
				l0.6,2.6c-1,0.4-2.3,0.6-4.2,0.6C424.7,67.8,422.3,65.4,422.3,61.4z M430.5,60.4c-0.2-1.6-0.9-2.5-1.9-2.5
				c-1.3,0-2.1,0.9-2.3,2.5H430.5z"/>
			<path class="st0" d="M178.5,91.5c0-2.5,1.4-3.7,4.8-4.3l2.7-0.5v-0.3c0-1-0.6-1.3-2.7-1.3c-1.3,0-2,0.1-2.7,0.4l-0.6-2.4
				c1-0.4,2.9-0.5,4.5-0.5c3.5,0,5.4,1.5,5.4,4.2V95h-3.7l-0.3-1.4h-0.2c-0.5,1-1.9,1.7-3.5,1.7C180.1,95.2,178.5,93.7,178.5,91.5z
				 M183.8,92.5c1.2,0,2.2-0.8,2.2-1.8v-1.4l-2.1,0.4c-1.2,0.2-1.7,0.6-1.7,1.6C182.2,92,182.9,92.5,183.8,92.5z"/>
			<path class="st0" d="M193,82.8h3.6l0.4,2h0.2c0.5-1.4,1.8-2.2,3.6-2.2c2.7,0,4.2,1.7,4.2,4.7V95h-4v-6.9c0-1.5-0.6-2.3-1.9-2.3
				s-2,1-2,2.4V95h-4V82.8z"/>
			<path class="st0" d="M207.5,88.9c0-4,2.7-6.3,5.6-6.3c1.3,0,2.2,0.4,2.9,1.1h0.2v-4.2l4-0.9V95h-3.6l-0.3-1.5h-0.2
				c-0.6,1.1-1.5,1.7-3,1.7C210.2,95.2,207.5,92.8,207.5,88.9z M213.8,92.2c1.5,0,2.3-0.8,2.3-2.3v-3.3c-0.4-0.7-1.2-1.1-2.3-1.1
				c-1.5,0-2.3,1.3-2.3,3.4C211.5,91,212.3,92.2,213.8,92.2z"/>
			<path class="st0" d="M229.1,78.9h3.8l4.8,9.7h0.2l4.8-9.7h3.8V95h-4v-7.4h-0.2l-3.6,7.4h-2.4l-3.6-7.4h-0.2V95h-3.5V78.9z"/>
			<path class="st0" d="M249.1,91.5c0-2.5,1.4-3.7,4.8-4.3l2.7-0.5v-0.3c0-1-0.6-1.3-2.7-1.3c-1.3,0-2,0.1-2.7,0.4l-0.6-2.4
				c1-0.4,2.9-0.5,4.5-0.5c3.5,0,5.4,1.5,5.4,4.2V95h-3.7l-0.3-1.4h-0.2c-0.5,1-1.9,1.7-3.5,1.7C250.7,95.2,249.1,93.7,249.1,91.5z
				 M254.4,92.5c1.2,0,2.2-0.8,2.2-1.8v-1.4l-2.1,0.4c-1.2,0.2-1.7,0.6-1.7,1.6C252.8,92,253.5,92.5,254.4,92.5z"/>
			<path class="st0" d="M263.7,82.8h3.6l0.4,2h0.2c0.5-1.4,1.8-2.2,3.6-2.2c2.7,0,4.2,1.7,4.2,4.7V95h-4v-6.9c0-1.5-0.6-2.3-1.9-2.3
				c-1.3,0-2,1-2,2.4V95h-4V82.8z"/>
			<path class="st0" d="M277.9,91.5c0-2.5,1.4-3.7,4.8-4.3l2.7-0.5v-0.3c0-1-0.6-1.3-2.7-1.3c-1.3,0-2,0.1-2.7,0.4l-0.6-2.4
				c1-0.4,2.9-0.5,4.5-0.5c3.5,0,5.4,1.5,5.4,4.2V95h-3.7l-0.3-1.4h-0.2c-0.5,1-1.9,1.7-3.5,1.7C279.5,95.2,277.9,93.7,277.9,91.5z
				 M283.2,92.5c1.2,0,2.2-0.8,2.2-1.8v-1.4l-2.1,0.4c-1.2,0.2-1.7,0.6-1.7,1.6C281.6,92,282.3,92.5,283.2,92.5z"/>
			<path class="st0" d="M294.4,98.6l0.6-2.4c0.8,0.2,1.4,0.4,2.7,0.4c2.4,0,2.8-1.6,2.8-2.7h-0.2c-0.7,0.7-1.5,1.1-2.9,1.1
				c-2.9,0-5.6-2.4-5.6-6.1c0-4,2.7-6.4,5.6-6.4c1.5,0,2.3,0.6,3,1.7h0.2l0.3-1.4h3.6v10c0,4-2.4,6.4-6.4,6.4
				C296.6,99.2,295.4,99,294.4,98.6z M298.1,92c1.1,0,1.9-0.4,2.3-1.1v-3c0-1.5-0.8-2.3-2.3-2.3c-1.5,0-2.3,1.3-2.3,3.4
				C295.8,90.7,296.6,92,298.1,92z"/>
			<path class="st0" d="M307.1,88.9c0-4,2.4-6.3,6.4-6.3c3.6,0,6,2.4,6,6.3v1h-8.3c0.2,1.6,1,2.5,2.7,2.5c2,0,2.6-0.2,3.4-0.4
				l0.6,2.6c-1,0.4-2.3,0.6-4.2,0.6C309.5,95.2,307.1,92.8,307.1,88.9z M315.4,87.8c-0.2-1.6-0.9-2.5-1.9-2.5
				c-1.3,0-2.1,0.9-2.3,2.5H315.4z"/>
			<path class="st0" d="M321.9,82.8h3.6l0.4,2h0.2c0.5-1.4,1.9-2.3,3.5-2.3c1.7,0,3,0.8,3.5,2.4h0.2c0.5-1.4,2-2.4,3.7-2.4
				c2.5,0,4.1,1.7,4.1,4.2V95h-4v-7.2c0-1.3-0.6-2-1.8-2c-1.1,0-1.8,0.8-1.8,2V95h-4v-7.2c0-1.2-0.6-1.9-1.8-1.9
				c-1.1,0-1.8,0.8-1.8,2.1V95h-4V82.8z"/>
			<path class="st0" d="M343.6,88.9c0-4,2.4-6.3,6.4-6.3c3.6,0,6,2.4,6,6.3v1h-8.3c0.2,1.6,1,2.5,2.7,2.5c2,0,2.6-0.2,3.4-0.4
				l0.6,2.6c-1,0.4-2.3,0.6-4.2,0.6C346,95.2,343.6,92.8,343.6,88.9z M351.9,87.8c-0.2-1.6-0.9-2.5-1.9-2.5c-1.3,0-2.1,0.9-2.3,2.5
				H351.9z"/>
			<path class="st0" d="M358.4,82.8h3.6l0.4,2h0.2c0.5-1.4,1.8-2.2,3.6-2.2c2.7,0,4.2,1.7,4.2,4.7V95h-4v-6.9c0-1.5-0.6-2.3-1.9-2.3
				c-1.3,0-2,1-2,2.4V95h-4V82.8z"/>
			<path class="st0" d="M374.4,91.5v-5.8l-1.9-0.4v-2.6h1.9v-1.9l4-0.9v2.8h2.5l-0.6,3h-1.9v4.9c0,0.9,0.5,1.4,1.5,1.4h1.3l-0.6,3
				H379C375.7,95,374.4,93.9,374.4,91.5z"/>
			<path class="st0" d="M178.9,121.9l0.7-3.2c1.1,0.3,2.6,0.7,4.1,0.7c2.1,0,3-0.5,3-1.6c0-0.8-0.6-1.2-2-1.5l-1.5-0.3
				c-3-0.7-4.3-2.2-4.3-4.8c0-3.1,2.4-5.1,6.3-5.1c1.7,0,3.2,0.3,4.5,0.8l-0.7,3.2c-1.1-0.4-2-0.7-3.7-0.7c-1.7,0-2.5,0.6-2.5,1.5
				c0,0.9,0.6,1.3,1.8,1.6l1.5,0.3c3,0.7,4.4,2,4.4,4.7c0,3.2-2.2,5.3-6.4,5.3C181.8,122.7,180.2,122.4,178.9,121.9z"/>
			<path class="st0" d="M192.6,116.3c0-4,2.4-6.3,6.4-6.3c1.5,0,2.7,0.2,3.8,0.5l-0.6,2.8c-0.7-0.2-1.4-0.4-2.7-0.4
				c-2,0-2.8,1.3-2.8,3.4c0,2.1,0.8,3.4,2.8,3.4c1.3,0,1.9-0.2,2.7-0.4l0.6,2.8c-1,0.4-2.3,0.6-3.8,0.6
				C195,122.7,192.6,120.3,192.6,116.3z"/>
			<path class="st0" d="M205.2,106.9l4-0.9v2.7h-4V106.9z M205.2,110.3h4v12.2h-4V110.3z"/>
			<path class="st0" d="M211.9,116.3c0-4,2.4-6.3,6.4-6.3c3.6,0,6,2.4,6,6.3v1h-8.3c0.2,1.6,1,2.5,2.7,2.5c2,0,2.6-0.2,3.4-0.4
				l0.6,2.6c-1,0.4-2.3,0.6-4.2,0.6C214.3,122.7,211.9,120.3,211.9,116.3z M220.2,115.3c-0.2-1.6-0.9-2.5-1.9-2.5
				c-1.3,0-2.1,0.9-2.3,2.5H220.2z"/>
			<path class="st0" d="M226.7,110.3h3.6l0.4,2h0.2c0.5-1.4,1.8-2.2,3.6-2.2c2.7,0,4.2,1.7,4.2,4.7v7.7h-4v-6.9
				c0-1.5-0.6-2.3-1.9-2.3c-1.3,0-2,1-2,2.4v6.8h-4V110.3z"/>
			<path class="st0" d="M241.2,116.3c0-4,2.4-6.3,6.4-6.3c1.5,0,2.7,0.2,3.8,0.5l-0.6,2.8c-0.7-0.2-1.4-0.4-2.7-0.4
				c-2,0-2.8,1.3-2.8,3.4c0,2.1,0.8,3.4,2.8,3.4c1.3,0,1.9-0.2,2.7-0.4l0.6,2.8c-1,0.4-2.3,0.6-3.8,0.6
				C243.6,122.7,241.2,120.3,241.2,116.3z"/>
			<path class="st0" d="M252.9,116.3c0-4,2.4-6.3,6.4-6.3c3.6,0,6,2.4,6,6.3v1h-8.3c0.2,1.6,1,2.5,2.7,2.5c2,0,2.6-0.2,3.4-0.4
				l0.6,2.6c-1,0.4-2.3,0.6-4.2,0.6C255.3,122.7,252.9,120.3,252.9,116.3z M261.2,115.3c-0.2-1.6-0.9-2.5-1.9-2.5
				c-1.3,0-2.1,0.9-2.3,2.5H261.2z"/>
			<path class="st0" d="M267.1,122.1l0.6-2.7c0.7,0.2,2.2,0.5,3.6,0.5c1.2,0,1.7-0.3,1.7-1c0-0.5-0.3-0.8-1-0.9l-1.8-0.4
				c-2-0.5-3.1-1.7-3.1-3.7c0-2.4,1.8-3.9,4.9-3.9c1.5,0,2.8,0.2,3.8,0.5l-0.6,2.7c-0.7-0.2-1.7-0.5-2.7-0.5c-1.2,0-1.8,0.3-1.8,1
				c0,0.5,0.3,0.8,1,0.9l1.8,0.4c2.2,0.5,3.2,1.6,3.2,3.5c0,2.5-2,4.1-5.4,4.1C269.4,122.7,268.1,122.5,267.1,122.1z"/>
			<path class="st0" d="M178.9,149.4l0.7-3.2c1.1,0.3,2.6,0.7,4.1,0.7c2.1,0,3-0.5,3-1.6c0-0.8-0.6-1.2-2-1.5l-1.5-0.3
				c-3-0.7-4.3-2.2-4.3-4.8c0-3.1,2.4-5.1,6.3-5.1c1.7,0,3.2,0.3,4.5,0.8l-0.7,3.2c-1.1-0.4-2-0.7-3.7-0.7c-1.7,0-2.5,0.6-2.5,1.5
				c0,0.9,0.6,1.3,1.8,1.6l1.5,0.3c3,0.7,4.4,2,4.4,4.7c0,3.2-2.2,5.3-6.4,5.3C181.8,150.1,180.2,149.9,178.9,149.4z"/>
			<path class="st0" d="M192.3,143.8c0-4,2.4-6.3,6.4-6.3c3.6,0,6,2.4,6,6.3v1h-8.3c0.2,1.6,1,2.5,2.7,2.5c2,0,2.6-0.2,3.4-0.4
				l0.6,2.6c-1,0.4-2.3,0.6-4.2,0.6C194.8,150.1,192.3,147.7,192.3,143.8z M200.6,142.7c-0.2-1.6-0.9-2.5-1.9-2.5
				c-1.3,0-2.1,0.9-2.3,2.5H200.6z"/>
			<path class="st0" d="M207.9,146.4v-5.8l-1.9-0.4v-2.6h1.9v-1.9l4-0.9v2.8h2.5l-0.6,3h-1.9v4.9c0,0.9,0.5,1.4,1.5,1.4h1.3l-0.6,3
				h-1.5C209.2,149.9,207.9,148.8,207.9,146.4z"/>
			<path class="st0" d="M216.9,134.4l4-0.9v2.7h-4V134.4z M216.9,137.7h4v12.2h-4V137.7z"/>
			<path class="st0" d="M225,140.7l-2-0.4v-2.5h2v-0.4c0-2.5,1.3-3.8,4.6-3.8h1.9v2.6h-1.4c-0.8,0-1.2,0.5-1.2,1.2v0.5h2.5l-0.6,3
				H229v9.2h-4V140.7z"/>
			<path class="st0" d="M241.9,137.8h-0.2l-3.4,0.7v-3.4l7.8-1.7v16.4h-4.2V137.8z"/>
			<path class="st0" d="M254.8,145.4v-7.7h4v6.9c0,1.5,0.6,2.3,1.9,2.3c1.3,0,2-1,2-2.4v-6.8h4v12.2h-3.6l-0.4-2h-0.2
				c-0.5,1.4-1.8,2.2-3.6,2.2C256.2,150.1,254.8,148.4,254.8,145.4z"/>
			<path class="st0" d="M269.8,137.7h3.6l0.4,2h0.2c0.5-1.4,1.8-2.2,3.6-2.2c2.7,0,4.2,1.7,4.2,4.7v7.7h-4V143
				c0-1.5-0.6-2.3-1.9-2.3c-1.3,0-2,1-2,2.4v6.8h-4V137.7z"/>
			<path class="st0" d="M284.7,134.4l4-0.9v2.7h-4V134.4z M284.7,137.7h4v12.2h-4V137.7z"/>
			<path class="st0" d="M290.7,137.7h4.2l2.6,7.4h0.2l2.7-7.4h3.4l-4.5,12.2h-4L290.7,137.7z"/>
			<path class="st0" d="M304.7,143.8c0-4,2.4-6.3,6.4-6.3c3.6,0,6,2.4,6,6.3v1h-8.3c0.2,1.6,1,2.5,2.7,2.5c2,0,2.6-0.2,3.4-0.4
				l0.6,2.6c-1,0.4-2.3,0.6-4.2,0.6C307.1,150.1,304.7,147.7,304.7,143.8z M313,142.7c-0.2-1.6-0.9-2.5-1.9-2.5
				c-1.3,0-2.1,0.9-2.3,2.5H313z"/>
			<path class="st0" d="M319.3,137.7h3.6l0.4,1.9h0.2c0.4-1.4,1.5-2.2,3.1-2.2h1.7l-0.7,3.2h-1.3c-1.9,0-2.9,1-2.9,2.7v6.5h-4V137.7
				z"/>
			<path class="st0" d="M329.6,149.6l0.6-2.7c0.7,0.2,2.2,0.5,3.6,0.5c1.2,0,1.7-0.3,1.7-1c0-0.5-0.3-0.8-1-0.9l-1.8-0.4
				c-2-0.5-3.1-1.7-3.1-3.7c0-2.4,1.8-3.9,4.9-3.9c1.5,0,2.8,0.2,3.8,0.5l-0.6,2.7c-0.7-0.2-1.7-0.5-2.7-0.5c-1.2,0-1.8,0.3-1.8,1
				c0,0.5,0.3,0.8,1,0.9l1.8,0.4c2.2,0.5,3.2,1.6,3.2,3.5c0,2.5-2,4.1-5.4,4.1C331.9,150.1,330.6,149.9,329.6,149.6z"/>
			<path class="st0" d="M341.4,134.4l4-0.9v2.7h-4V134.4z M341.4,137.7h4v12.2h-4V137.7z"/>
			<path class="st0" d="M349.5,146.4v-5.8l-1.9-0.4v-2.6h1.9v-1.9l4-0.9v2.8h2.5l-0.6,3h-1.9v4.9c0,0.9,0.5,1.4,1.5,1.4h1.3l-0.6,3
				h-1.5C350.8,149.9,349.5,148.8,349.5,146.4z"/>
			<path class="st0" d="M358.4,151h1.4c1.7,0,2.1-0.1,2.2-0.8l0-0.3l-4.7-12.2h4.2l2.9,7.9h0.2l2.7-7.9h3.3l-3.9,11.5
				c-1.2,3.5-3.2,4.6-6.7,4.6h-1L358.4,151z"/>
		</g>
	</g>
	<g>
		<path class="st1" d="M45.5,60c0,0.3,0,0.5-0.1,0.8c0,0.3-0.1,0.6-0.1,0.9c0-0.3,0.1-0.6,0.1-0.9C45.5,60.5,45.5,60.3,45.5,60z"/>
		<path class="st1" d="M90.6,71.2c0,0-0.1,0-0.1,0c-0.2,0-0.4-0.1-0.6-0.1c-0.1,0-0.1,0-0.2,0c-0.1,0-0.1,0-0.2,0
			c-0.4-0.1-0.8-0.2-1.2-0.3c0,0,0,0,0,0c-1.3-0.3-2.7-0.5-4-0.7c-0.5-0.1-1-0.1-1.5-0.2c-1.7-0.2-3.4-0.4-5.2-0.4
			c-0.2,0-0.4,0-0.6,0c-0.5,0-1,0-1.5,0c-0.3,0-0.7,0-1,0c-0.4,0-0.8,0-1.1,0c-0.4,0-0.8,0-1.3,0c0.1,0.6,0.2,1.2,0.3,1.8
			c0.1,0.3,0.1,0.7,0.2,1c0,0.1,0.1,0.3,0.1,0.4c0,0.1,0.1,0.2,0.1,0.4c0,0.2,0.1,0.3,0.1,0.5c0,0.1,0.1,0.2,0.1,0.4
			c0.1,0.2,0.2,0.5,0.3,0.7c0.4,0,0.8,0,1.3,0c0.4,0,0.8,0,1.2,0c4.3,0.1,8.5,0.6,12.5,1.5c0.7,0.2,1.4,0.3,2.1,0.5v-0.7
			c0.7-1.3,1.2-2.6,1.4-3.6c0-0.2,0.1-0.4,0.1-0.6C91.5,71.4,91.1,71.3,90.6,71.2z M147.1,50c-0.5-0.5-0.9-0.9-1.4-1.4
			c-0.3-0.3-0.7-0.6-1-1l0,0c0,0,0,0,0,0c-0.2-0.2-0.5-0.4-0.7-0.7c-0.3-0.3-0.6-0.5-0.8-0.8c-0.5-0.4-0.9-0.8-1.4-1.2
			c-0.3-0.2-0.5-0.4-0.8-0.6c-0.3-0.2-0.5-0.4-0.8-0.6c-0.5-0.4-1-0.8-1.5-1.3c-0.3-0.2-0.5-0.4-0.8-0.6c-0.2-0.2-0.4-0.3-0.6-0.5
			c-1.2-0.9-2.4-1.8-3.6-2.6c-0.2-0.1-0.4-0.3-0.6-0.4c-0.6-0.4-1.2-0.8-1.8-1.2c-0.3-0.2-0.6-0.4-0.9-0.6c-0.2-0.1-0.5-0.3-0.7-0.4
			c-0.2-0.1-0.4-0.3-0.7-0.4c-1.4-0.9-2.8-1.7-4.2-2.5c-0.6-0.3-1.1-0.6-1.7-0.9c-0.2-0.1-0.5-0.3-0.7-0.4c-0.4-0.2-0.8-0.4-1.2-0.6
			c-0.5-0.3-1.1-0.5-1.6-0.8c-0.2-0.1-0.4-0.2-0.7-0.3c-1-0.5-2-1-3.1-1.4c-0.3-0.1-0.7-0.3-1-0.4c-0.4-0.2-0.8-0.3-1.1-0.5
			c-0.4-0.2-0.7-0.3-1.1-0.5c-0.4-0.2-0.8-0.3-1.2-0.5c-0.4-0.1-0.8-0.3-1.1-0.4c-0.5-0.2-0.9-0.3-1.4-0.5c-0.7-0.3-1.4-0.5-2.1-0.7
			c-0.4-0.1-0.8-0.3-1.2-0.4c-0.6-0.2-1.3-0.4-2-0.6c-0.1,0-0.2-0.1-0.3-0.1c-0.2-0.1-0.4-0.1-0.6-0.2c-0.7-0.2-1.3-0.4-2-0.5
			c-0.3-0.1-0.7-0.2-1-0.3c-0.2,0-0.3-0.1-0.5-0.1c-0.3-0.1-0.6-0.2-0.9-0.2c0,0-0.1,0-0.1,0c-0.3-0.1-0.6-0.1-0.9-0.2
			c-0.2-0.1-0.4-0.1-0.7-0.2c-0.3-0.1-0.6-0.1-1-0.2c-0.3-0.1-0.6-0.1-1-0.2c-0.6-0.1-1.3-0.3-1.9-0.4c-0.3-0.1-0.6-0.1-1-0.2
			c-0.6-0.1-1.3-0.2-1.9-0.3c-0.3,0-0.6-0.1-1-0.1c-0.2,0-0.4-0.1-0.6-0.1c-0.2,0-0.4-0.1-0.6-0.1c-0.1,0-0.2,0-0.2,0
			c-0.5-0.1-1.1-0.1-1.6-0.2c0,0,0,0-0.1,0c-0.5-0.1-1-0.1-1.6-0.2c-0.4,0-0.8-0.1-1.3-0.1c-0.2,0-0.4,0-0.6,0c-0.3,0-0.5,0-0.8-0.1
			c-0.3,0-0.5,0-0.8-0.1c-0.2,0-0.3,0-0.5,0c-0.3,0-0.6,0-0.9-0.1c-0.5,0-1,0-1.5-0.1c-0.1,0-0.2,0-0.4,0c-0.5,0-0.9,0-1.4,0h-0.1
			c-0.5,0-1.1,0-1.6,0c-0.3,0-0.7,0-1,0c-0.4,0-0.9,0-1.3,0h-0.1c-0.4,0-0.8,0-1.2,0c-0.3,0-0.7,0-1,0c0,0-0.1,0-0.1,0
			c-0.3,0-0.5,0-0.8,0c-0.2,0-0.5,0-0.7,0c-0.2,0-0.5,0-0.7,0c-0.5,0-0.9,0.1-1.4,0.1c0,0-0.1,0-0.1,0c-0.5,0-1,0.1-1.6,0.1h0
			c-0.1,0-0.2,0-0.3,0c-0.2,0-0.4,0-0.6,0.1c0,0-0.1,0-0.1,0c-0.5,0-0.9,0.1-1.4,0.2c-0.1,0-0.1,0-0.2,0c-0.3,0-0.6,0.1-0.9,0.1
			c-0.3,0-0.6,0.1-0.9,0.1c-0.3,0-0.7,0.1-1,0.1c-0.4,0.1-0.8,0.1-1.2,0.2c-0.1,0-0.1,0-0.2,0c-0.4,0.1-0.8,0.1-1.2,0.2
			c-0.4,0.1-0.7,0.1-1.1,0.2c-0.5,0.1-0.9,0.2-1.4,0.3c-0.3,0.1-0.5,0.1-0.8,0.2c-0.6,0.1-1.2,0.3-1.9,0.4c-0.3,0.1-0.6,0.1-0.9,0.2
			c-0.4,0.1-0.9,0.2-1.3,0.3c-0.4,0.1-0.8,0.2-1.2,0.3c-0.8,0.2-1.6,0.4-2.5,0.7c-0.4,0.1-0.8,0.2-1.1,0.3c-0.4,0.1-0.8,0.2-1.2,0.4
			c0,0,0,0,0,0c-0.4,0.1-0.8,0.2-1.1,0.4c-0.4,0.1-0.8,0.3-1.2,0.4c-0.4,0.1-0.8,0.3-1.2,0.4c-0.4,0.1-0.7,0.3-1.1,0.4
			c-0.1,0-0.1,0-0.2,0.1c-0.6,0.2-1.3,0.5-1.9,0.7c-0.5,0.2-1,0.4-1.5,0.6c-0.4,0.2-0.8,0.3-1.1,0.5c-0.4,0.2-0.8,0.3-1.1,0.5
			c-0.4,0.2-0.8,0.3-1.1,0.5c-0.4,0.2-0.8,0.3-1.1,0.5c-0.4,0.2-0.8,0.4-1.1,0.5c-0.8,0.4-1.6,0.8-2.5,1.2c-0.2,0.1-0.5,0.2-0.7,0.4
			c-0.2,0.1-0.4,0.2-0.6,0.3c-0.6,0.3-1.2,0.6-1.8,1c-0.7,0.4-1.5,0.8-2.2,1.3c-0.3,0.2-0.6,0.3-0.8,0.5c-1,0.6-2,1.3-3,1.9
			c-0.3,0.2-0.6,0.4-0.8,0.6c-0.3,0.2-0.5,0.3-0.8,0.5c-0.1,0.1-0.2,0.1-0.3,0.2c-0.2,0.1-0.4,0.3-0.6,0.4c-0.6,0.4-1.1,0.8-1.6,1.2
			c-0.3,0.2-0.5,0.4-0.8,0.6c-0.8,0.6-1.6,1.2-2.4,1.9c-0.3,0.2-0.5,0.4-0.8,0.6c0,0,0,0,0,0c-0.3,0.2-0.5,0.4-0.8,0.6
			c-0.3,0.2-0.5,0.4-0.8,0.7c-0.3,0.2-0.5,0.4-0.8,0.7c-0.5,0.4-1,0.9-1.5,1.4c-0.3,0.2-0.5,0.5-0.8,0.7c-0.2,0.2-0.5,0.5-0.7,0.7
			c0,0,0,0,0,0c-0.2,0.2-0.5,0.4-0.7,0.6c-0.3,0.3-0.6,0.5-0.8,0.8C2.7,49.4,2.4,49.7,2,50c-0.7,0.7-1.4,1.4-2,2.1v7.8
			c0.4-0.5,0.9-1,1.3-1.5c0.2-0.3,0.5-0.5,0.7-0.8c0.1-0.2,0.3-0.3,0.4-0.5c0.1-0.2,0.3-0.3,0.5-0.5c0.2-0.2,0.4-0.4,0.6-0.6
			c0.3-0.4,0.7-0.7,1-1.1c0.5-0.5,0.9-1,1.4-1.4c0.2-0.2,0.4-0.4,0.6-0.5c0.2-0.2,0.4-0.4,0.7-0.6c0.2-0.2,0.5-0.5,0.7-0.7
			c0.4-0.4,0.8-0.7,1.2-1.1c0.3-0.3,0.6-0.6,0.9-0.8c0,0,0,0,0.1-0.1c0.3-0.3,0.6-0.6,0.9-0.8c0.3-0.3,0.6-0.5,0.9-0.8
			c0.4-0.3,0.8-0.7,1.2-1c0.3-0.2,0.6-0.5,0.9-0.7c0.3-0.2,0.5-0.4,0.8-0.6c0.5-0.4,1-0.7,1.5-1.1c0.3-0.2,0.6-0.4,0.9-0.6
			c1-0.7,2-1.4,3-2.1c0.2-0.2,0.5-0.3,0.7-0.5c0.2-0.1,0.4-0.3,0.6-0.4c0.3-0.2,0.5-0.3,0.8-0.5c0.7-0.5,1.4-0.9,2.2-1.3
			c0.2-0.1,0.5-0.3,0.7-0.4c0.3-0.2,0.6-0.3,0.9-0.5c2.1-1.2,4.2-2.3,6.4-3.4c0.3-0.1,0.5-0.3,0.8-0.4c0,0,0.1,0,0.1,0
			c0.3-0.1,0.6-0.3,0.9-0.4c1-0.4,2-0.9,3-1.3c0.3-0.1,0.5-0.2,0.8-0.3c0.3-0.1,0.6-0.3,1-0.4s0.6-0.3,1-0.4
			c0.2-0.1,0.4-0.2,0.7-0.2c0.3-0.1,0.6-0.2,0.9-0.3c0.3-0.1,0.6-0.2,0.8-0.3c1-0.3,1.9-0.7,2.9-1c0.3-0.1,0.6-0.2,0.9-0.3
			c0.1,0,0.2-0.1,0.3-0.1c0.4-0.1,0.8-0.2,1.1-0.3c0.4-0.1,0.8-0.2,1.2-0.3c0.4-0.1,0.7-0.2,1.1-0.3c0.2-0.1,0.4-0.1,0.6-0.2
			c0.3-0.1,0.6-0.1,0.8-0.2c0.1,0,0.1,0,0.2,0c0.3-0.1,0.6-0.1,0.9-0.2c0.8-0.2,1.7-0.4,2.5-0.6c0.3-0.1,0.7-0.1,1-0.2
			c0.3-0.1,0.7-0.1,1-0.2c0.7-0.1,1.4-0.2,2.1-0.4c0.3-0.1,0.7-0.1,1-0.2c0.3-0.1,0.7-0.1,1-0.1c0.4-0.1,0.7-0.1,1.1-0.1
			c0.5-0.1,0.9-0.1,1.4-0.2c0.4,0,0.9-0.1,1.3-0.1c0.4,0,0.8-0.1,1.2-0.1c0.3,0,0.5,0,0.8-0.1c0.5,0,0.9-0.1,1.4-0.1
			c0.2,0,0.5,0,0.7,0c0.5,0,0.9,0,1.4-0.1c0.4,0,0.8,0,1.3,0h0c0.1,0,0.2,0,0.3,0c0.3,0,0.5,0,0.8,0c0.1,0,0.2,0,0.3,0
			c0.1,0,0.3,0,0.4,0c0.4,0,0.7,0,1.1,0c0.5,0,0.9,0,1.4,0c0.4,0,0.9,0,1.3,0c0.5,0,1,0,1.5,0.1c0.4,0,0.9,0,1.3,0.1h0
			c0.4,0,0.7,0,1.1,0.1c0,0,0,0,0.1,0c0.3,0,0.6,0,0.8,0.1c0.6,0,1.2,0.1,1.7,0.1c0.2,0,0.5,0,0.7,0.1c0.8,0.1,1.7,0.2,2.5,0.3
			c0.3,0,0.5,0.1,0.8,0.1c0.2,0,0.5,0.1,0.7,0.1c0.2,0,0.5,0.1,0.7,0.1c0.3,0,0.6,0.1,0.9,0.1c0.4,0.1,0.7,0.1,1,0.2
			c0.3,0,0.6,0.1,0.9,0.2c0.3,0.1,0.7,0.1,1,0.2c0.2,0,0.5,0.1,0.7,0.1c0.4,0.1,0.7,0.2,1.1,0.2c0.4,0.1,0.7,0.2,1.1,0.2
			c0.4,0.1,0.7,0.2,1.1,0.3c0.4,0.1,0.7,0.2,1.1,0.3c0.4,0.1,0.9,0.2,1.3,0.3c0.1,0,0.1,0,0.2,0c0,0,0,0,0,0c0.1,0,0.2,0,0.2,0.1
			c0.1,0,0.2,0.1,0.3,0.1c0.4,0.1,0.7,0.2,1,0.3c0.6,0.2,1.2,0.4,1.8,0.6c0.4,0.1,0.8,0.2,1.1,0.4c0.1,0,0.2,0.1,0.3,0.1
			c0.4,0.1,0.8,0.3,1.2,0.4c0.1,0,0.2,0.1,0.3,0.1c0.4,0.1,0.8,0.3,1.2,0.4c0.6,0.2,1.1,0.4,1.7,0.6c1,0.4,2,0.8,3,1.2
			c2,0.8,3.9,1.7,5.8,2.6c0.1,0,0.2,0.1,0.2,0.1c0.4,0.2,0.7,0.4,1.1,0.6c0.1,0.1,0.2,0.1,0.3,0.2c0.4,0.2,0.8,0.4,1.2,0.6
			c0,0,0,0,0.1,0c0.5,0.3,0.9,0.5,1.4,0.8c0.5,0.3,1.1,0.6,1.6,0.9c0.3,0.2,0.7,0.4,1,0.6c0.1,0.1,0.2,0.1,0.3,0.2
			c0.3,0.2,0.6,0.4,0.9,0.5c0.1,0.1,0.3,0.2,0.4,0.3c0.4,0.2,0.8,0.5,1.1,0.7c1,0.6,2,1.3,3,2c0.2,0.2,0.5,0.3,0.7,0.5
			c0.3,0.2,0.6,0.4,0.9,0.6c0.3,0.2,0.6,0.5,0.9,0.7c0.9,0.7,1.8,1.4,2.7,2.1c0.3,0.2,0.5,0.4,0.8,0.7c0,0,0.1,0.1,0.1,0.1
			c0.3,0.3,0.6,0.5,0.9,0.8c0.1,0.1,0.3,0.2,0.4,0.4c1.1,0.9,2.1,1.9,3.2,2.8c0.3,0.3,0.5,0.5,0.8,0.8c0,0,0.1,0,0.1,0.1
			c0.2,0.2,0.4,0.4,0.6,0.6c0.3,0.3,0.6,0.6,0.9,0.9c0.4,0.4,0.7,0.7,1.1,1.1c0,0,0,0,0.1,0.1c0.3,0.4,0.7,0.7,1,1.1
			c0.2,0.2,0.3,0.4,0.5,0.5c0.2,0.3,0.5,0.5,0.7,0.8c0,0,0.1,0.1,0.1,0.1c0.3,0.3,0.6,0.7,0.9,1c0.4,0.5,0.8,1,1.3,1.5v-7.8
			C148.5,51.4,147.8,50.7,147.1,50z M89.9,71c-0.1,0-0.1,0-0.2,0v0.8c0,0.5,0.7,0.5,0.8,0.1c0,0,0,0,0,0c0-0.2,0.1-0.4,0.1-0.6
			c0,0-0.1,0-0.1,0C90.3,71.1,90.1,71.1,89.9,71z M142.1,130.4c-0.1-0.7-0.1-1.4-0.2-2c0-0.3-0.1-0.7-0.1-1v0
			c-0.1-0.4-0.1-0.8-0.2-1.2c-0.1-0.4-0.1-0.8-0.2-1.2c-0.1-0.4-0.1-0.8-0.2-1.2c0,0,0-0.1,0-0.1c-0.1-0.4-0.1-0.7-0.2-1.1
			c0-0.1,0-0.2-0.1-0.3c-0.1-0.3-0.1-0.6-0.2-0.8c-0.1-0.5-0.3-1.1-0.4-1.6c-0.1-0.3-0.1-0.6-0.2-0.8c-0.1-0.4-0.2-0.9-0.4-1.3
			c-0.2-0.8-0.5-1.6-0.8-2.5c-0.1-0.3-0.2-0.5-0.3-0.8c-0.1-0.3-0.2-0.6-0.3-0.8c-0.1-0.3-0.2-0.5-0.3-0.8c-0.5-1.4-1.1-2.7-1.7-4.1
			c-0.1-0.2-0.2-0.5-0.3-0.7c-0.8-1.6-1.6-3.2-2.5-4.7c-0.1-0.2-0.2-0.4-0.4-0.6c-0.4-0.6-0.7-1.2-1.1-1.8c-0.1-0.2-0.3-0.4-0.4-0.6
			c-0.3-0.5-0.6-0.9-0.9-1.4c-0.3-0.4-0.6-0.8-0.8-1.2c-0.1-0.2-0.3-0.4-0.5-0.6c-0.9-1.3-1.9-2.5-2.9-3.7c-0.2-0.2-0.4-0.4-0.6-0.7
			c-1.7-2-3.5-3.8-5.4-5.6c-0.2-0.2-0.4-0.4-0.6-0.5c-0.7-0.6-1.3-1.2-2-1.8c-0.2-0.2-0.4-0.4-0.7-0.6c0,0,0,0,0,0
			c-0.4-0.4-0.9-0.7-1.3-1.1c-0.2-0.2-0.5-0.4-0.7-0.5c-0.2-0.2-0.5-0.4-0.7-0.5c-0.2-0.2-0.5-0.3-0.7-0.5c-0.5-0.4-1-0.7-1.5-1.1
			c-0.7-0.5-1.4-0.9-2.1-1.3c-0.2-0.2-0.5-0.3-0.7-0.5c-0.2-0.2-0.5-0.3-0.8-0.4c-0.5-0.3-1-0.6-1.5-0.9c-0.3-0.1-0.5-0.3-0.8-0.4
			c-0.3-0.1-0.5-0.3-0.8-0.4c0,0,0,0,0,0c-0.5-0.2-0.9-0.5-1.4-0.7c-0.3-0.2-0.7-0.3-1-0.5c-0.2-0.1-0.5-0.2-0.7-0.3
			c-0.3-0.1-0.5-0.2-0.8-0.4c-0.2-0.1-0.5-0.2-0.7-0.3c-0.2-0.1-0.5-0.2-0.7-0.3c-0.3-0.1-0.6-0.2-0.9-0.4c-0.3-0.1-0.6-0.2-0.9-0.3
			c-0.6-0.2-1.2-0.4-1.8-0.7c0,0-0.1,0-0.1,0c-0.3-0.1-0.6-0.2-0.9-0.3c-0.1,0-0.1,0-0.2-0.1c-0.4-0.1-0.7-0.2-1.1-0.3
			c-0.4-0.1-0.7-0.2-1.1-0.3c-0.4-0.1-0.8-0.2-1.1-0.3c-0.4-0.1-0.9-0.2-1.3-0.3c0,0-0.1,0-0.1,0c-0.2,0-0.4-0.1-0.6-0.1
			c-0.1,0-0.1,0-0.2,0c-0.1,0-0.1,0-0.2,0c-0.4-0.1-0.8-0.2-1.2-0.3c0,0,0,0,0,0c-1.3-0.3-2.7-0.5-4-0.7c-0.5-0.1-1-0.1-1.5-0.2
			c-1.7-0.2-3.4-0.4-5.2-0.4c-0.2,0-0.4,0-0.6,0c-0.5,0-1,0-1.5,0c-0.3,0-0.7,0-1,0c-0.4,0-0.8,0-1.1,0c-0.4,0-0.8,0-1.3,0
			c0,0-0.1,0-0.1,0c-0.4,0-0.7,0-1.1,0c-0.3,0-0.7,0-1,0.1c-0.1,0-0.3,0-0.4,0c-0.3,0-0.6,0-0.9,0.1c-0.3,0-0.7,0.1-1,0.1
			c0,0-0.1,0-0.1,0c0,0-0.1,0-0.1,0c-0.2,0-0.5,0-0.7,0.1c-0.2,0-0.4,0-0.6,0.1c-0.3,0-0.6,0.1-0.9,0.1C65,70,64.8,70,64.6,70
			c-0.3,0-0.6,0.1-0.8,0.1c0,0-0.1,0-0.1,0c-0.5,0.1-0.9,0.2-1.4,0.2c-0.4,0.1-0.8,0.1-1.1,0.2c-0.2,0-0.3,0.1-0.5,0.1
			c-0.2,0-0.4,0.1-0.6,0.1c-0.3,0.1-0.5,0.1-0.8,0.2c-1.5,0.3-2.9,0.7-4.3,1.1c-0.2,0.1-0.5,0.1-0.7,0.2c-0.2,0.1-0.4,0.1-0.6,0.2
			c-0.3,0.1-0.6,0.2-1,0.3c-0.2,0.1-0.4,0.1-0.6,0.2c-0.1,0-0.2,0.1-0.3,0.1c-0.1,0-0.2,0.1-0.3,0.1c-0.2,0.1-0.4,0.1-0.6,0.2
			c-0.3,0.1-0.6,0.2-0.9,0.4c-0.2,0.1-0.5,0.2-0.7,0.3c-0.2,0.1-0.5,0.2-0.7,0.3c-0.3,0.1-0.5,0.2-0.8,0.4c-0.3,0.1-0.5,0.2-0.8,0.4
			c-0.1,0-0.1,0.1-0.2,0.1c-0.5,0.2-0.9,0.4-1.4,0.7c-0.5,0.3-1.1,0.5-1.6,0.8c-0.3,0.1-0.5,0.3-0.8,0.4c-0.2,0.1-0.4,0.2-0.6,0.3
			c-1.1,0.6-2.1,1.2-3.1,1.8c-0.2,0.1-0.4,0.3-0.7,0.4c-0.1,0.1-0.2,0.1-0.3,0.2c-0.2,0.1-0.4,0.2-0.6,0.4c-0.2,0.2-0.5,0.3-0.7,0.5
			c-0.2,0.2-0.5,0.3-0.7,0.5c-0.2,0.2-0.5,0.3-0.7,0.5c-0.2,0.1-0.4,0.3-0.6,0.4c-1,0.7-2,1.5-3,2.3c-0.2,0.2-0.4,0.3-0.6,0.5
			c-1,0.8-1.9,1.6-2.8,2.5c-0.2,0.1-0.3,0.3-0.5,0.4c-0.2,0.2-0.4,0.4-0.6,0.6c-0.2,0.2-0.4,0.4-0.6,0.6c-0.2,0.2-0.4,0.4-0.6,0.6
			c-0.2,0.2-0.4,0.5-0.7,0.7c-0.4,0.4-0.8,0.8-1.1,1.2c-0.4,0.4-0.8,0.9-1.2,1.3c-0.4,0.4-0.8,0.9-1.1,1.4c-0.2,0.2-0.4,0.5-0.6,0.7
			c0,0,0,0-0.1,0.1c-0.3,0.4-0.7,0.9-1,1.3c-0.4,0.5-0.7,0.9-1,1.4c-0.1,0.2-0.3,0.4-0.4,0.6c-0.2,0.3-0.4,0.6-0.6,0.8
			c-0.2,0.2-0.3,0.5-0.5,0.7c-0.3,0.5-0.7,1-1,1.5c-0.1,0.2-0.3,0.5-0.4,0.7c-0.1,0.2-0.3,0.5-0.4,0.7c-0.9,1.6-1.8,3.2-2.6,4.8
			c-0.1,0.2-0.2,0.5-0.4,0.7c-0.1,0.2-0.2,0.5-0.3,0.7c-0.1,0.3-0.3,0.6-0.4,0.9c-0.1,0.3-0.2,0.5-0.3,0.8c-0.2,0.5-0.4,1.1-0.6,1.6
			c-0.1,0.2-0.1,0.3-0.2,0.5c-0.2,0.4-0.3,0.8-0.5,1.3c0,0.1,0,0.1-0.1,0.2c-0.1,0.2-0.1,0.4-0.2,0.6c0,0,0,0,0,0.1
			c-0.1,0.2-0.2,0.5-0.2,0.7c-0.1,0.3-0.2,0.6-0.3,0.9c-0.1,0.3-0.2,0.6-0.3,0.8c-0.1,0.4-0.2,0.8-0.3,1.2c-0.1,0.4-0.2,0.8-0.3,1.2
			c0,0.1,0,0.1,0,0.2c-0.1,0.3-0.2,0.6-0.2,0.9c0,0.1-0.1,0.3-0.1,0.4c-0.1,0.3-0.2,0.6-0.2,1c-0.1,0.4-0.2,0.7-0.2,1.1
			c-0.1,0.4-0.2,0.8-0.2,1.2c0,0,0,0,0,0.1c-0.1,0.4-0.1,0.7-0.2,1.1c0,0.1,0,0.1,0,0.2c-0.1,0.4-0.1,0.8-0.2,1.1
			c0,0.3-0.1,0.7-0.1,1c0,0.3-0.1,0.5-0.1,0.8c0,0.2,0,0.4-0.1,0.5c-0.1,0.6-0.1,1.1-0.2,1.7c0,0,0,0,0,0c0,0.1,0.1,0.2,0.1,0.2
			c0.1,0.2,0.2,0.5,0.4,0.7c0.1,0.2,0.2,0.4,0.3,0.6c0.1,0.2,0.2,0.4,0.3,0.6c0.2,0.4,0.4,0.8,0.6,1.1c0.2,0.4,0.5,0.8,0.7,1.3
			c0,0,0,0,0,0c0.2,0.4,0.5,0.9,0.7,1.3c0.2,0.4,0.5,0.8,0.7,1.2c0,0.1,0.1,0.2,0.1,0.2c0.2,0.3,0.4,0.7,0.6,1
			c0.1,0.1,0.1,0.2,0.2,0.3c0.1,0.1,0.2,0.3,0.2,0.4c0,0,0,0,0,0c-0.1-1.1-0.1-2.2-0.1-3.2c0-3,0.2-5.9,0.6-8.8c0.4-3.1,1.1-6.1,2-9
			c0.3-1.1,0.7-2.2,1.1-3.3c5.7-15.9,17.6-28.8,32.8-35.8c0.5-0.2,0.9-0.4,1.4-0.6c1.4-0.6,2.9-1.2,4.4-1.7c0.4-0.2,0.9-0.3,1.3-0.5
			c2.2-0.7,4.5-1.3,6.8-1.8c0.5-0.1,0.9-0.2,1.4-0.3c1.6-0.3,3.2-0.5,4.9-0.7c1.6-0.2,3.2-0.2,4.8-0.3c0.4,0,0.8,0,1.3,0
			c0.4,0,0.8,0,1.2,0c4.3,0.1,8.5,0.6,12.5,1.5c0.7,0.2,1.4,0.3,2.1,0.5c1.5,0.4,3,0.8,4.5,1.3c1.8,0.6,3.5,1.3,5.2,2.1
			c0.5,0.2,0.9,0.4,1.4,0.6c14.9,7.1,26.6,19.9,32.2,35.6c0.4,1.1,0.7,2.2,1.1,3.3c0.9,2.9,1.5,6,2,9c0.4,2.9,0.6,5.8,0.6,8.8
			c0,1.1,0,2.2-0.1,3.2c0.2-0.4,0.5-0.7,0.7-1.1c0.2-0.4,0.5-0.7,0.7-1.1c0.2-0.4,0.4-0.7,0.7-1.1c0.4-0.7,0.8-1.5,1.2-2.3
			c0.2-0.4,0.4-0.8,0.6-1.1c0,0,0,0,0,0c0.2-0.4,0.4-0.8,0.6-1.2c0.2-0.4,0.4-0.8,0.6-1.2C142.2,131,142.1,130.7,142.1,130.4z"/>
		<path class="st2" d="M149.2,12v40.1c-0.7-0.7-1.4-1.4-2-2.1C127.8,30.6,102,20,74.6,20S21.4,30.6,2,50c-0.7,0.7-1.4,1.4-2,2.1V12
			c0-1.2,0.2-2.4,0.5-3.6c0,0,0,0,0,0c0.1-0.2,0.1-0.4,0.2-0.6c0.6-1.7,1.6-3.1,2.8-4.4C5.7,1.3,8.7,0,12,0h125.1
			C143.8,0,149.2,5.4,149.2,12z"/>
		<path class="st3" d="M66.5,142c-0.3-0.2-0.6-0.4-0.8-0.6l0.1,0.1C66,141.6,66.2,141.8,66.5,142z"/>
		<path class="st3" d="M78.3,145.3c-0.3,0.2-0.6,0.5-0.9,0.7v0C77.7,145.8,78,145.5,78.3,145.3z"/>
		<path class="st3" d="M81.1,143.2c-0.2,0.1-0.3,0.3-0.5,0.4c-0.1,0.1-0.3,0.2-0.4,0.3c0.1-0.1,0.3-0.2,0.5-0.3
			C80.8,143.4,80.9,143.3,81.1,143.2z"/>
		<path class="st3" d="M94.1,134.5c-0.2,0.1-0.3,0.2-0.5,0.3c-0.1,0.1-0.2,0.1-0.3,0.2C93.6,134.8,93.8,134.6,94.1,134.5z"/>
		<path class="st4" d="M92.6,106.4"/>
		<path class="st4" d="M92.6,107"/>
		<path class="st5" d="M49.1,111.8"/>
		<path class="st3" d="M0.1,10.5c0,0.1,0,0.2,0,0.3c0,0.1,0,0.2,0,0.3c0-0.2,0-0.3,0-0.5c0-0.2,0-0.3,0.1-0.5
			C0.1,10.3,0.1,10.4,0.1,10.5z M0,11.7c0,0.1,0,0.1,0,0.2C0,11.9,0,12,0,12v87.8c0,0.1,0,0.1,0,0.2V12c0-0.2,0-0.3,0-0.5
			C0,11.6,0,11.7,0,11.7z M0,101.8c0-0.1,0-0.3,0-0.4C0,101.5,0,101.7,0,101.8c0,0.1,0,0.3,0,0.4C0,102.1,0,102,0,101.8z M0.2,105.8
			c0-0.3-0.1-0.7-0.1-1C0.2,105.2,0.2,105.5,0.2,105.8c0,0.2,0,0.4,0,0.6C0.3,106.2,0.3,106,0.2,105.8z M0.3,107
			c0-0.2,0-0.4-0.1-0.6C0.3,106.6,0.3,106.8,0.3,107c0,0.3,0.1,0.7,0.1,1C0.4,107.7,0.4,107.3,0.3,107z M1,111.9
			C1,111.8,1,111.8,1,111.9C1,111.8,1,111.8,1,111.9c0,0.2,0,0.3,0.1,0.5C1,112.2,1,112,1,111.9z"/>
		<g>
			<path class="st6" d="M49.6,89.6L49.6,89.6"/>
		</g>
		<path class="st7" d="M149.2,52.1c-0.7-0.7-1.4-1.4-2-2.1c-0.5-0.5-0.9-0.9-1.4-1.4c-0.3-0.3-0.7-0.6-1-1l0,0c0,0,0,0,0,0
			c-0.2-0.2-0.5-0.4-0.7-0.7c-0.3-0.3-0.6-0.5-0.8-0.8c-0.5-0.4-0.9-0.8-1.4-1.2c-0.3-0.2-0.5-0.4-0.8-0.6c-0.3-0.2-0.5-0.4-0.8-0.6
			c-0.5-0.4-1-0.8-1.5-1.3c-0.3-0.2-0.5-0.4-0.8-0.6c-0.2-0.2-0.4-0.3-0.6-0.5c-1.2-0.9-2.4-1.8-3.6-2.6c-0.2-0.1-0.4-0.3-0.6-0.4
			c-0.6-0.4-1.2-0.8-1.8-1.2c-0.3-0.2-0.6-0.4-0.9-0.6c-0.2-0.1-0.5-0.3-0.7-0.4c-0.2-0.1-0.4-0.3-0.7-0.4c-1.4-0.9-2.8-1.7-4.2-2.5
			c-0.6-0.3-1.1-0.6-1.7-0.9c-0.2-0.1-0.5-0.3-0.7-0.4c-0.4-0.2-0.8-0.4-1.2-0.6c-0.5-0.3-1.1-0.5-1.6-0.8c-0.2-0.1-0.4-0.2-0.7-0.3
			c-1-0.5-2-1-3.1-1.4c-0.3-0.1-0.7-0.3-1-0.4c-0.4-0.2-0.8-0.3-1.1-0.5c-0.4-0.2-0.7-0.3-1.1-0.5c-0.4-0.2-0.8-0.3-1.2-0.5
			c-0.4-0.1-0.8-0.3-1.1-0.4c-0.5-0.2-0.9-0.3-1.4-0.5c-0.7-0.3-1.4-0.5-2.1-0.7c-0.4-0.1-0.8-0.3-1.2-0.4c-0.6-0.2-1.3-0.4-2-0.6
			c-0.1,0-0.2-0.1-0.3-0.1c-0.2-0.1-0.4-0.1-0.6-0.2c-0.7-0.2-1.3-0.4-2-0.5c-0.3-0.1-0.7-0.2-1-0.3c-0.2,0-0.3-0.1-0.5-0.1
			c-0.3-0.1-0.6-0.2-0.9-0.2c0,0-0.1,0-0.1,0c-0.3-0.1-0.6-0.1-0.9-0.2c-0.2-0.1-0.4-0.1-0.7-0.2c-0.3-0.1-0.6-0.1-1-0.2
			c-0.3-0.1-0.6-0.1-1-0.2c-0.6-0.1-1.3-0.3-1.9-0.4c-0.3-0.1-0.6-0.1-1-0.2c-0.6-0.1-1.3-0.2-1.9-0.3c-0.3,0-0.6-0.1-1-0.1
			c-0.2,0-0.4-0.1-0.6-0.1c-0.2,0-0.4-0.1-0.6-0.1c-0.1,0-0.2,0-0.2,0c-0.5-0.1-1.1-0.1-1.6-0.2c0,0,0,0-0.1,0
			c-0.5-0.1-1-0.1-1.6-0.2c-0.4,0-0.8-0.1-1.3-0.1c-0.2,0-0.4,0-0.6,0c-0.3,0-0.5,0-0.8-0.1c-0.3,0-0.5,0-0.8-0.1
			c-0.2,0-0.3,0-0.5,0c-0.3,0-0.6,0-0.9-0.1c-0.5,0-1,0-1.5-0.1c-0.1,0-0.2,0-0.4,0c-0.5,0-0.9,0-1.4,0h-0.1c-0.5,0-1.1,0-1.6,0
			c-0.3,0-0.7,0-1,0c-0.4,0-0.9,0-1.3,0h-0.1c-0.4,0-0.8,0-1.2,0c-0.3,0-0.7,0-1,0c0,0-0.1,0-0.1,0c-0.3,0-0.5,0-0.8,0
			c-0.2,0-0.5,0-0.7,0c-0.2,0-0.5,0-0.7,0c-0.5,0-0.9,0.1-1.4,0.1c0,0-0.1,0-0.1,0c-0.5,0-1,0.1-1.6,0.1h0c-0.1,0-0.2,0-0.3,0
			c-0.2,0-0.4,0-0.6,0.1c0,0-0.1,0-0.1,0c-0.5,0-0.9,0.1-1.4,0.2c-0.1,0-0.1,0-0.2,0c-0.3,0-0.6,0.1-0.9,0.1c-0.3,0-0.6,0.1-0.9,0.1
			c-0.3,0-0.7,0.1-1,0.1c-0.4,0.1-0.8,0.1-1.2,0.2c-0.1,0-0.1,0-0.2,0c-0.4,0.1-0.8,0.1-1.2,0.2c-0.4,0.1-0.7,0.1-1.1,0.2
			c-0.5,0.1-0.9,0.2-1.4,0.3c-0.3,0.1-0.5,0.1-0.8,0.2c-0.6,0.1-1.2,0.3-1.9,0.4c-0.3,0.1-0.6,0.1-0.9,0.2c-0.4,0.1-0.9,0.2-1.3,0.3
			c-0.4,0.1-0.8,0.2-1.2,0.3c-0.8,0.2-1.6,0.4-2.5,0.7c-0.4,0.1-0.8,0.2-1.1,0.3c-0.4,0.1-0.8,0.2-1.2,0.4c0,0,0,0,0,0
			c-0.4,0.1-0.8,0.2-1.1,0.4c-0.4,0.1-0.8,0.3-1.2,0.4c-0.4,0.1-0.8,0.3-1.2,0.4c-0.4,0.1-0.7,0.3-1.1,0.4c-0.1,0-0.1,0-0.2,0.1
			c-0.6,0.2-1.3,0.5-1.9,0.7c-0.5,0.2-1,0.4-1.5,0.6c-0.4,0.2-0.8,0.3-1.1,0.5c-0.4,0.2-0.8,0.3-1.1,0.5c-0.4,0.2-0.8,0.3-1.1,0.5
			c-0.4,0.2-0.8,0.3-1.1,0.5c-0.4,0.2-0.8,0.4-1.1,0.5c-0.8,0.4-1.6,0.8-2.5,1.2c-0.2,0.1-0.5,0.2-0.7,0.4c-0.2,0.1-0.4,0.2-0.6,0.3
			c-0.6,0.3-1.2,0.6-1.8,1c-0.7,0.4-1.5,0.8-2.2,1.3c-0.3,0.2-0.6,0.3-0.8,0.5c-1,0.6-2,1.3-3,1.9c-0.3,0.2-0.6,0.4-0.8,0.6
			c-0.3,0.2-0.5,0.3-0.8,0.5c-0.1,0.1-0.2,0.1-0.3,0.2c-0.2,0.1-0.4,0.3-0.6,0.4c-0.6,0.4-1.1,0.8-1.6,1.2c-0.3,0.2-0.5,0.4-0.8,0.6
			c-0.8,0.6-1.6,1.2-2.4,1.9c-0.3,0.2-0.5,0.4-0.8,0.6c0,0,0,0,0,0c-0.3,0.2-0.5,0.4-0.8,0.6c-0.3,0.2-0.5,0.4-0.8,0.7
			c-0.3,0.2-0.5,0.4-0.8,0.7c-0.5,0.4-1,0.9-1.5,1.4c-0.3,0.2-0.5,0.5-0.8,0.7c-0.2,0.2-0.5,0.5-0.7,0.7c0,0,0,0,0,0
			c-0.2,0.2-0.5,0.4-0.7,0.6c-0.3,0.3-0.6,0.5-0.8,0.8C2.7,49.4,2.4,49.7,2,50c-0.7,0.7-1.4,1.4-2,2.1l0,0v7.8l0,0
			c0.4-0.5,0.9-1,1.3-1.5c0.2-0.3,0.5-0.5,0.7-0.8c0.1-0.2,0.3-0.3,0.4-0.5c0.1-0.2,0.3-0.3,0.5-0.5c0.2-0.2,0.4-0.4,0.6-0.6
			c0.3-0.4,0.7-0.7,1-1.1c0.5-0.5,0.9-1,1.4-1.4c0.2-0.2,0.4-0.4,0.6-0.5c0.2-0.2,0.4-0.4,0.7-0.6c0.2-0.2,0.5-0.5,0.7-0.7
			c0.4-0.4,0.8-0.7,1.2-1.1c0.3-0.3,0.6-0.6,0.9-0.8c0,0,0,0,0.1-0.1c0.3-0.3,0.6-0.6,0.9-0.8c0.3-0.3,0.6-0.5,0.9-0.8
			c0.4-0.3,0.8-0.7,1.2-1c0.3-0.2,0.6-0.5,0.9-0.7c0.3-0.2,0.5-0.4,0.8-0.6c0.5-0.4,1-0.7,1.5-1.1c0.3-0.2,0.6-0.4,0.9-0.6
			c1-0.7,2-1.4,3-2.1c0.2-0.2,0.5-0.3,0.7-0.5c0.2-0.1,0.4-0.3,0.6-0.4c0.3-0.2,0.5-0.3,0.8-0.5c0.7-0.5,1.4-0.9,2.2-1.3
			c0.2-0.1,0.5-0.3,0.7-0.4c0.3-0.2,0.6-0.3,0.9-0.5c2.1-1.2,4.2-2.3,6.4-3.4c0.3-0.1,0.5-0.3,0.8-0.4c0,0,0.1,0,0.1,0
			c0.3-0.1,0.6-0.3,0.9-0.4c1-0.4,2-0.9,3-1.3c0.3-0.1,0.5-0.2,0.8-0.3c0.3-0.1,0.6-0.3,1-0.4s0.6-0.3,1-0.4
			c0.2-0.1,0.4-0.2,0.7-0.2c0.3-0.1,0.6-0.2,0.9-0.3c0.3-0.1,0.6-0.2,0.8-0.3c1-0.3,1.9-0.7,2.9-1c0.3-0.1,0.6-0.2,0.9-0.3
			c0.1,0,0.2-0.1,0.3-0.1c0.4-0.1,0.8-0.2,1.1-0.3c0.4-0.1,0.8-0.2,1.2-0.3c0.4-0.1,0.7-0.2,1.1-0.3c0.2-0.1,0.4-0.1,0.6-0.2
			c0.3-0.1,0.6-0.1,0.8-0.2c0.1,0,0.1,0,0.2,0c0.3-0.1,0.6-0.1,0.9-0.2c0.8-0.2,1.7-0.4,2.5-0.6c0.3-0.1,0.7-0.1,1-0.2
			c0.3-0.1,0.7-0.1,1-0.2c0.7-0.1,1.4-0.2,2.1-0.4c0.3-0.1,0.7-0.1,1-0.2c0.3-0.1,0.7-0.1,1-0.1c0.4-0.1,0.7-0.1,1.1-0.1
			c0.5-0.1,0.9-0.1,1.4-0.2c0.4,0,0.9-0.1,1.3-0.1c0.4,0,0.8-0.1,1.2-0.1c0.3,0,0.5,0,0.8-0.1c0.5,0,0.9-0.1,1.4-0.1
			c0.2,0,0.5,0,0.7,0c0.5,0,0.9,0,1.4-0.1c0.4,0,0.8,0,1.3,0h0c0.1,0,0.2,0,0.3,0c0.3,0,0.5,0,0.8,0c0.1,0,0.2,0,0.3,0
			c0.1,0,0.3,0,0.4,0c0.4,0,0.7,0,1.1,0c0.5,0,0.9,0,1.4,0c0.4,0,0.9,0,1.3,0c0.5,0,1,0,1.5,0.1c0.4,0,0.9,0,1.3,0.1h0
			c0.4,0,0.7,0,1.1,0.1c0,0,0,0,0.1,0c0.3,0,0.6,0,0.8,0.1c0.6,0,1.2,0.1,1.7,0.1c0.2,0,0.5,0,0.7,0.1c0.8,0.1,1.7,0.2,2.5,0.3
			c0.3,0,0.5,0.1,0.8,0.1c0.2,0,0.5,0.1,0.7,0.1c0.2,0,0.5,0.1,0.7,0.1c0.3,0,0.6,0.1,0.9,0.1c0.4,0.1,0.7,0.1,1,0.2
			c0.3,0,0.6,0.1,0.9,0.2c0.3,0.1,0.7,0.1,1,0.2c0.2,0,0.5,0.1,0.7,0.1c0.4,0.1,0.7,0.2,1.1,0.2c0.4,0.1,0.7,0.2,1.1,0.2
			c0.4,0.1,0.7,0.2,1.1,0.3c0.4,0.1,0.7,0.2,1.1,0.3c0.4,0.1,0.9,0.2,1.3,0.3c0.1,0,0.1,0,0.2,0c0,0,0,0,0,0c0.1,0,0.2,0,0.2,0.1
			c0.1,0,0.2,0.1,0.3,0.1c0.4,0.1,0.7,0.2,1,0.3c0.6,0.2,1.2,0.4,1.8,0.6c0.4,0.1,0.8,0.2,1.1,0.4c0.1,0,0.2,0.1,0.3,0.1
			c0.4,0.1,0.8,0.3,1.2,0.4c0.1,0,0.2,0.1,0.3,0.1c0.4,0.1,0.8,0.3,1.2,0.4c0.6,0.2,1.1,0.4,1.7,0.6c1,0.4,2,0.8,3,1.2
			c2,0.8,3.9,1.7,5.8,2.6c0.1,0,0.2,0.1,0.2,0.1c0.4,0.2,0.7,0.4,1.1,0.6c0.1,0.1,0.2,0.1,0.3,0.2c0.4,0.2,0.8,0.4,1.2,0.6
			c0,0,0,0,0.1,0c0.5,0.3,0.9,0.5,1.4,0.8c0.5,0.3,1.1,0.6,1.6,0.9c0.3,0.2,0.7,0.4,1,0.6c0.1,0.1,0.2,0.1,0.3,0.2
			c0.3,0.2,0.6,0.4,0.9,0.5c0.1,0.1,0.3,0.2,0.4,0.3c0.4,0.2,0.8,0.5,1.1,0.7c1,0.6,2,1.3,3,2c0.2,0.2,0.5,0.3,0.7,0.5
			c0.3,0.2,0.6,0.4,0.9,0.6c0.3,0.2,0.6,0.5,0.9,0.7c0.9,0.7,1.8,1.4,2.7,2.1c0.3,0.2,0.5,0.4,0.8,0.7c0,0,0.1,0.1,0.1,0.1
			c0.3,0.3,0.6,0.5,0.9,0.8c0.1,0.1,0.3,0.2,0.4,0.4c1.1,0.9,2.1,1.9,3.2,2.8c0.3,0.3,0.5,0.5,0.8,0.8c0,0,0.1,0,0.1,0.1
			c0.2,0.2,0.4,0.4,0.6,0.6c0.3,0.3,0.6,0.6,0.9,0.9c0.4,0.4,0.7,0.7,1.1,1.1c0,0,0,0,0.1,0.1c0.3,0.4,0.7,0.7,1,1.1
			c0.2,0.2,0.3,0.4,0.5,0.5c0.2,0.3,0.5,0.5,0.7,0.8c0,0,0.1,0.1,0.1,0.1c0.3,0.3,0.6,0.7,0.9,1c0.4,0.5,0.8,1,1.3,1.5l0,0
			L149.2,52.1L149.2,52.1z"/>
		<path class="st8" d="M149.2,59.9v39.9c0,0.7,0,1.4,0,2c0,0.2,0,0.3,0,0.5c0,0.2,0,0.3,0,0.5c0,0.2,0,0.4,0,0.6c0,0.1,0,0.2,0,0.3
			c0,0.1,0,0.2,0,0.3c0,0.3,0,0.6-0.1,0.9c0,0.2,0,0.3,0,0.5c0,0.2,0,0.3,0,0.5c0,0.2,0,0.4,0,0.6c0,0.2,0,0.4-0.1,0.6
			c-0.1,0.6-0.1,1.2-0.2,1.9c-0.1,0.6-0.2,1.2-0.3,1.8c0,0.3-0.1,0.6-0.2,1c0,0,0,0.1,0,0.1c-0.1,0.6-0.2,1.2-0.3,1.9
			c-0.1,0.6-0.2,1.2-0.4,1.8c-0.8,3.9-2,7.7-3.4,11.3c-0.5,1.3-1,2.5-1.6,3.8c-0.1,0.2-0.2,0.4-0.3,0.7
			c-2.9-34.7-32.1-62.1-67.6-62.1C39.1,69.3,9.9,96.6,7,131.4c-0.1-0.2-0.2-0.5-0.3-0.7c-0.6-1.2-1.1-2.5-1.6-3.8
			c-1.4-3.6-2.6-7.4-3.4-11.3v0c-0.2-0.9-0.4-1.8-0.5-2.8c0-0.2-0.1-0.3-0.1-0.5c0-0.2-0.1-0.3-0.1-0.5c0,0,0-0.1,0-0.1
			c0,0,0-0.1,0-0.1c0-0.2-0.1-0.5-0.1-0.7c-0.1-1-0.3-2-0.4-3c0-0.3-0.1-0.7-0.1-1c0-0.2,0-0.4-0.1-0.6c0-0.2,0-0.4,0-0.6
			c0-0.3-0.1-0.7-0.1-1c0-0.3,0-0.7-0.1-1c0-0.3,0-0.6,0-0.9c0-0.2,0-0.4,0-0.6c0-0.1,0-0.3,0-0.4c0-0.1,0-0.3,0-0.4
			c0-0.4,0-0.8,0-1.2c0-0.1,0-0.3,0-0.4V59.9c17.9-21.3,44.7-34.8,74.6-34.8S131.3,38.7,149.2,59.9z"/>
		<path class="st7" d="M138.3,113.7c-0.1-0.3-0.2-0.5-0.3-0.8c-0.5-1.4-1.1-2.7-1.7-4.1c-0.1-0.2-0.2-0.5-0.3-0.7
			c-0.8-1.6-1.6-3.2-2.5-4.7c-0.1-0.2-0.2-0.4-0.4-0.6c-0.4-0.6-0.7-1.2-1.1-1.8c-0.1-0.2-0.3-0.4-0.4-0.6c-0.3-0.5-0.6-0.9-0.9-1.4
			c-0.3-0.4-0.6-0.8-0.8-1.2c-0.1-0.2-0.3-0.4-0.5-0.6c-0.9-1.3-1.9-2.5-2.9-3.7c-0.2-0.2-0.4-0.4-0.6-0.7c-1.7-2-3.5-3.8-5.4-5.6
			c-0.2-0.2-0.4-0.4-0.6-0.5c-0.7-0.6-1.3-1.2-2-1.8c-0.2-0.2-0.4-0.4-0.7-0.6c0,0,0,0,0,0c-0.4-0.4-0.9-0.7-1.3-1.1
			c-0.2-0.2-0.5-0.4-0.7-0.5c-0.2-0.2-0.5-0.4-0.7-0.5c-0.2-0.2-0.5-0.3-0.7-0.5c-0.5-0.4-1-0.7-1.5-1.1c-0.7-0.5-1.4-0.9-2.1-1.3
			c-0.2-0.2-0.5-0.3-0.7-0.5c-0.2-0.2-0.5-0.3-0.8-0.4c-0.5-0.3-1-0.6-1.5-0.9c-0.3-0.1-0.5-0.3-0.8-0.4c-0.3-0.1-0.5-0.3-0.8-0.4
			c0,0,0,0,0,0c-0.5-0.2-0.9-0.5-1.4-0.7c-0.3-0.2-0.7-0.3-1-0.5c-0.2-0.1-0.5-0.2-0.7-0.3c-0.3-0.1-0.5-0.2-0.8-0.4
			c-0.2-0.1-0.5-0.2-0.7-0.3c-0.2-0.1-0.5-0.2-0.7-0.3c-0.3-0.1-0.6-0.2-0.9-0.4c-0.3-0.1-0.6-0.2-0.9-0.3c-0.6-0.2-1.2-0.4-1.8-0.7
			c0,0-0.1,0-0.1,0c-0.3-0.1-0.6-0.2-0.9-0.3c-0.1,0-0.1,0-0.2-0.1c-0.4-0.1-0.7-0.2-1.1-0.3c-0.4-0.1-0.7-0.2-1.1-0.3
			c-0.4-0.1-0.8-0.2-1.1-0.3c-0.4-0.1-0.9-0.2-1.3-0.3c0,0-0.1,0-0.1,0c-0.2,0-0.4-0.1-0.6-0.1c-0.1,0-0.1,0-0.2,0
			c-0.1,0-0.1,0-0.2,0c-0.4-0.1-0.8-0.2-1.2-0.3c0,0,0,0,0,0c-1.3-0.3-2.7-0.5-4-0.7c-0.5-0.1-1-0.1-1.5-0.2
			c-1.7-0.2-3.4-0.4-5.2-0.4c-0.2,0-0.4,0-0.6,0c-0.5,0-1,0-1.5,0c-0.3,0-0.7,0-1,0c-0.4,0-0.8,0-1.1,0c-0.4,0-0.8,0-1.3,0
			c0,0-0.1,0-0.1,0c-0.4,0-0.7,0-1.1,0c-0.3,0-0.7,0-1,0.1c-0.1,0-0.3,0-0.4,0c-0.3,0-0.6,0-0.9,0.1c-0.3,0-0.7,0.1-1,0.1
			c0,0-0.1,0-0.1,0c0,0-0.1,0-0.1,0c-0.2,0-0.5,0-0.7,0.1c-0.2,0-0.4,0-0.6,0.1c-0.3,0-0.6,0.1-0.9,0.1C65,70,64.8,70,64.6,70
			c-0.3,0-0.6,0.1-0.8,0.1c0,0-0.1,0-0.1,0c-0.5,0.1-0.9,0.2-1.4,0.2c-0.4,0.1-0.8,0.1-1.1,0.2c-0.2,0-0.3,0.1-0.5,0.1
			c-0.2,0-0.4,0.1-0.6,0.1c-0.3,0.1-0.5,0.1-0.8,0.2c-1.5,0.3-2.9,0.7-4.3,1.1c-0.2,0.1-0.5,0.1-0.7,0.2c-0.2,0.1-0.4,0.1-0.6,0.2
			c-0.3,0.1-0.6,0.2-1,0.3c-0.2,0.1-0.4,0.1-0.6,0.2c-0.1,0-0.2,0.1-0.3,0.1c-0.1,0-0.2,0.1-0.3,0.1c-0.2,0.1-0.4,0.1-0.6,0.2
			c-0.3,0.1-0.6,0.2-0.9,0.4c-0.2,0.1-0.5,0.2-0.7,0.3c-0.2,0.1-0.5,0.2-0.7,0.3c-0.3,0.1-0.5,0.2-0.8,0.4c-0.3,0.1-0.5,0.2-0.8,0.4
			c-0.1,0-0.1,0.1-0.2,0.1c-0.5,0.2-0.9,0.4-1.4,0.7c-0.5,0.3-1.1,0.5-1.6,0.8c-0.3,0.1-0.5,0.3-0.8,0.4c-0.2,0.1-0.4,0.2-0.6,0.3
			c-1.1,0.6-2.1,1.2-3.1,1.8c-0.2,0.1-0.4,0.3-0.7,0.4c-0.1,0.1-0.2,0.1-0.3,0.2c-0.2,0.1-0.4,0.2-0.6,0.4c-0.2,0.2-0.5,0.3-0.7,0.5
			c-0.2,0.2-0.5,0.3-0.7,0.5c-0.2,0.2-0.5,0.3-0.7,0.5c-0.2,0.1-0.4,0.3-0.6,0.4c-1,0.7-2,1.5-3,2.3c-0.2,0.2-0.4,0.3-0.6,0.5
			c-1,0.8-1.9,1.6-2.8,2.5c-0.2,0.1-0.3,0.3-0.5,0.4c-0.2,0.2-0.4,0.4-0.6,0.6c-0.2,0.2-0.4,0.4-0.6,0.6c-0.2,0.2-0.4,0.4-0.6,0.6
			c-0.2,0.2-0.4,0.5-0.7,0.7c-0.4,0.4-0.8,0.8-1.1,1.2c-0.4,0.4-0.8,0.9-1.2,1.3c-0.4,0.4-0.8,0.9-1.1,1.4c-0.2,0.2-0.4,0.5-0.6,0.7
			c0,0,0,0-0.1,0.1c-0.3,0.4-0.7,0.9-1,1.3c-0.4,0.5-0.7,0.9-1,1.4c-0.1,0.2-0.3,0.4-0.4,0.6c-0.2,0.3-0.4,0.6-0.6,0.8
			c-0.2,0.2-0.3,0.5-0.5,0.7c-0.3,0.5-0.7,1-1,1.5c-0.1,0.2-0.3,0.5-0.4,0.7c-0.1,0.2-0.3,0.5-0.4,0.7c-0.9,1.6-1.8,3.2-2.6,4.8
			c-0.1,0.2-0.2,0.5-0.4,0.7c-0.1,0.2-0.2,0.5-0.3,0.7c-0.1,0.3-0.3,0.6-0.4,0.9c-0.1,0.3-0.2,0.5-0.3,0.8c-0.2,0.5-0.4,1.1-0.6,1.6
			c-0.1,0.2-0.1,0.3-0.2,0.5c-0.2,0.4-0.3,0.8-0.5,1.3c0.7,0.2,1.3,0.4,2,0.6c0.5,0.1,0.9,0.3,1.4,0.4c0.5,0.2,1,0.3,1.5,0.5
			c5.7-15.9,17.6-28.8,32.8-35.8c0.5-0.2,0.9-0.4,1.4-0.6c1.4-0.6,2.9-1.2,4.4-1.7c0.4-0.2,0.9-0.3,1.3-0.5c2.2-0.7,4.5-1.3,6.8-1.8
			c0.5-0.1,0.9-0.2,1.4-0.3c1.6-0.3,3.2-0.5,4.9-0.7c1.6-0.2,3.2-0.2,4.8-0.3c0.4,0,0.8,0,1.3,0c0.4,0,0.8,0,1.2,0
			c4.3,0.1,8.5,0.6,12.5,1.5c0.7,0.2,1.4,0.3,2.1,0.5c1.5,0.4,3,0.8,4.5,1.3c1.8,0.6,3.5,1.3,5.2,2.1c0.5,0.2,0.9,0.4,1.4,0.6
			c14.9,7.1,26.6,19.9,32.2,35.6c0.5-0.2,1-0.3,1.5-0.5c0.5-0.2,0.9-0.3,1.4-0.4c0.7-0.2,1.3-0.4,2-0.6
			C138.5,114.2,138.4,113.9,138.3,113.7z M11.7,140c0.1,0.1,0.2,0.3,0.2,0.4c0,0,0,0,0,0C11.9,140.2,11.8,140.1,11.7,140z"/>
		<path class="st9" d="M136.7,128.4c-0.4-3.1-1.1-6.1-2-9c-0.3-1.1-0.7-2.2-1.1-3.3c-5.6-15.7-17.3-28.5-32.2-35.6
			c-0.5-0.2-0.9-0.4-1.4-0.6c-1.7-0.8-3.4-1.5-5.2-2.1c-1.5-0.5-2.9-0.9-4.5-1.3c-0.7-0.2-1.4-0.3-2.1-0.5
			c-4.1-0.9-8.2-1.4-12.5-1.5c-0.4,0-0.8,0-1.2,0c-0.4,0-0.8,0-1.3,0c-1.6,0-3.2,0.1-4.8,0.3c-1.6,0.2-3.3,0.4-4.9,0.7
			c-0.5,0.1-0.9,0.2-1.4,0.3c-2.3,0.5-4.6,1.1-6.8,1.8c-0.4,0.1-0.9,0.3-1.3,0.5c-1.5,0.5-3,1.1-4.4,1.7c-0.5,0.2-0.9,0.4-1.4,0.6
			c-15.2,7-27.1,20-32.8,35.8c-0.4,1.1-0.7,2.2-1.1,3.3c-0.9,2.9-1.5,6-2,9c-0.4,2.9-0.6,5.8-0.6,8.8c0,1.1,0,2.2,0.1,3.2
			c0,0,0,0,0,0c0.1,0.2,0.3,0.5,0.4,0.7c1.7,2.6,3.6,5.1,5.6,7.4c1,1.1,2,2.2,3,3.3c0.3,0.4,0.7,0.7,1,1
			c6.5,6.4,14.2,11.7,22.7,15.4c0.6,0.3,1.2,0.5,1.8,0.8h0c0.5,0.2,0.9,0.4,1.4,0.5c0.5,0.2,0.9,0.4,1.4,0.5
			c7.9,2.8,16.3,4.3,25.2,4.3c13.4,0,26-3.5,36.9-9.7c0.6-0.3,1.1-0.7,1.7-1c1.4-0.9,2.8-1.7,4.1-2.7c0.5-0.4,1.1-0.8,1.6-1.1h0
			c0.5-0.4,1-0.8,1.6-1.2c0.5-0.4,1-0.8,1.5-1.2c0.5-0.4,1-0.8,1.5-1.3c0,0,0,0,0,0c0.7-0.6,1.3-1.2,2-1.8c0.3-0.3,0.7-0.6,1-0.9
			c1.6-1.6,3.2-3.2,4.6-4.9c2-2.4,3.9-4.8,5.6-7.4c0-0.1,0.1-0.1,0.1-0.2c0.1-0.2,0.2-0.3,0.3-0.5c0,0,0,0,0,0
			c0.1-1.1,0.1-2.1,0.1-3.2C137.3,134.2,137.1,131.2,136.7,128.4z M74.6,155.1C74.6,155.1,74.6,155.1,74.6,155.1
			C74.6,155.1,74.6,155.1,74.6,155.1C74.6,155.1,74.6,155.1,74.6,155.1z"/>
		<path class="st0" d="M147.5,115.6c-0.1,0.2-0.1,0.5-0.2,0.7c-0.1,0.2-0.1,0.5-0.2,0.7c-0.4,1.7-0.9,3.4-1.4,5
			c-0.1,0.5-0.3,0.9-0.5,1.4c-0.1,0.4-0.3,0.9-0.5,1.3c0,0.1,0,0.1-0.1,0.2c-0.1,0.4-0.3,0.9-0.5,1.3c-0.1,0.2-0.2,0.5-0.3,0.7
			c-0.5,1.3-1,2.5-1.6,3.8c-0.1,0.2-0.2,0.5-0.3,0.7c-0.2,0.4-0.4,0.8-0.6,1.2c-0.2,0.4-0.4,0.8-0.6,1.2c0,0,0,0,0,0
			c-0.2,0.4-0.4,0.8-0.6,1.1c-0.4,0.8-0.8,1.5-1.2,2.3c-0.2,0.4-0.4,0.7-0.7,1.1c-0.2,0.4-0.4,0.7-0.7,1.1c-0.2,0.4-0.5,0.7-0.7,1.1
			c0,0,0,0,0,0c-0.1,0.2-0.3,0.5-0.5,0.7c-1.7,2.6-3.6,5.1-5.6,7.4c-2.4,2.7-4.9,5.3-7.6,7.6c0,0,0,0,0,0c-0.5,0.4-1,0.9-1.5,1.3
			c-0.5,0.4-1,0.8-1.5,1.2c-0.5,0.4-1,0.8-1.6,1.2h0c-0.5,0.4-1.1,0.8-1.6,1.1c-1.3,0.9-2.7,1.8-4.1,2.7c-0.6,0.3-1.1,0.7-1.7,1
			c-10.9,6.2-23.5,9.7-36.9,9.7c-8.8,0-17.3-1.5-25.2-4.3c-0.9-0.3-1.9-0.7-2.8-1.1h0c-0.6-0.3-1.2-0.5-1.8-0.8
			c-8.5-3.7-16.2-9-22.7-15.4c-1.4-1.4-2.7-2.8-4-4.3c-2-2.4-3.9-4.8-5.6-7.4c-0.2-0.2-0.3-0.5-0.5-0.7c-0.1-0.1-0.2-0.3-0.2-0.4
			c-0.1-0.1-0.1-0.2-0.2-0.3c-0.2-0.3-0.4-0.7-0.6-1c-0.1-0.1-0.1-0.2-0.1-0.2c-0.2-0.4-0.5-0.8-0.7-1.2c-0.2-0.4-0.5-0.9-0.7-1.3
			c0,0,0,0,0,0c-0.2-0.4-0.5-0.8-0.7-1.3c-0.2-0.4-0.4-0.7-0.6-1.1c-0.1-0.2-0.2-0.4-0.3-0.6c-0.1-0.2-0.2-0.4-0.3-0.6
			c-0.1-0.2-0.2-0.5-0.4-0.7c0-0.1-0.1-0.2-0.1-0.2c0,0,0,0,0,0c-0.1-0.2-0.2-0.4-0.3-0.7c-0.6-1.2-1.1-2.5-1.6-3.8
			c-0.1-0.2-0.2-0.5-0.3-0.7c-0.2-0.4-0.3-0.8-0.5-1.3c0-0.1,0-0.1-0.1-0.2c-0.2-0.4-0.3-0.9-0.5-1.3c-0.1-0.4-0.3-0.9-0.4-1.3
			c0-0.1,0-0.1-0.1-0.2c-0.6-2.1-1.2-4.2-1.7-6.4c0.9,0.2,1.8,0.4,2.6,0.7c0.4,0.1,0.9,0.2,1.3,0.4c0.3,0.1,0.6,0.2,0.9,0.3
			c0.1,0,0.3,0.1,0.4,0.1c0.9,0.2,1.7,0.5,2.6,0.8c1.1,0.3,2.3,0.7,3.4,1.1c0.5,0.2,1,0.3,1.5,0.5c1.1,0.4,2.2,0.7,3.3,1.1v0
			c2.4,0.9,4.8,1.8,7.2,2.7c1.5,0.6,2.9,1.2,4.3,1.8c2.8,1.2,5.5,2.4,8.2,3.8c1.3,0.7,2.7,1.3,4,2c2.6,1.3,5.1,2.7,7.6,4.2
			c0.3,0.2,0.6,0.4,0.9,0.5c0.9,0.5,1.8,1.1,2.7,1.6c0.3,0.2,0.7,0.4,1,0.6c0.3,0.2,0.7,0.4,1,0.6c3,1.9,6,3.8,8.9,5.9
			c0,0,0.1,0,0.1,0.1c0.9,0.7,1.9,1.3,2.8,2c0.7,0.5,1.4,1.1,2.1,1.6c1.6,1.2,3.2,2.5,4.7,3.8c0.4,0.3,0.8,0.7,1.2,1.1
			c0.9-0.8,1.8-1.6,2.8-2.3c1.7-1.4,3.5-2.8,5.3-4.1c0.9-0.7,1.8-1.4,2.8-2c1-0.7,1.9-1.4,2.9-2c1.4-0.9,2.8-1.9,4.2-2.8
			c1-0.6,1.9-1.2,2.9-1.8c0.6-0.4,1.2-0.7,1.8-1.1c0.6-0.4,1.2-0.7,1.9-1.1c0.3-0.2,0.6-0.4,0.9-0.5c2.5-1.4,5-2.8,7.6-4.2
			c0.5-0.3,1-0.5,1.5-0.8c0.8-0.4,1.7-0.8,2.5-1.2c2.7-1.3,5.4-2.6,8.2-3.8c1.4-0.6,2.9-1.2,4.3-1.8v0c2.4-1,4.8-1.9,7.2-2.7
			c1.1-0.4,2.2-0.8,3.3-1.1c0.5-0.2,1-0.3,1.5-0.5c1.1-0.4,2.3-0.7,3.4-1.1c0.9-0.3,1.7-0.5,2.6-0.8v0c0.1,0,0.2-0.1,0.4-0.1
			C144.2,116.4,145.9,116,147.5,115.6L147.5,115.6z"/>
		<path class="st7" d="M147.5,115.6c-0.8,3.9-2,7.7-3.4,11.3c-1.9,0.3-3.8,0.7-5.7,1.1c-1.5,0.3-2.9,0.6-4.4,1
			c-1.7,0.4-3.5,0.8-5.2,1.3c-0.1,0-0.3,0.1-0.4,0.1c-1.8,0.5-3.5,1-5.2,1.5c-1.6,0.5-3.1,1-4.7,1.5c-2.3,0.8-4.7,1.6-7,2.5
			c-1.4,0.5-2.8,1.1-4.1,1.6c-2.5,1-4.9,2.1-7.4,3.2c-0.3,0.1-0.6,0.3-0.9,0.4c-0.6,0.3-1.3,0.6-1.9,0.9c-0.6,0.3-1.2,0.6-1.8,0.9
			c-1,0.5-1.9,1-2.9,1.5c-1.4,0.7-2.8,1.5-4.2,2.3c-0.6,0.3-1.2,0.6-1.7,1c-1.1,0.6-2.3,1.3-3.4,2c-0.6,0.4-1.2,0.7-1.8,1.1
			c-0.5,0.2-0.9,0.4-1.4,0.6c-0.9,0.4-1.8,0.8-2.7,1.2c-0.4,0.2-0.9,0.4-1.3,0.6c-0.4,0.2-0.7,0.3-1,0.5l-0.4,1.6c0,0,0,0,0,0
			l-0.4-1.6c-0.3-0.1-0.5-0.3-0.8-0.4l-0.2-0.1c-1.3-0.6-2.6-1.2-4-1.8c-0.2-0.1-0.3-0.1-0.5-0.2c-0.3-0.1-0.7-0.3-1-0.4
			c0,0,0,0,0,0c0,0,0,0,0,0c-0.4-0.3-0.8-0.5-1.3-0.8c-0.1-0.1-0.3-0.2-0.4-0.2c-0.4-0.2-0.7-0.4-1.1-0.6c-0.4-0.3-0.8-0.5-1.3-0.7
			c-0.4-0.2-0.7-0.4-1-0.6c-2.6-1.5-5.2-2.9-7.8-4.2c-0.3-0.2-0.7-0.3-1-0.5c-1.2-0.6-2.5-1.2-3.7-1.8c-0.3-0.1-0.6-0.3-0.9-0.4
			c-2.4-1.1-4.9-2.2-7.4-3.2c-1.4-0.6-2.8-1.1-4.1-1.6c-2.3-0.9-4.6-1.7-7-2.5c-1.6-0.5-3.1-1-4.7-1.5v0c-1.7-0.5-3.5-1-5.2-1.5
			c-0.1,0-0.3-0.1-0.4-0.1v0c-1.7-0.5-3.5-0.9-5.2-1.3v0c-1.5-0.3-2.9-0.7-4.4-1c-1.9-0.4-3.8-0.7-5.7-1.1
			c-1.4-3.6-2.6-7.4-3.4-11.3c1.8,0.4,3.5,0.9,5.3,1.4c2,0.6,4,1.2,6,1.8c1.6,0.5,3.2,1.1,4.8,1.6v0c2.4,0.9,4.8,1.8,7.2,2.7
			c1.5,0.6,2.9,1.2,4.3,1.8c2.8,1.2,5.5,2.4,8.2,3.8c1.3,0.7,2.7,1.3,4,2c2.6,1.3,5.1,2.7,7.6,4.2c0.3,0.2,0.6,0.4,0.9,0.5
			c0.9,0.5,1.8,1.1,2.7,1.6c0.3,0.2,0.7,0.4,1,0.6c0.3,0.2,0.7,0.4,1,0.6c3,1.9,6,3.8,8.9,5.9c0,0,0.1,0,0.1,0.1
			c0.9,0.7,1.9,1.3,2.8,2c0.7,0.5,1.4,1.1,2.1,1.6c1.6,1.2,3.2,2.5,4.7,3.8c0.4,0.3,0.8,0.7,1.2,1.1c0.9-0.8,1.8-1.6,2.8-2.3
			c1.7-1.4,3.5-2.8,5.3-4.1c0.9-0.7,1.8-1.4,2.8-2c1-0.7,1.9-1.4,2.9-2c1.4-0.9,2.8-1.9,4.2-2.8c1-0.6,1.9-1.2,2.9-1.8
			c0.6-0.4,1.2-0.7,1.8-1.1c0.6-0.4,1.2-0.7,1.9-1.1c0.3-0.2,0.6-0.4,0.9-0.5c2.5-1.4,5-2.8,7.6-4.2c0.5-0.3,1-0.5,1.5-0.8
			c0.8-0.4,1.7-0.8,2.5-1.2c2.7-1.3,5.4-2.6,8.2-3.8c1.4-0.6,2.9-1.2,4.3-1.8v0c2.4-1,4.8-1.9,7.2-2.7c1.6-0.6,3.2-1.1,4.8-1.6
			c2-0.6,4-1.3,6-1.8v0C144,116.5,145.8,116,147.5,115.6z"/>
		<g>
			<g>
				<path class="st7" d="M74.6,155.1C74.6,155.1,74.6,155.1,74.6,155.1C74.6,155.1,74.6,155.1,74.6,155.1c-0.3-0.1-0.7-0.2-1-0.4
					c-0.1,0-0.2-0.1-0.2-0.1c-1.2-0.4-2.4-0.8-3.6-1.2c-1.3-0.4-2.5-0.8-3.8-1.1c-0.1,0-0.2,0-0.3-0.1c-1.1-0.3-2.1-0.6-3.2-0.8
					c-1.3-0.3-2.5-0.6-3.8-0.9c-1.5-0.3-3-0.6-4.4-0.9c0,0,0,0,0,0c-1.3-0.2-2.6-0.4-3.9-0.6c-1.8-0.3-3.6-0.5-5.4-0.7
					c-1.5-0.2-3-0.3-4.6-0.4c-1.1-0.1-2.2-0.1-3.3-0.2c-1.5-0.1-2.9-0.1-4.4-0.1c-0.3,0-0.5,0-0.8,0c-0.6,0-1.2,0-1.8,0
					c-1.9,0-3.7,0.1-5.6,0.2c-0.2,0-0.3,0-0.5,0c-2,0.1-4,0.3-6,0.5c-2-2.4-3.9-4.8-5.6-7.4c0,0,0,0,0,0c0.7,0,1.4-0.1,2.2-0.1
					c1.2,0,2.4,0,3.6,0c0.6,0,1.3,0,1.9,0c1.8,0,3.6,0.1,5.4,0.2c1.1,0.1,2.2,0.1,3.3,0.2c1.6,0.1,3.3,0.3,4.9,0.5
					c1.7,0.2,3.3,0.4,4.9,0.7c1.5,0.2,2.9,0.5,4.3,0.8c2.4,0.5,4.8,1,7.1,1.6c1.1,0.3,2.1,0.5,3.2,0.8c0.2,0,0.3,0.1,0.5,0.1
					c0.8,0.2,1.6,0.5,2.4,0.7c0.5,0.2,1.1,0.3,1.6,0.5c1.6,0.5,3.2,1,4.8,1.6c0.8,0.3,1.7,0.6,2.5,0.9c0.3,0.1,0.6,0.2,1,0.4
					c0.6,0.2,1.1,0.4,1.7,0.7c0,0,0,0,0,0c0,0,0,0,0,0c0.3,0.1,0.7,0.3,1,0.4c0.2,0.1,0.3,0.1,0.5,0.2c1.3,0.6,2.7,1.2,4,1.8
					l0.2,0.1c0.3,0.1,0.5,0.3,0.8,0.4L74.6,155.1z"/>
				<polygon class="st7" points="74.6,155.1 74.6,155.1 74.6,155.1 				"/>
				<path class="st7" d="M136.8,141.1c-1.7,2.6-3.6,5.1-5.6,7.4c-2-0.2-4-0.4-6-0.5c-0.2,0-0.3,0-0.5,0c-1.9-0.1-3.7-0.2-5.6-0.2
					c-0.6,0-1.2,0-1.8,0c-0.3,0-0.5,0-0.8,0c-1.5,0-2.9,0.1-4.4,0.1c-1.1,0-2.2,0.1-3.3,0.2c-1.5,0.1-3,0.2-4.6,0.4
					c-1.8,0.2-3.6,0.4-5.4,0.7c-1.3,0.2-2.6,0.4-3.9,0.6c0,0,0,0,0,0c-1.5,0.3-3,0.5-4.4,0.9c-1.3,0.3-2.5,0.6-3.8,0.9
					c-1.1,0.3-2.1,0.5-3.2,0.8c-0.1,0-0.2,0-0.3,0.1c-1.3,0.4-2.5,0.7-3.8,1.1c-1.2,0.4-2.4,0.8-3.6,1.2c-0.1,0-0.2,0.1-0.2,0.1
					c-0.3,0.1-0.7,0.2-1,0.4l0,0l0.4-1.6c0.3-0.2,0.7-0.3,1-0.5c0.4-0.2,0.9-0.4,1.3-0.6c0.9-0.4,1.8-0.8,2.7-1.2
					c0.5-0.2,0.9-0.4,1.4-0.6c0.6-0.2,1.2-0.5,1.8-0.7c0.3-0.1,0.6-0.3,1-0.4c0.8-0.3,1.6-0.6,2.5-0.9c1.6-0.6,3.2-1.1,4.8-1.6
					c0.5-0.2,1.1-0.3,1.6-0.5c0.8-0.2,1.6-0.5,2.4-0.7c0.2-0.1,0.3-0.1,0.5-0.1c1.1-0.3,2.1-0.6,3.2-0.8c2.4-0.6,4.7-1.1,7.1-1.6
					c1.4-0.3,2.9-0.5,4.3-0.8c1.6-0.3,3.3-0.5,4.9-0.7c1.6-0.2,3.3-0.4,4.9-0.5c1.1-0.1,2.2-0.2,3.3-0.2c1.8-0.1,3.6-0.2,5.4-0.2
					c0.6,0,1.3,0,1.9,0c1.2,0,2.4,0,3.6,0C135.3,141,136,141,136.8,141.1z"/>
			</g>
		</g>
		<path class="st3" d="M60.2,93.6c-0.5,0-0.9-0.1-1.4-0.3c-3.2-2.1-3.8-4.1-4.1-10l-0.5-5.5l-0.5-5.3v0l-3.3-34.8L49.8,74l-0.1,5.6
			l-0.1,8.7l0,0.1l0,0.6l0,0.7l-0.1,8.1l0,2.8l-0.2,15.8l0,2v0l0,2.8v9.8c0.6,0.3,1.1,0.6,1.7,1c1.2,0.7,2.4,1.4,3.7,2.2
			c0.1,0,0.1,0.1,0.2,0.1l0-3.3c0.4-4.1,1.9-5.4,3.8-5.7c0.5-0.1,1-0.2,1.5-0.2c0.6,0,1.2,0.1,1.8,0.3v-32
			C61.2,93.5,60.7,93.6,60.2,93.6z M75,106.2l0-0.8l0-0.8l0-0.7l0-0.7l-0.7-17.9l0-0.7l0-0.7l0-0.3l0-0.6l0-1l-0.3-6.6
			c-0.1-0.2-0.2-0.3-0.2-0.5c-0.1-0.2-0.1-0.3-0.2-0.5c0,0,0,0,0,0c-0.1-0.2-0.2-0.5-0.3-0.7c0-0.1-0.1-0.3-0.1-0.4
			c-0.1-0.2-0.1-0.3-0.1-0.5c0-0.1-0.1-0.2-0.1-0.4c0-0.1-0.1-0.3-0.1-0.4c-0.1-0.3-0.1-0.7-0.2-1c-0.1-0.6-0.2-1.2-0.3-1.8
			c-0.1-0.4-0.1-0.8-0.2-1.2c0-0.2,0-0.4-0.1-0.6c0-0.4-0.1-0.8-0.1-1.2c0-0.1,0-0.2,0-0.4c0-0.1,0-0.2,0-0.3c0-0.2,0-0.4-0.1-0.5
			c0-0.1,0-0.2,0-0.3c0-0.4-0.1-0.7-0.1-1c0-0.1,0-0.2,0-0.2c0-0.1,0-0.3,0-0.4c0-0.1,0-0.1,0-0.2c0,0,0-0.1,0-0.1c0,0,0,0,0-0.1
			c0-0.1,0-0.2,0-0.2l-1-7.9l-0.2-2l-1.5-12l-0.4-3l-1.2-9.5L67,25.4l-0.6-5.1l-0.5-4.1v0L64.7,7v0l-0.3-2.5h-0.5c0-0.1,0-0.2,0-0.3
			c0,0.1,0,0.2,0,0.3h-0.3V140c0.7,0.5,1.3,0.9,2,1.4c0.3,0.2,0.6,0.4,0.8,0.6c0.3,0.2,0.6,0.4,0.8,0.6c0.2,0.2,0.5,0.3,0.7,0.5
			c0.2,0.2,0.5,0.3,0.7,0.5c0.2,0.1,0.4,0.3,0.5,0.4c0.2,0.1,0.4,0.3,0.6,0.4c0.3,0.3,0.7,0.5,1,0.8c0.9,0.7,1.8,1.4,2.6,2.1v-30.8
			c0-2.1,0.7-4,1.8-5.6L75,106.2z M88.2,35.3c0-0.6,0-1.2-0.1-1.9c0-0.9-0.1-1.7-0.1-2.6c0-0.9-0.1-1.8-0.1-2.7
			c0-0.7-0.1-1.4-0.1-2.1c0-0.3,0-0.6,0-0.9c-0.1-1.4-0.1-2.9-0.2-4.3v0c0-1-0.1-2.1-0.1-3.2v0c0-0.9-0.1-1.8-0.1-2.7
			c0-0.8-0.1-1.6-0.1-2.4c0-1-0.1-2-0.2-3c0-0.8-0.1-1.6-0.1-2.4c0-0.9-0.1-1.7-0.1-2.6H75L73.6,20l-0.5,5.2l-0.3,3l-0.3,3.2
			c-0.5,3-1.2,5.2-2,6.8l1.9,15.3c2.1,1.4,2.6,4.4,2.8,7.6l0.4,8.2l0.2,3.6l0.1,1.6l0.2,4.2l0.3,6.3l0,0.3l0.7,18.2l0.2,5.4l0.2,5.5
			V146c0.1-0.1,0.3-0.2,0.4-0.3c0,0,0,0,0.1-0.1v0c0,0,0.1-0.1,0.1-0.1c0,0,0,0,0.1-0.1c0,0,0.1-0.1,0.1-0.1
			c0.2-0.2,0.4-0.3,0.6-0.5c0.3-0.3,0.7-0.5,1-0.8c0,0,0.1,0,0.1-0.1c0.1-0.1,0.2-0.2,0.3-0.2c0.1-0.1,0.3-0.2,0.4-0.3
			c0.2-0.1,0.3-0.3,0.5-0.4c0.2-0.1,0.3-0.3,0.5-0.4c0.6-0.4,1.2-0.9,1.8-1.3c0,0,0.1-0.1,0.1-0.1c0,0,0.1-0.1,0.1-0.1
			c0.1-0.1,0.2-0.1,0.3-0.2c0.1-0.1,0.2-0.1,0.3-0.2c0.5-0.3,0.9-0.7,1.4-1c0.2-0.1,0.3-0.2,0.5-0.4c0.1-0.1,0.2-0.1,0.3-0.2
			c0.6-0.4,1.3-0.9,1.9-1.3V40.2C88.3,38.6,88.3,36.9,88.2,35.3z M100,26.1L100,26.1l-0.4,2.3l-0.8,4.5l-1.1,6.2l-4.3,23.9
			c0,0,0,0,0,0c0,0,0,0,0,0.1c0,0.1,0,0.3-0.1,0.6c0,0.1,0,0.1,0,0.2c-0.1,0.4-0.1,0.9-0.2,1.4c0,0.1,0,0.1,0,0.2
			c-0.1,0.6-0.2,1.2-0.3,1.9c-0.1,0.3-0.1,0.6-0.2,0.9c-0.2,1.1-0.4,2.2-0.6,3.2c0,0.2-0.1,0.4-0.1,0.6c-0.2,1-0.7,2.3-1.4,3.6v34.6
			c1.4,1.6,2.2,3.8,2.2,6.1v19c0.2-0.2,0.5-0.3,0.7-0.5c0.2-0.1,0.3-0.2,0.5-0.3c0.1-0.1,0.2-0.1,0.3-0.2c0.5-0.3,1-0.6,1.4-0.9
			c0.2-0.1,0.4-0.2,0.6-0.3c0.2-0.1,0.4-0.2,0.6-0.3c0.2-0.1,0.4-0.2,0.6-0.4c0.2-0.1,0.5-0.3,0.7-0.4c0.1-0.1,0.3-0.2,0.4-0.2
			c0.1-0.1,0.2-0.1,0.3-0.2c0.5-0.3,1-0.5,1.4-0.8V25.9C100.1,25.9,100.1,26,100,26.1z"/>
		<g>
			<g>
				<path class="st7" d="M88.3,40.2v97.9c-0.7,0.4-1.3,0.9-1.9,1.3c-0.1,0.1-0.2,0.1-0.3,0.2c-0.2,0.1-0.3,0.2-0.5,0.4
					c-0.4,0.3-0.9,0.6-1.4,1c-0.1,0.1-0.2,0.1-0.3,0.2c-0.1,0.1-0.2,0.1-0.3,0.2c0,0-0.1,0.1-0.1,0.1c0,0-0.1,0.1-0.1,0.1
					c-0.6,0.5-1.3,0.9-1.8,1.3c-0.2,0.1-0.3,0.3-0.5,0.4c-0.2,0.1-0.3,0.3-0.5,0.4c-0.2,0.2-0.5,0.4-0.7,0.6c0,0-0.1,0-0.1,0.1
					c-0.3,0.3-0.7,0.5-1,0.8c-0.5,0.4-0.9,0.7-1.4,1.1v-31.7l-0.2-5.5l-0.2-5.4l-0.7-18.2l0-0.3L76,78.6l-0.2-5.8l-0.5-11.8
					c-0.3-3.2-0.7-6.2-2.8-7.6l-1.9-15.3c0.8-1.6,1.5-3.8,2-6.8l0.3-3.2L75,4.5h11.9c0,0.9,0.1,1.7,0.1,2.6c0,0.8,0.1,1.6,0.1,2.4
					c0.1,1,0.1,2,0.2,3c0,0.8,0.1,1.6,0.1,2.4c0,0.9,0.1,1.8,0.1,2.7v0c0,1.1,0.1,2.1,0.1,3.2c0.1,1.4,0.1,2.9,0.2,4.3
					c0,1,0.1,2,0.1,3c0,0.9,0.1,1.8,0.1,2.7c0,0.8,0.1,1.7,0.1,2.6c0,0.6,0,1.2,0.1,1.9C88.3,36.9,88.3,38.6,88.3,40.2z"/>
			</g>
			<path class="st7" d="M74.9,104.6C74.9,104.6,74.9,104.6,74.9,104.6c-0.1,0.1-0.2,0.2-0.3,0.2c-0.1,0.1-0.2,0.1-0.2,0.2
				c-0.1,0.1-0.1,0.1-0.2,0.2c-0.3,0.2-0.5,0.4-0.8,0.6v0c-2.9,2.6-4.7,6.4-4.7,10.6v27.2c-0.2-0.2-0.5-0.3-0.7-0.5
				c-0.2-0.2-0.5-0.3-0.7-0.5c-0.5-0.4-1.1-0.8-1.7-1.2c-0.7-0.5-1.3-0.9-2-1.4V4.5h0.3c0,0.1,0,0.1,0,0.2s0,0.1,0,0.2
				c0,0,0,0.1,0,0.1c0,0.2,0,0.4,0,0.6c0,0.3,0,0.5,0,0.8c0,0.4,0,0.8,0.1,1.2c0,0,0,0,0,0.1c0,0.2,0,0.4,0,0.7
				c0.1,1.5,0.1,3,0.2,4.7c0,0.6,0.1,1.3,0.1,2c0,0.3,0,0.7,0,1c0,0.2,0,0.3,0,0.5c0,0.3,0,0.5,0,0.8c0,0.8,0.1,1.6,0.1,2.4
				c0,0.5,0.1,1.1,0.1,1.6c0,0.3,0,0.6,0,0.8c0,0.3,0,0.6,0,0.8c0.1,1.7,0.2,3.4,0.3,5.2c0,0.5,0.1,1,0.1,1.5
				c0.2,4.2,0.4,8.6,0.7,12.8c0.2,3.5,0.4,6.9,0.6,10.1c0.6,9.5,1.1,17.1,1.5,19.5c0,0.2,0.1,0.4,0.1,0.5c0.9,4.7,2.9,8.8,6.1,11.3
				l0,0.7l0,0.7l0.7,17.9l0,0.7L74.9,104.6z"/>
			<path class="st10" d="M74.1,83.9c-3.2-2.5-5.2-6.6-6.1-11.3c0-0.2-0.1-0.4-0.1-0.5c-0.4-2.4-1-10-1.5-19.5
				c-0.2-3.2-0.4-6.6-0.6-10.1c-0.2-4.2-0.5-8.6-0.7-12.8c0-0.5-0.1-1-0.1-1.5c-0.1-1.7-0.2-3.5-0.3-5.2c0-0.3,0-0.6,0-0.8
				c0-0.3,0-0.6,0-0.8c0-0.5-0.1-1.1-0.1-1.6c0-0.8-0.1-1.6-0.1-2.4c0-0.3,0-0.5,0-0.8c0-0.2,0-0.3,0-0.5c0-0.3,0-0.7,0-1
				c0-0.7-0.1-1.3-0.1-2c-0.1-1.7-0.2-3.3-0.2-4.7c0-0.2,0-0.4,0-0.7c0,0,0,0,0-0.1c0-0.4,0-0.8-0.1-1.2c0-0.3,0-0.5,0-0.8
				c0-0.2,0-0.4,0-0.6c0,0,0-0.1,0-0.1c0-0.1,0-0.1,0-0.2c0-0.1,0-0.1,0-0.2h0.5L64.7,7v0l1.1,9.2v0l1.5,12l1.2,9.5l0.4,3l1.5,12
				l0.2,2l1,7.9c0,0,0.4,5.5,1.1,9.5c0.2,1,0.6,2.2,1.1,3.3L74,82l0,1l0,0.6L74.1,83.9z"/>
			<path class="st10" d="M100,26.1c-0.2,1.6-0.8,9.9-1.4,19c0,0.2,0,0.3,0,0.5c0,0.2,0,0.3,0,0.5c0,0.5-0.1,1-0.1,1.5
				c-0.8,10.8-1.7,22-1.9,24.5c-0.4,3.8-2.6,8.6-6.1,11.5v-7.9c0.7-1.3,1.2-2.6,1.4-3.6c0.8-3.5,1.5-9,1.5-9l4.3-23.9l1.1-6.2
				L100,26.1z"/>
			<path class="st7" d="M100.1,25.9V131c-0.5,0.3-1,0.5-1.4,0.8c-0.1,0.1-0.2,0.1-0.3,0.2c-0.1,0.1-0.3,0.2-0.4,0.2
				c-0.2,0.1-0.5,0.3-0.7,0.4v-16.1c0-0.2,0-0.4,0-0.6c0,0,0-0.1,0-0.1c0-0.1,0-0.3,0-0.4c0-0.1,0-0.2,0-0.3c0-0.1,0-0.1,0-0.2
				c0-0.1,0-0.2,0-0.3c0-0.1,0-0.1,0-0.2c0-0.1,0-0.2,0-0.3c0-0.1,0-0.1,0-0.2c0-0.1,0-0.2-0.1-0.3c-0.1-0.3-0.1-0.6-0.2-1
				c0-0.2-0.1-0.3-0.1-0.5c0,0,0-0.1,0-0.1c0-0.1-0.1-0.2-0.1-0.3c0-0.1,0-0.1-0.1-0.2c0-0.1-0.1-0.3-0.2-0.4
				c-0.1-0.2-0.1-0.3-0.2-0.5c-0.1-0.2-0.1-0.3-0.2-0.5c-0.2-0.4-0.4-0.7-0.6-1c-0.1-0.1-0.1-0.2-0.2-0.3c0,0-0.1-0.1-0.1-0.1
				c-0.1-0.1-0.1-0.2-0.2-0.3c-0.1-0.1-0.2-0.2-0.2-0.3c-0.1-0.1-0.1-0.2-0.2-0.3c-0.3-0.4-0.6-0.8-0.9-1.1
				c-0.1-0.1-0.2-0.2-0.3-0.3c-0.2-0.2-0.4-0.4-0.6-0.6c-0.1-0.1-0.2-0.2-0.3-0.3c-0.5-0.4-0.9-0.7-1.4-1.1
				c-0.1-0.1-0.3-0.2-0.4-0.2V83.6c3.5-3,5.8-7.7,6.1-11.5c0.3-2.4,1.2-13.7,1.9-24.5c0-0.5,0.1-1,0.1-1.5c0-0.2,0-0.3,0-0.5
				c0-0.2,0-0.3,0-0.5c0.6-9.2,1.2-17.5,1.4-19l0,0C100.1,26,100.1,25.9,100.1,25.9z"/>
			<path class="st10" d="M75.2,110.8c-1.1,1.6-1.8,3.5-1.8,5.6v30.8c-0.9-0.7-1.7-1.4-2.6-2.1c-0.3-0.3-0.7-0.5-1-0.8
				c-0.2-0.1-0.4-0.3-0.6-0.4c-0.2-0.1-0.4-0.3-0.5-0.4v-27.2c0-4.2,1.8-8,4.7-10.6v0c0.2-0.2,0.5-0.4,0.8-0.6
				c0.1-0.1,0.1-0.1,0.2-0.2c0.1-0.1,0.1-0.1,0.2-0.2c0.1-0.1,0.2-0.1,0.3-0.2c0,0,0,0,0,0l0,0.8l0,0.8L75.2,110.8z"/>
			<g>
				<path class="st10" d="M97.3,116.4v16.1c-0.2,0.1-0.4,0.2-0.6,0.4c-0.2,0.1-0.4,0.2-0.6,0.3c-0.2,0.1-0.4,0.2-0.6,0.3
					c-1,0.6-2,1.2-3,1.8v-19c0-2.3-0.8-4.4-2.2-6.1v-6.2c0.1,0.1,0.3,0.2,0.4,0.2c0.5,0.3,1,0.7,1.4,1.1c0.1,0.1,0.2,0.2,0.3,0.3
					c0.2,0.2,0.4,0.4,0.6,0.6c0.1,0.1,0.2,0.2,0.3,0.3c0.3,0.4,0.6,0.7,0.9,1.1c0.1,0.1,0.1,0.2,0.2,0.3c0.1,0.1,0.2,0.2,0.2,0.3
					c0.1,0.1,0.1,0.2,0.2,0.3c0,0,0.1,0.1,0.1,0.1c0.1,0.1,0.1,0.2,0.2,0.3c0.2,0.3,0.4,0.7,0.6,1c0.1,0.2,0.2,0.3,0.2,0.5
					c0.1,0.2,0.1,0.3,0.2,0.5c0.1,0.1,0.1,0.3,0.2,0.4c0,0.1,0,0.1,0.1,0.2c0,0.1,0.1,0.2,0.1,0.3c0,0,0,0.1,0,0.1
					c0,0.2,0.1,0.3,0.1,0.5c0.1,0.3,0.2,0.6,0.2,1c0,0.1,0,0.2,0.1,0.3c0,0.1,0,0.1,0,0.2c0,0.1,0,0.2,0,0.3c0,0.1,0,0.1,0,0.2
					c0,0.1,0,0.2,0,0.3c0,0.1,0,0.1,0,0.2c0,0.1,0,0.2,0,0.3c0,0.1,0,0.3,0,0.4c0,0,0,0.1,0,0.1C97.3,116,97.3,116.2,97.3,116.4z"/>
			</g>
			<path class="st10" d="M61.6,93.4v10.2c0,0,0,0,0,0c-0.1,0.1-0.1,0.1-0.2,0.2c-0.6,0.4-1.2,0.7-1.8,0.9c-0.1,0-0.2,0.1-0.2,0.1
				c-0.2,0.1-0.3,0.1-0.5,0.1c-0.1,0-0.1,0-0.2,0c-0.1,0-0.3,0.1-0.4,0.1c-0.3,0.1-0.6,0.1-0.9,0.1c-0.1,0-0.2,0-0.3,0
				c-0.2,0-0.4,0-0.5,0c-0.1,0-0.2,0-0.3,0c-0.1,0-0.2,0-0.3,0c-4.6-0.1-6.3-5.7-6.4-14.2c0-0.5,0-0.9,0-1.4l0-0.7l0-0.6l0-0.1
				l0.8-50.5l4.3,45.6c0.3,5.9,0.9,7.9,4.1,10c0.5,0.2,1,0.3,1.4,0.3C60.7,93.6,61.2,93.5,61.6,93.4z"/>
			<path class="st10" d="M61.6,116.1v9.3c-0.6-0.2-1.1-0.3-1.8-0.3c-0.5,0-1,0.1-1.5,0.2c-1.9,0.2-3.4,1.6-3.8,5.7l0,3.3
				c-0.1,0-0.1-0.1-0.2-0.1c-1.3-0.8-2.5-1.5-3.7-2.2c-0.6-0.3-1.1-0.7-1.7-1v-9.8c1-5,2.9-7.9,6-8.1c0.2,0,0.5,0,0.7,0
				c0.1,0,0.2,0,0.4,0l0.2,0c0.1,0,0.2,0,0.3,0c0.1,0,0.1,0,0.2,0c0,0,0.1,0,0.1,0c0.1,0,0.1,0,0.2,0h0c0.1,0,0.2,0,0.3,0.1
				c0,0,0,0,0,0c0.1,0,0.2,0.1,0.3,0.1c0.4,0.1,0.8,0.3,1.1,0.5c0.1,0,0.2,0.1,0.3,0.1c0,0,0,0,0.1,0c0.1,0.1,0.2,0.1,0.3,0.2
				c0,0,0.1,0,0.1,0.1c0,0,0.1,0.1,0.1,0.1c0.2,0.1,0.3,0.3,0.5,0.4c0,0,0.1,0.1,0.1,0.1c0.1,0.1,0.3,0.2,0.4,0.4
				c0.1,0.1,0.1,0.1,0.2,0.2C61.3,115.7,61.5,115.9,61.6,116.1z"/>
			<path class="st7" d="M61.6,103.6v12.5c-0.2-0.2-0.4-0.4-0.6-0.6c-0.1-0.1-0.1-0.1-0.2-0.2c-0.1-0.1-0.3-0.3-0.4-0.4
				c0,0-0.1-0.1-0.1-0.1c-0.2-0.1-0.3-0.3-0.5-0.4c0,0-0.1-0.1-0.1-0.1c0,0-0.1,0-0.1-0.1c-0.1-0.1-0.2-0.1-0.3-0.2c0,0,0,0-0.1,0
				c-0.1-0.1-0.2-0.1-0.3-0.1c-0.4-0.2-0.7-0.4-1.1-0.5c-0.1,0-0.2-0.1-0.3-0.1c0,0,0,0,0,0c-0.1,0-0.2-0.1-0.3-0.1h0
				c-0.1,0-0.1,0-0.2,0c0,0-0.1,0-0.1,0c-0.1,0-0.1,0-0.2,0c-0.1,0-0.2,0-0.3,0l-0.2,0c-0.1,0-0.2,0-0.4,0c-0.2,0-0.5,0-0.7,0
				c-3.1,0.2-4.9,3.1-6,8.1l0-2.8v0l0-2l0.2-15.8l0-2.8l0.1-8.1c0,0.5,0,0.9,0,1.4c0.1,8.5,1.8,14,6.4,14.2c0.1,0,0.2,0,0.3,0
				c0.1,0,0.2,0,0.3,0c0.2,0,0.4,0,0.5,0c0.1,0,0.2,0,0.3,0c0.3,0,0.6-0.1,0.9-0.1c0.1,0,0.3,0,0.4-0.1c0.1,0,0.1,0,0.2,0
				c0.2,0,0.4-0.1,0.5-0.1c0.1,0,0.2,0,0.2-0.1c0.7-0.2,1.3-0.5,1.8-0.9C61.5,103.7,61.5,103.7,61.6,103.6
				C61.6,103.6,61.6,103.6,61.6,103.6z"/>
		</g>
		<g>
			<g>
				<path class="st0" d="M148.7,8.5c-0.1-0.3-0.2-0.6-0.3-0.8c0-0.1-0.1-0.3-0.2-0.4c-0.1-0.1-0.1-0.3-0.2-0.4
					c-0.1-0.1-0.1-0.2-0.2-0.4c0-0.1-0.1-0.2-0.2-0.3c0-0.1-0.1-0.2-0.1-0.3c-0.1-0.2-0.3-0.5-0.4-0.7c-0.1-0.1-0.2-0.3-0.3-0.4
					c-0.1-0.1-0.2-0.3-0.3-0.4c-0.2-0.2-0.3-0.4-0.5-0.6c-0.1-0.1-0.2-0.2-0.3-0.3c-0.1-0.1-0.3-0.3-0.4-0.4
					c-0.1-0.1-0.3-0.3-0.4-0.4c-0.1-0.1-0.3-0.2-0.5-0.4c-0.1-0.1-0.3-0.2-0.4-0.3c-0.1,0-0.1-0.1-0.2-0.1c-0.1-0.1-0.3-0.2-0.4-0.2
					c-0.1-0.1-0.3-0.2-0.4-0.2c-0.1,0-0.2-0.1-0.3-0.1c-0.1-0.1-0.3-0.1-0.4-0.2c0,0,0,0,0,0c-0.2-0.1-0.4-0.2-0.5-0.2
					c-0.1,0-0.2-0.1-0.3-0.1c-0.2-0.1-0.4-0.1-0.6-0.2c-1.2-0.4-2.5-0.6-3.9-0.6H12c-0.1,0-0.3,0-0.4,0c-0.1,0-0.1,0-0.2,0
					c0,0,0,0-0.1,0c-0.1,0-0.1,0-0.2,0c-0.1,0-0.1,0-0.2,0c0,0,0,0-0.1,0c-0.2,0-0.3,0-0.5,0c0,0,0,0,0,0c-0.2,0-0.3,0-0.5,0.1
					c0,0,0,0-0.1,0c-0.1,0-0.3,0.1-0.4,0.1c0,0,0,0,0,0c0,0,0,0,0,0C9.3,0.3,9.2,0.3,9,0.4c0,0,0,0-0.1,0c-0.2,0-0.3,0.1-0.5,0.1
					c-0.1,0-0.1,0-0.2,0.1C8.2,0.6,8.1,0.7,8,0.7c-0.1,0-0.3,0.1-0.4,0.1c0,0-0.1,0-0.1,0.1C7.4,0.9,7.3,1,7.2,1c0,0,0,0,0,0
					C7.1,1,7.1,1.1,7,1.1c0,0,0,0,0,0c-0.1,0-0.2,0.1-0.3,0.1c0,0,0,0,0,0c0,0-0.1,0-0.1,0.1c-0.1,0-0.1,0.1-0.2,0.1
					c-0.1,0-0.1,0.1-0.2,0.1C6.1,1.6,5.9,1.7,5.8,1.8C5.6,1.8,5.5,1.9,5.4,2c0,0-0.1,0.1-0.1,0.1C5.2,2.2,5.1,2.2,5,2.3
					c0,0-0.1,0-0.1,0.1c-0.1,0-0.1,0.1-0.2,0.1c0,0,0,0,0,0C4.6,2.6,4.5,2.6,4.4,2.7c0,0-0.1,0.1-0.1,0.1c0,0,0,0,0,0
					C4.2,2.9,4.1,3,4,3.1c0,0,0,0,0,0c0,0-0.1,0.1-0.1,0.1C3.8,3.3,3.7,3.4,3.6,3.5l0,0C3.5,3.5,3.5,3.6,3.4,3.6
					C3.3,3.7,3.2,3.8,3.1,3.9C3,4,3,4.1,2.9,4.2c0,0,0,0.1-0.1,0.1C2.7,4.4,2.6,4.6,2.5,4.7C2.5,4.8,2.4,4.8,2.4,4.9
					C2.3,5,2.3,5,2.2,5.1C2.1,5.2,2,5.3,2,5.5c0,0-0.1,0.1-0.1,0.1c0,0.1-0.1,0.1-0.1,0.2c0,0-0.1,0.1-0.1,0.1
					C1.5,6.2,1.3,6.5,1.2,6.8C1.1,6.9,1.1,7.1,1,7.2C0.9,7.4,0.9,7.5,0.8,7.7c0,0.1-0.1,0.2-0.1,0.3c0,0,0,0,0,0
					c0,0.1-0.1,0.2-0.1,0.2c0,0,0,0,0,0c0,0.1-0.1,0.2-0.1,0.3c0,0,0,0,0,0c0,0,0,0.1,0,0.1c0,0,0,0,0,0c0,0.1-0.1,0.3-0.1,0.4
					c0,0.1-0.1,0.3-0.1,0.4c0,0,0,0.1,0,0.1c0,0,0,0,0,0c0,0.1,0,0.2,0,0.3c0,0.1,0,0.2-0.1,0.3c0,0.2,0,0.3-0.1,0.5
					c0,0.2,0,0.3,0,0.5c0,0.1,0,0.2,0,0.2c0,0.1,0,0.2,0,0.2c0,0.2,0,0.3,0,0.5V100c0,0.1,0,0.1,0,0.2c0,0.4,0,0.8,0,1.2
					c0,0.1,0,0.3,0,0.4c0,0.1,0,0.3,0,0.4c0,0.2,0,0.4,0,0.6c0,0.3,0,0.6,0,0.9c0,0.7,0.1,1.4,0.1,2.1c0,0.4,0.1,0.8,0.1,1.2
					c0.1,1.3,0.3,2.7,0.5,4c0,0.2,0.1,0.5,0.1,0.7c0,0,0,0.1,0,0.1c0,0,0,0.1,0,0.1c0.1,0.6,0.2,1.2,0.3,1.9
					c0.1,0.3,0.1,0.6,0.2,0.9c0.1,0.3,0.1,0.6,0.2,0.9v0c0.9,0.2,1.8,0.4,2.6,0.7c0.4,0.1,0.9,0.2,1.3,0.4c0.3,0.1,0.6,0.2,0.9,0.3
					c0.1,0,0.3,0.1,0.4,0.1c0.4,0.1,0.9,0.2,1.3,0.4c0.4,0.1,0.9,0.3,1.3,0.4c0.3,0.1,0.6,0.2,0.9,0.3c0.3,0.1,0.7,0.2,1,0.3
					c0.5,0.2,1,0.3,1.5,0.5c0.5,0.2,1,0.3,1.5,0.5c1.1,0.4,2.2,0.7,3.3,1.1v0c2.4,0.9,4.8,1.8,7.2,2.7c1.5,0.6,2.9,1.2,4.3,1.8
					c2.8,1.2,5.5,2.4,8.2,3.8c1.3,0.7,2.7,1.3,4,2c2.6,1.3,5.1,2.7,7.6,4.2c0.3,0.2,0.6,0.4,0.9,0.5c0.9,0.5,1.8,1.1,2.7,1.6
					c0.3,0.2,0.7,0.4,1,0.6c0.3,0.2,0.7,0.4,1,0.6c3,1.9,6,3.8,8.9,5.9c0,0,0.1,0,0.1,0.1c0.9,0.7,1.9,1.3,2.8,2
					c0.7,0.5,1.4,1.1,2.1,1.6c1.6,1.2,3.2,2.5,4.7,3.8c0.4,0.3,0.8,0.7,1.2,1.1c0.9-0.8,1.8-1.6,2.8-2.3c1.7-1.4,3.5-2.8,5.3-4.1
					c0.9-0.7,1.8-1.4,2.8-2c1-0.7,1.9-1.4,2.9-2c1.4-0.9,2.8-1.9,4.2-2.8c1-0.6,1.9-1.2,2.9-1.8c0.6-0.4,1.2-0.7,1.8-1.1
					c0.6-0.4,1.2-0.7,1.9-1.1c0.3-0.2,0.6-0.4,0.9-0.5c2.5-1.4,5-2.8,7.6-4.2c0.5-0.3,1-0.5,1.5-0.8c0.8-0.4,1.7-0.8,2.5-1.2
					c2.7-1.3,5.4-2.6,8.2-3.8c1.4-0.6,2.9-1.2,4.3-1.8v0c2.4-1,4.8-1.9,7.2-2.7c0.6-0.2,1.1-0.4,1.7-0.6s1.1-0.4,1.7-0.6
					c0.5-0.2,1-0.3,1.5-0.5c0.6-0.2,1.1-0.4,1.7-0.5c0.6-0.2,1.1-0.4,1.7-0.5c0.4-0.1,0.7-0.2,1.1-0.3c0.5-0.1,1-0.3,1.5-0.4v0
					c0.1,0,0.2-0.1,0.4-0.1c1.6-0.5,3.3-0.9,4.9-1.3h0c0.1-0.3,0.1-0.6,0.2-0.9c0-0.2,0.1-0.4,0.1-0.6c0-0.2,0.1-0.4,0.1-0.6
					c0.1-0.4,0.2-0.8,0.2-1.3c0-0.1,0-0.2,0.1-0.4c0,0,0,0,0-0.1c0,0,0,0,0-0.1c0.1-0.3,0.1-0.6,0.2-1c0-0.3,0.1-0.6,0.1-0.9
					c0-0.2,0-0.4,0.1-0.5c0-0.2,0.1-0.4,0.1-0.7c0-0.4,0.1-0.8,0.1-1.2c0-0.1,0-0.1,0-0.2c0-0.1,0-0.1,0-0.2c0-0.1,0-0.2,0-0.3
					c0,0,0,0,0-0.1c0-0.1,0-0.1,0-0.2c0-0.1,0-0.1,0-0.2c0-0.1,0-0.2,0-0.4c0-0.2,0-0.3,0-0.5c0-0.2,0-0.3,0-0.5c0-0.1,0-0.2,0-0.4
					c0-0.1,0-0.2,0-0.3c0-0.1,0-0.2,0-0.3c0-0.1,0-0.2,0-0.3c0-0.3,0-0.6,0-0.9c0-0.2,0-0.3,0-0.5c0-0.1,0-0.2,0-0.3
					c0-0.1,0-0.2,0-0.3c0-0.7,0-1.3,0-2V12C149.2,10.8,149,9.6,148.7,8.5z M61.6,125.4c-0.6-0.2-1.1-0.3-1.8-0.3
					c-0.5,0-1,0.1-1.5,0.2c-1.9,0.2-3.4,1.6-3.8,5.7l0,3.3c-0.1,0-0.1-0.1-0.2-0.1c-1.3-0.8-2.5-1.5-3.7-2.2c-0.6-0.3-1.1-0.7-1.7-1
					v-9.8l0-2.8v0l0-2l0.2-15.8l0-2.8l0.1-8.1l0-0.7l0-0.6l0-0.1l0.1-8.7l0.1-5.6l0.5-36.1l3.3,34.8v0l0.5,5.3l0.5,5.5
					c0.3,5.9,0.9,7.9,4.1,10c0.5,0.2,1,0.3,1.4,0.3c0.5,0,1-0.1,1.4-0.3V125.4z M62.3,91.6c0,0.2-0.2,0.4-0.5,0.4
					c-0.1,0-0.1,0-0.2,0c-0.2,0-0.3,0-0.5,0.1c-0.3,0.1-0.6,0.2-1,0.2c-0.3,0-0.5,0-0.8-0.1c-2.5-1.7-3-3.2-3.4-8.8c0,0,0,0,0-0.1
					l-0.6-5.8L55,72.2l-3.2-34.5c-0.1-0.7-0.7-1.2-1.4-1.2h-0.1c-0.7,0-1.3,0.6-1.3,1.4l-0.6,36.7l-0.1,5.7l-0.1,8.2l0,1.3
					l-0.5,31.5v9c-1.5-0.8-3.1-1.7-4.6-2.5c-1.3-0.7-2.6-1.3-4.1-2c-2.8-1.4-5.6-2.6-8.3-3.8c-1.4-0.6-2.9-1.2-4.4-1.8
					c-2.4-1-4.9-1.9-7.2-2.7c0,0-0.1,0-0.1-0.1c-1.1-0.4-2.3-0.8-3.4-1.2c-0.5-0.2-1-0.3-1.5-0.5c-0.5-0.2-0.9-0.3-1.4-0.4
					c-0.7-0.2-1.3-0.4-2-0.6c-0.9-0.3-1.8-0.5-2.7-0.8c-0.7-0.2-1.4-0.4-2.2-0.6c-0.1-0.6-0.2-1.3-0.3-1.9v0l0,0l0-0.1l0-0.1
					c0-0.2-0.1-0.4-0.1-0.6l0,0v0c-0.2-1.2-0.3-2.5-0.5-3.7c0-0.4-0.1-0.7-0.1-1.1c0-0.6-0.1-1.2-0.1-1.9c0-0.3,0-0.6,0-0.8v0
					c0-0.3,0-0.6,0-0.9v0c0-0.7,0-1.3,0-1.9V12c0-4.2,3.4-7.6,7.6-7.6h50.2V91.6z M73.6,4.5L72.2,20l-0.5,5.2l-0.3,3l-0.3,3
					c-0.3,1.5-0.6,2.8-0.9,3.9c-0.1,0.4-0.7,0.3-0.8-0.1l-0.8-6.8l-0.3-2.9l-0.6-5.1L65.8,4.5H73.6z M73.4,116.4v30.8
					c-0.9-0.7-1.7-1.4-2.6-2.1c-0.3-0.3-0.7-0.5-1-0.8c-0.2-0.1-0.4-0.3-0.6-0.4c-0.2-0.1-0.4-0.3-0.5-0.4c-0.2-0.2-0.5-0.3-0.7-0.5
					c-0.2-0.2-0.5-0.3-0.7-0.5c-0.3-0.2-0.6-0.4-0.8-0.6c-0.3-0.2-0.6-0.4-0.8-0.6c-0.7-0.5-1.3-0.9-2-1.4V4.5h0.3
					c0-0.1,0-0.2,0-0.3c0,0.1,0,0.2,0,0.3h0.5L64.7,7v0l1.1,9.2v0l0.5,4.1l0.6,5.1l0.3,2.8l1.2,9.5l0.4,3l1.5,12l0.2,2l1,7.9
					c0,0,0,0.1,0,0.2c0,0,0,0,0,0.1c0,0,0,0.1,0,0.1c0,0,0,0.1,0,0.2c0,0.1,0,0.2,0,0.4c0,0.1,0,0.1,0,0.2c0,0.3,0.1,0.6,0.1,1
					c0,0.1,0,0.2,0,0.3c0,0.2,0,0.4,0.1,0.5c0,0.1,0,0.2,0,0.3c0,0.1,0,0.2,0,0.4c0,0.4,0.1,0.8,0.1,1.2c0,0.2,0,0.4,0.1,0.6
					c0.1,0.4,0.1,0.8,0.2,1.2c0.1,0.6,0.2,1.2,0.3,1.8c0.1,0.3,0.1,0.7,0.2,1c0,0.1,0.1,0.3,0.1,0.4c0,0.1,0.1,0.2,0.1,0.4
					c0,0.2,0.1,0.3,0.1,0.5c0,0.1,0.1,0.2,0.1,0.4c0.1,0.2,0.2,0.5,0.3,0.7c0,0,0,0,0,0c0.1,0.2,0.1,0.3,0.2,0.5
					c0.1,0.2,0.1,0.3,0.2,0.5L74,82l0,1l0,0.6l0,0.3l0,0.7l0,0.7l0.7,17.9l0,0.7l0,0.7l0,0.8l0,0.8l0.2,4.6
					C74,112.4,73.4,114.3,73.4,116.4z M88.3,138.1c-0.7,0.4-1.3,0.9-1.9,1.3c-0.1,0.1-0.2,0.1-0.3,0.2c-0.2,0.1-0.3,0.2-0.5,0.4
					c-0.4,0.3-0.9,0.6-1.4,1c-0.1,0.1-0.2,0.1-0.3,0.2c-0.1,0.1-0.2,0.1-0.3,0.2c0,0-0.1,0.1-0.1,0.1c0,0-0.1,0.1-0.1,0.1
					c-0.6,0.5-1.3,0.9-1.8,1.3c-0.2,0.1-0.3,0.3-0.5,0.4c-0.2,0.1-0.3,0.3-0.5,0.4c-0.1,0.1-0.3,0.2-0.4,0.3
					c-0.1,0.1-0.2,0.2-0.3,0.2c0,0-0.1,0-0.1,0.1c-0.3,0.3-0.7,0.5-1,0.8c-0.2,0.2-0.4,0.3-0.6,0.5c0,0-0.1,0.1-0.1,0.1
					c0,0,0,0-0.1,0.1c0,0-0.1,0.1-0.1,0.1v0c0,0,0,0-0.1,0.1c-0.1,0.1-0.3,0.2-0.4,0.3v-31.7l-0.2-5.5l-0.2-5.4l-0.7-18.2l0-0.3
					L76,78.6l-0.2-4.2l-0.1-1.6l-0.2-3.6l-0.4-8.2c-0.3-3.2-0.7-6.2-2.8-7.6l-1.9-15.3c0.8-1.6,1.5-3.8,2-6.8l0.3-3.2l0.3-3l0.5-5.2
					L75,4.5h11.9c0,0.9,0.1,1.7,0.1,2.6c0,0.8,0.1,1.6,0.1,2.4c0.1,1,0.1,2,0.2,3c0,0.8,0.1,1.6,0.1,2.4c0,0.9,0.1,1.8,0.1,2.7v0
					c0,1.1,0.1,2.1,0.1,3.2v0c0.1,1.4,0.1,2.9,0.2,4.3c0,0.3,0,0.6,0,0.9c0,0.7,0.1,1.4,0.1,2.1c0,0.9,0.1,1.8,0.1,2.7
					c0,0.8,0.1,1.7,0.1,2.6c0,0.6,0,1.2,0.1,1.9c0,1.7,0.1,3.3,0.1,5V138.1z M100.1,131c-0.5,0.3-1,0.5-1.4,0.8
					c-0.1,0.1-0.2,0.1-0.3,0.2c-0.1,0.1-0.3,0.2-0.4,0.2c-0.2,0.1-0.5,0.3-0.7,0.4c-0.2,0.1-0.4,0.2-0.6,0.4
					c-0.2,0.1-0.4,0.2-0.6,0.3c-0.2,0.1-0.4,0.2-0.6,0.3c-0.5,0.3-1,0.6-1.4,0.9c-0.1,0.1-0.2,0.1-0.3,0.2c-0.2,0.1-0.3,0.2-0.5,0.3
					c-0.2,0.2-0.5,0.3-0.7,0.5v-19c0-2.3-0.8-4.4-2.2-6.1V75.7c0.7-1.3,1.2-2.6,1.4-3.6c0-0.2,0.1-0.4,0.1-0.6
					c0.2-1,0.4-2.1,0.6-3.2c0.1-0.3,0.1-0.6,0.2-0.9c0.1-0.7,0.2-1.3,0.3-1.9c0-0.1,0-0.1,0-0.2c0.1-0.6,0.2-1,0.2-1.4
					c0-0.1,0-0.1,0-0.2c0-0.3,0.1-0.5,0.1-0.6c0,0,0,0,0-0.1c0,0,0,0,0,0l4.3-23.9l1.1-6.2l0.8-4.5l0.4-2.2l0,0c0-0.2,0-0.2,0-0.2
					V131z M144.7,99.8c0,0.6,0,1.2,0,1.9v0c0,0.3,0,0.6,0,0.9c0,0.4,0,0.8-0.1,1.2c0,0.6-0.1,1.1-0.1,1.8v0l0,0c0,0.3,0,0.6-0.1,1
					l0,0v0c-0.1,1.1-0.3,2.3-0.4,3.5l0,0.1c0,0.3-0.1,0.5-0.1,0.8l0,0l0,0l0,0.1c-0.1,0.6-0.2,1.3-0.3,1.9c-0.7,0.2-1.4,0.4-2.1,0.6
					c0,0-0.1,0-0.1,0c-0.9,0.2-1.7,0.5-2.6,0.8h0c-0.7,0.2-1.3,0.4-2,0.6c-0.5,0.1-0.9,0.3-1.4,0.4c-0.5,0.2-1,0.3-1.5,0.5
					c-1.2,0.4-2.3,0.8-3.4,1.2c-2.5,0.9-4.9,1.8-7.4,2.8c0,0-0.1,0-0.1,0.1c-1.5,0.6-2.9,1.2-4.3,1.8c-2.8,1.2-5.6,2.5-8.3,3.8
					c-0.8,0.4-1.7,0.8-2.5,1.3c-0.5,0.3-1,0.5-1.5,0.8c-1.6,0.8-3.1,1.6-4.6,2.5V25.9c0-0.8-0.6-1.4-1.4-1.4c-0.4,0-1.2,0.1-1.4,1.4
					c0,0,0,0,0,0L98.3,28l0,0.1L92,62.8c0,0,0,0,0,0.1c0,0.1-0.7,4.9-1.4,8.3c0,0.2-0.1,0.4-0.1,0.6c0,0,0,0,0,0
					c-0.1,0.4-0.8,0.4-0.8-0.1V40.2c-0.1-4-0.2-8-0.3-12c0-0.6,0-1.3-0.1-1.9c-0.1-1.8-0.1-3.5-0.2-5.3c-0.2-5.5-0.5-11-0.8-16.5
					h48.9c4.2,0,7.6,3.4,7.6,7.6V99.8z"/>
			</g>
		</g>
	</g>
</g>
</svg>
